<?xml version="1.0" encoding="utf-8"?>
<!-- Generator: Adobe Illustrator 13.0.0, SVG Export Plug-In . SVG Version: 6.00 Build 14948)  -->
<!DOCTYPE svg PUBLIC "-//W3C//DTD SVG 1.1//EN" "http://www.w3.org/Graphics/SVG/1.1/DTD/svg11.dtd">
<svg version="1.1" id="Ebene_1" xmlns="http://www.w3.org/2000/svg" xmlns:xlink="http://www.w3.org/1999/xlink" x="0px" y="0px"
	 width="454.08px" height="339.84px" viewBox="0 0 454.08 339.84" enable-background="new 0 0 454.08 339.84" xml:space="preserve">
<path fill="#8C8179" d="M249.541,226.148c-9.003,46.611-60.315,65.202-97.574,59.591c-3.504-22.204,23.444-50.587,34.478-49.951
	C206.548,219.156,250.518,221.088,249.541,226.148z"/>
<path d="M352.871,212.298c-0.947,2.128-1.902,4.037-2.864,5.764c-0.962,1.727-1.93,3.273-2.908,4.663
	c-1.955,2.777-3.944,4.941-5.997,6.601c-4.112,3.317-8.474,4.587-13.541,4.157c-6.175-0.412-13.473-3.799-22.577-6.263
	c-7.898-2.318-18.146-3.33-28.12,1.375c-10.017,4.374-19.762,14.464-27.637,26.689c-11.878,21.209,21.1,49.514,56.1,43.213
	c22.709-5.525,37.529-18.837,44.156-35.19c0.901-2.087,1.684-4.193,2.354-6.306c0.67-2.113,1.23-4.23,1.69-6.344
	c0.92-4.231,1.438-8.443,1.633-12.641C355.541,229.603,354.654,221.285,352.871,212.298L352.871,212.298z"/>
<path fill="#A89D96" d="M348.012,266.301c-0.496,2.232,2.299-7.912,0.063-14.651c-1.995-7.632-9.021-11.861-23.573-18.412
	c-2.483-1.101-11.36-3.347-11.48-3.543c0.013-0.022,4.832,4.27,11.233,12.308c3.461,4.342,6.367,9.841,7.856,15.775
	c1.546,6.195,0.945,12.509-1.525,19.958c-1.702,5.31-6.452,11.873-10.539,15.294C324.905,292.51,342.307,280.822,348.012,266.301
	L348.012,266.301z"/>
<path fill="#A89D96" d="M313.256,279.438c9.556-12.301,9.751-28.166-14.201-53.365c-2.384-1.388-9.931-0.764-9.947-0.614
	c-0.017-0.072,5.726,5.354,8.211,11.434c2.075,5.006,4.292,15.705,2.634,21.717c-1.779,6.839-8.169,15.823-12.307,20.75
	c-3.379,3.837-12.192,9.749-19.848,13.07c3.405,1.731,11.729,5.5,18.407,6.148C286.208,298.578,299.149,297.982,313.256,279.438z"/>
<path fill="#B9B2AA" d="M292.998,239.01c11.497,74.692-46.904,77.76-118.765,77.391c1.739-23.174,10.156-43.099,21.489-47.244
	c-13.425-13.222-6.485-25.815-7.971-28.361c-2.38-1.139-52.926-14.524-54.324-24.638c20.685-42.686,84.341-54.886,95.953-55.192
	s85.39,21.329,102.145,44.464c0.096,6.073-20.825,21.636-32.763,24.746C284.013,234.019,291.385,228.53,292.998,239.01z"/>
<path fill="#B9B2AA" d="M308.584,141.227c0,0,0.943-16.033,0.754-19.995c-0.188-3.961-0.566-16.033-0.754-19.428
	c-0.188-3.396,0.566-19.995-0.188-25.276c-0.755-5.282-2.075-17.731-7.357-21.126c-5.282-3.395-19.429,0.943-25.465,3.207
	c-6.037,2.263-14.525,10.186-18.486,10.563c-3.961,0.377-6.037-2.641-10.752-3.961c-11.327-3.171-13.767-3.581-18.073-3.581
	c-4.307,0-6.746,0.409-18.073,3.581c-4.716,1.32-6.791,4.338-10.752,3.961c-3.961-0.377-12.45-8.3-18.487-10.563
	c-6.036-2.264-20.184-6.602-25.466-3.207c-5.282,3.396-6.602,15.845-7.357,21.126c-0.754,5.281,0,21.88-0.188,25.276
	c-0.188,3.395-0.566,15.467-0.754,19.428c-0.188,3.961,0.754,19.995,0.754,19.995H308.584z"/>
<path fill="#E2DFD9" d="M270.828,182.25c10.724-4.547,15.391-5.54,25.775-5.939c10.385-0.399,17.443-7.81,17.443-17.443
	c0,0,0.399-26.102-4.993-36.687c-5.392-10.584-19.46-22.204-33.512-21.804c-35.51,0.312-24.759,11.333-47.28,11.333
	c-22.521,0-11.559-11.021-47.134-11.333c-14.052-0.399-28.122,11.22-33.514,21.804s-4.993,36.687-4.993,36.687
	c0,9.634,7.059,17.044,17.443,17.443c10.385,0.399,15.052,1.392,25.776,5.939c22.754,9.649,24.411,22.22,42.367,22.22
	S248.073,191.899,270.828,182.25z"/>
<path d="M228.461,195.05c5.529,0.83,14.24-8.748,13.242-13.978c-0.873-4.57-8.912-4.949-8.988-9.864
	c-0.152-9.894-0.552-12.506,0.83-11.148c5.371,5.276,20.323,11.61,30.829,13.283c5.817,0.926,20.335,0.059,23.029-0.995
	s4.521-2.08,9.993-3.505c7.004-1.823,9.303,3.572,8.044-7.806c-1.191-10.762-4.686-24.25-17.635-33.668
	c-5.395-3.923-19.127-9.073-28.201-8.583c-9.073,0.49-20.18,12.106-22.436,11.416c-2.256-0.689-4.054-21.188-5.139-26.206
	c-1.38-6.384-1.628-11.701-3.7-11.701s-2.316,5.3-3.7,11.701c-1.085,5.018-2.883,25.517-5.139,26.206
	c-2.256,0.69-13.363-10.926-22.436-11.416c-9.073-0.491-22.806,4.659-28.201,8.583c-12.949,9.417-16.443,22.906-17.634,33.668
	c-1.26,11.378,1.04,5.982,8.044,7.806c5.472,1.425,7.299,2.451,9.993,3.505c2.694,1.054,17.212,1.921,23.029,0.995
	c10.506-1.672,25.458-8.006,30.83-13.283c1.381-1.357,0.982,1.255,0.83,11.148c-0.076,4.915-8.116,5.294-8.988,9.864
	c-0.998,5.23,7.713,14.807,13.242,13.978"/>
<ellipse fill="#EB6C12" cx="228.036" cy="215.967" rx="6.537" ry="7.99"/>
<path fill="#EB6C12" d="M260.149,196.771c-3.258-1.372-7.775-1.352-13.491,3.105c-4.605,3.592-7.037,3.731-8.208,7.999
	c-0.719,2.624,0.854,3.588,1.367,5.809c0.512,2.221-1.538,7.004-0.171,9.396c0.661,1.156,6.11,2.521,9.216,3.799
	c3.132,1.29,9.729,1.944,11.97,1.838C273.718,228.109,266.642,199.505,260.149,196.771z"/>
<path fill="#EB6C12" d="M196.234,196.559c3.258-1.372,7.775-1.352,13.491,3.105c4.605,3.592,7.037,3.731,8.207,7.999
	c0.72,2.624-0.854,3.588-1.367,5.809c-0.512,2.221,1.538,7.004,0.171,9.396c-0.661,1.156-6.11,2.521-9.216,3.799
	c-3.132,1.29-9.729,1.944-11.97,1.838C182.666,227.896,189.741,199.292,196.234,196.559z"/>
<path d="M304.746,185.875c0.57,2.736,5.822,10.511,5.447,11.657c-0.375,1.146-3.707,7.557-3.853,8.51s6.082,7.475,5.946,8.317
	c-0.135,0.841-3.675,11.896-2.976,11.501c3.236-1.831,24.61-15.942,21.824-21.027C324.872,196.877,309.383,187.647,304.746,185.875z
	"/>
<path fill="#EB6C12" d="M228.305,129.081c3.263,0,5.499,3.109,7.674,0.972s5.609-16.897,31.729-13.778
	c29.097,3.475,39.679,29.656,39.896,34c0.37,7.403-24.501,17.233-41.44,16.894c-10.857-0.217-20.041-8.266-25.663-15.709
	c-7.818-10.351-9.624-10.349-12.201-10.349c-2.577,0-4.389,0.03-12.143,10.349c-5.603,7.457-14.806,15.492-25.663,15.709
	c-16.939,0.339-41.81-9.491-41.44-16.894c0.217-4.343,10.8-30.525,39.896-34c26.12-3.119,29.554,11.642,31.729,13.778
	S225.042,129.081,228.305,129.081z M245.316,149.958c4.635,6.138,12.209,12.775,21.162,12.954
	c13.968,0.279,34.478-7.827,34.172-13.931c-0.179-3.582-8.905-25.171-32.899-28.036c-21.54-2.572-24.371,9.6-26.165,11.361
	C239.792,134.067,238.869,141.422,245.316,149.958z M214.937,132.306c-1.793-1.762-4.625-13.934-26.165-11.361
	c-23.994,2.865-32.72,24.455-32.899,28.036c-0.305,6.104,20.204,14.21,34.172,13.931c8.953-0.179,16.526-6.816,21.162-12.954
	C217.654,141.422,216.73,134.067,214.937,132.306z"/>
<path fill="#FFFFFF" d="M246.162,144.292c3.361-6.083,9.847-10.204,17.295-10.204c10.902,0,19.741,8.827,19.741,19.715
	c0,4.522-7.204,6.604-7.204,4.575c0-8.375-6.79-15.165-15.166-15.165c-4.949,0-9.344,2.37-12.112,6.038
	C247.67,150.638,245.309,145.837,246.162,144.292z"/>
<path d="M297.331,61.076c6.036,3.584,8.489,34.079,6.225,34.268c-1.375,0.114-4.009-3.6-8.262-7.966
	c-5-5.133-9.476-9.637-18.251-12.686c-5.264-1.829-11.34-1.858-11.403-3.304C265.577,69.942,291.294,57.493,297.331,61.076z"/>
<path d="M160.064,61.076c-6.036,3.584-8.489,34.079-6.225,34.268c1.375,0.114,4.009-3.6,8.262-7.966
	c5-5.133,9.475-9.637,18.251-12.686c5.264-1.829,11.339-1.858,11.402-3.304S166.101,57.493,160.064,61.076z"/>
<path fill="#F4B2C0" d="M236.094,197.801c0,0-3.566,3.984-7.966,3.984c-4.399,0-7.966-3.984-7.966-3.984H236.094z"/>
<path fill="#FFFFFF" d="M210.061,144.292c-3.361-6.083-9.846-10.204-17.295-10.204c-10.902,0-19.74,8.827-19.74,19.715
	c0,4.522,7.204,6.604,7.204,4.575c0-8.375,6.79-15.165,15.165-15.165c4.949,0,9.344,2.37,12.112,6.038
	C208.553,150.638,210.914,145.837,210.061,144.292z"/>
<path d="M156.465,188.697c-1.135,4.099-4.858,11.205-4.681,12.85s5.822,7.136,5.793,8.523c-0.029,1.388-6.195,9.021-6.214,10.246
	s9.852,11.788,9.083,11.527c-2.061-0.697-28.701-8.951-26.849-16.167C134.978,210.291,153.587,189.585,156.465,188.697z"/>
</svg>
