<?xml version="1.0" encoding="UTF-8"?>
<svg width="61px" height="64px" viewBox="0 0 61 64" version="1.1" xmlns="http://www.w3.org/2000/svg" xmlns:xlink="http://www.w3.org/1999/xlink">
    <!-- Generator: Sketch 54.1 (76490) - https://sketchapp.com -->
    <title>Group</title>
    <desc>Created with Sketch.</desc>
    <g id="tshirt-vorn" stroke="none" stroke-width="1" fill="none" fill-rule="evenodd">
        <g id="Group" transform="translate(0.871166, 0.829377)" fill-rule="nonzero">
            <path d="M57.5148336,32.6396226 C57.3418336,33.2566226 57.1598336,33.8146226 56.9668336,34.3246226 C56.7758336,34.8336226 56.5738336,35.2936226 56.3638336,35.7116226 C55.9438336,36.5466226 55.4888336,37.2156226 54.9978336,37.7506226 C54.0138336,38.8196226 52.8768336,39.3416226 51.4798336,39.4296226 C49.7818336,39.5666226 47.6598336,38.9396226 45.0818336,38.6366226 C42.8388336,38.3246226 40.0078336,38.4626226 37.4828336,40.1466226 C34.9328336,41.7416226 32.6878336,44.8816226 31.0388336,48.5276226 C28.6608336,54.7796226 38.7808336,61.1526226 48.0538336,58.0246226 C54.0118336,55.6036226 57.5088336,51.3816226 58.6518336,46.6626226 C58.8128336,46.0586226 58.9418336,45.4536226 59.0388336,44.8506226 C59.1358336,44.2486226 59.2028336,43.6496226 59.2428336,43.0556226 C59.3218336,41.8666226 59.2938336,40.6996226 59.1768336,39.5486226 C58.9398336,37.2416226 58.3618336,35.0136226 57.5148336,32.6396226 L57.5148336,32.6396226 Z" id="Path" fill="#000000"></path>
            <path d="M58.3728336,47.5346226 C58.3268336,48.1616226 58.6788336,45.2876226 57.7978336,43.5436226 C56.9468336,41.5466226 54.8628336,40.6796226 50.6388336,39.4836226 C49.9178336,39.2846226 47.4098336,39.0306226 47.3698336,38.982595 C47.3728336,38.9766226 48.8578336,39.9496226 50.9248336,41.8786226 C52.0418336,42.9206226 53.0558336,44.3006226 53.6998336,45.8556226 C54.3708336,47.4796226 54.4628336,49.2226226 54.0908336,51.3496226 C53.8418336,52.8636226 52.8148336,54.8416226 51.8398336,55.9376226 C53.1408336,55.6016226 57.4058336,51.7176226 58.3728336,47.5346226 L58.3728336,47.5346226 Z" id="Path" fill="#A89D96"></path>
            <path d="M49.4418336,52.5146226 C51.5458336,48.7806226 50.9598336,44.4536226 43.4208336,38.5616226 C42.7168336,38.2796226 40.6878336,38.7546226 40.6888336,38.7956226 C40.6818336,38.7766226 42.4628336,40.0226226 43.3858336,41.5766226 C44.1528336,42.8556226 45.1888336,45.6786226 44.9798336,47.3816226 C44.7718336,49.3146226 43.3958336,52.0186226 42.4678336,53.5266226 C41.7028336,54.7076226 39.5428336,56.6726226 37.5928336,57.8856226 C38.5898336,58.2186226 41.0078336,58.9086226 42.8518336,58.8156226 C42.8528336,58.8166226 46.3518336,58.1316226 49.4418336,52.5146226 Z" id="Path" fill="#A89D96"></path>
            <path d="M23.6238336,28.2156226 C13.2528336,28.2156226 4.84583358,35.9406226 4.84583358,45.4696226 C4.84583358,51.9756226 12.4608336,59.6026226 18.2478336,62.5426226 C20.9368336,63.9086226 22.1318336,53.8596226 23.8238336,53.8596226 C25.5108336,53.8596226 26.7358336,64.1986226 29.6848336,62.4286226 C34.8168336,59.3486226 42.4028336,51.5206226 42.4028336,45.4696226 C42.4028336,35.9416226 33.9958336,28.2156226 23.6238336,28.2156226 Z" id="Path" fill="#B9B2AA"></path>
            <path d="M36.7728336,56.4676226 C35.6278336,56.7106226 33.5188336,57.5926226 33.0698336,57.5166226 C32.6218336,57.4406226 31.2738336,55.9346226 30.8928336,55.9196226 C30.5108336,55.9046226 28.3568336,57.4406226 28.0198336,57.4246226 C27.6828336,57.4086226 25.1108336,55.5666226 25.1688336,55.7826226 C25.3258336,56.3606226 27.1438336,63.2786226 29.2088336,62.7006226 C30.6818336,62.2896226 36.4818336,57.2426226 36.7728336,56.4676226 Z" id="Path" fill="#000000"></path>
            <path d="M10.5598336,56.6956226 C11.7048336,56.9396226 13.8138336,57.8056226 14.2638336,57.7296226 C14.7128336,57.6536226 16.1268336,56.0116226 16.5078336,55.9966226 C16.8898336,55.9816226 19.0888336,57.5476226 19.4258336,57.5326226 C19.7618336,57.5176226 22.5818336,55.4926226 22.5228336,55.7076226 C22.3668336,56.2856226 20.5258336,63.2796226 18.4608336,62.7026226 C16.9878336,62.2896226 10.8518336,57.4716226 10.5598336,56.6956226 Z" id="Path" fill="#000000"></path>
            <ellipse id="Oval" fill="#EB6C0D" cx="23.5068336" cy="44.5286226" rx="1.799" ry="2.198"></ellipse>
            <path d="M32.3438336,39.2466226 C31.4478336,38.8686226 30.2038336,38.8746226 28.6308336,40.1006226 C27.3638336,41.0886226 26.6948336,41.1266226 26.3728336,42.3016226 C26.1748336,43.0236226 26.6068336,43.2886226 26.7488336,43.8996226 C26.8898336,44.5106226 26.3258336,45.8276226 26.7018336,46.4856226 C26.8838336,46.8036226 28.3828336,47.1786226 29.2378336,47.5306226 C30.0988336,47.8856226 31.9148336,48.0656226 32.5308336,48.0366226 C36.0768336,47.8696226 34.1308336,39.9986226 32.3438336,39.2466226 Z" id="Path" fill="#EB6C0D"></path>
            <path d="M14.7558336,39.1876226 C15.6518336,38.8106226 16.8958336,38.8156226 18.4678336,40.0426226 C19.7358336,41.0306226 20.4048336,41.0686226 20.7268336,42.2436226 C20.9248336,42.9656226 20.4918336,43.2306226 20.3508336,43.8416226 C20.2098336,44.4526226 20.7738336,45.7696226 20.3978336,46.4276226 C20.2158336,46.7456226 18.7168336,47.1206226 17.8618336,47.4726226 C16.9998336,47.8276226 15.1848336,48.0076226 14.5678336,47.9786226 C11.0218336,47.8106226 12.9688336,39.9396226 14.7558336,39.1876226 Z" id="Path" fill="#EB6C0D"></path>
            <path d="M45.6718336,23.9616226 C45.6718336,23.9616226 45.9318336,19.5496226 45.8788336,18.4596226 C45.8268336,17.3696226 45.7238336,14.0476226 45.6718336,13.1136226 C45.6198336,12.1786226 45.8268336,7.61162256 45.6198336,6.15762256 C45.4118336,4.70462256 45.0488336,1.27862256 43.5958336,0.344622558 C42.1428336,-0.589377442 38.2488336,0.604622558 36.5878336,1.22662256 C34.9268336,1.84962256 32.5908336,4.02962256 31.5008336,4.13362256 C30.4108336,4.23762256 29.8398336,3.40662256 28.5418336,3.04362256 C25.4258336,2.17062256 24.7538336,2.05862256 23.5678336,2.05862256 C22.3828336,2.05862256 21.7128336,2.17162256 18.5948336,3.04362256 C17.2968336,3.40662256 16.7258336,4.23762256 15.6368336,4.13362256 C14.5468336,4.02962256 12.2108336,1.84962256 10.5498336,1.22662256 C8.88883358,0.603622558 4.99583358,-0.589377442 3.54283358,0.344622558 C2.08883358,1.27962256 1.72583358,4.70462256 1.51883358,6.15762256 C1.31183358,7.61062256 1.51883358,12.1786226 1.46683358,13.1136226 C1.41483358,14.0476226 1.31183358,17.3696226 1.25883358,18.4596226 C1.20683358,19.5496226 1.46683358,23.9616226 1.46683358,23.9616226 L45.6718336,23.9616226 Z" id="Path" fill="#B9B2AA"></path>
            <path d="M42.5748336,1.90562256 C44.2358336,2.89162256 44.9108336,11.2836226 44.2878336,11.3356226 C43.9098336,11.3676226 43.1848336,10.3446226 42.0148336,9.14362256 C40.6388336,7.73062256 39.4078336,6.49162256 36.9928336,5.65262256 C35.5448336,5.14962256 33.8728336,5.14162256 33.8548336,4.74362256 C33.8378336,4.34562256 40.9138336,0.920622558 42.5748336,1.90562256 Z" id="Path" fill="#000000"></path>
            <path d="M4.80283358,1.90562256 C3.14183358,2.89162256 2.46683358,11.2836226 3.08983358,11.3356226 C3.46783358,11.3676226 4.19283358,10.3446226 5.36283358,9.14362256 C6.73883358,7.73062256 7.96983358,6.49162256 10.3848336,5.65262256 C11.8328336,5.14962256 13.5048336,5.14162256 13.5228336,4.74362256 C13.5408336,4.34562256 6.46383358,0.920622558 4.80283358,1.90562256 Z" id="Path" fill="#000000"></path>
            <path d="M35.2818336,35.2506226 C38.2328336,33.9996226 39.5168336,33.7266226 42.3748336,33.6166226 C45.2328336,33.5066226 47.1748336,31.4676226 47.1748336,28.8166226 C47.1748336,28.8166226 47.2848336,21.6336226 45.8018336,18.7216226 C44.3178336,15.8086226 40.4458336,12.6116226 36.5788336,12.7216226 C26.8078336,12.8076226 29.7658336,15.8406226 23.5678336,15.8406226 C17.3708336,15.8406226 20.3878336,12.8076226 10.5978336,12.7216226 C6.73183358,12.6116226 2.85983358,15.8086226 1.37583358,18.7216226 C-0.108166424,21.6346226 0.00183357579,28.8166226 0.00183357579,28.8166226 C0.00183357579,31.4676226 1.94383358,33.5066226 4.80183358,33.6166226 C7.65983358,33.7266226 8.94383358,33.9996226 11.8948336,35.2506226 C18.1558336,37.9056226 18.6118336,41.3646226 23.5538336,41.3646226 C28.4948336,41.3646226 29.0208336,37.9056226 35.2818336,35.2506226 Z" id="Path" fill="#E2DFD9"></path>
            <path d="M23.6238336,38.7726226 C25.1448336,39.0006226 27.5428336,36.3656226 27.2678336,34.9256226 C27.0278336,33.6686226 24.8158336,33.5636226 24.7938336,32.2116226 C24.7518336,29.4896226 24.6428336,28.7706226 25.0228336,29.1436226 C26.5018336,30.5956226 30.6158336,32.3386226 33.5058336,32.7986226 C35.1068336,33.0536226 39.1018336,32.8146226 39.8438336,32.5246226 C40.5848336,32.2346226 41.0878336,31.9526226 42.5938336,31.5606226 C44.5208336,31.0596226 45.1538336,32.5436226 44.8068336,29.4126226 C44.4788336,26.4516226 43.5178336,22.7396226 39.9538336,20.1476226 C38.4698336,19.0676226 34.6898336,17.6506226 32.1928336,17.7856226 C29.6968336,17.9206226 26.6398336,21.1176226 26.0188336,20.9276226 C25.3988336,20.7386226 24.9038336,15.0966226 24.6058336,13.7166226 C24.2258336,11.9606226 24.1578336,10.4966226 23.5868336,10.4966226 C23.0158336,10.4966226 22.9488336,11.9546226 22.5678336,13.7166226 C22.2698336,15.0976226 21.7748336,20.7386226 21.1538336,20.9276226 C20.5328336,21.1176226 17.4768336,17.9216226 14.9798336,17.7856226 C12.4828336,17.6506226 8.70483358,19.0676226 7.21983358,20.1476226 C3.65683358,22.7386226 2.69583358,26.4506226 2.36683358,29.4126226 C2.01983358,32.5436226 2.65283358,31.0586226 4.58083358,31.5606226 C6.08583358,31.9526226 6.58883358,32.2346226 7.33083358,32.5246226 C8.07283358,32.8146226 12.0668336,33.0536226 13.6678336,32.7986226 C16.5588336,32.3386226 20.6728336,30.5956226 22.1508336,29.1436226 C22.5308336,28.7696226 22.4218336,29.4896226 22.3798336,32.2116226 C22.3588336,33.5646226 20.1468336,33.6686226 19.9068336,34.9256226 C19.6318336,36.3646226 22.0298336,39.0006226 23.5508336,38.7726226" id="Path" fill="#000000"></path>
            <path d="M23.5808336,20.6196226 C24.4778336,20.6196226 25.0938336,21.4746226 25.6918336,20.8866226 C26.2908336,20.2986226 27.2348336,16.2376226 34.4228336,17.0956226 C42.4298336,18.0516226 45.3418336,25.2566226 45.4018336,26.4506226 C45.5038336,28.4876226 38.6598336,31.1926226 33.9988336,31.0996226 C31.0108336,31.0396226 28.4838336,28.8256226 26.9358336,26.7766226 C24.7858336,23.9286226 24.2888336,23.9286226 23.5798336,23.9286226 C22.8708336,23.9286226 22.3718336,23.9366226 20.2378336,26.7766226 C18.6958336,28.8286226 16.1638336,31.0396226 13.1758336,31.0996226 C8.51383358,31.1926226 1.67083358,28.4876226 1.77283358,26.4506226 C1.83283358,25.2556226 4.74483358,18.0516226 12.7508336,17.0956226 C19.9388336,16.2376226 20.8838336,20.2986226 21.4818336,20.8866226 C22.0808336,21.4746226 22.6838336,20.6196226 23.5808336,20.6196226 Z M28.2618336,26.3636226 C29.5368336,28.0526226 31.6218336,29.8796226 34.0848336,29.9276226 C37.9288336,30.0046226 43.5718336,27.7746226 43.4878336,26.0946226 C43.4388336,25.1096226 41.0378336,19.1686226 34.4348336,18.3796226 C28.5068336,17.6716226 27.7278336,21.0216226 27.2348336,21.5056226 C26.7418336,21.9896226 26.4878336,24.0156226 28.2618336,26.3636226 Z M19.9018336,21.5066226 C19.4078336,21.0216226 18.6288336,17.6726226 12.7018336,18.3806226 C6.09883358,19.1696226 3.69783358,25.1096226 3.64883358,26.0956226 C3.56483358,27.7756226 9.20883358,30.0066226 13.0518336,29.9286226 C15.5158336,29.8796226 17.5998336,28.0536226 18.8748336,26.3646226 C20.6498336,24.0156226 20.3958336,21.9916226 19.9018336,21.5066226 Z" id="Shape" fill="#EB6C0D"></path>
            <path d="M18.7348336,23.5956226 C18.7348336,25.9006226 16.8658336,27.7686226 14.5618336,27.7686226 C12.2578336,27.7686226 10.3888336,25.8996226 10.3888336,23.5956226 C10.3888336,21.2916226 12.2568336,19.4226226 14.5618336,19.4226226 C16.8668336,19.4226226 18.7348336,21.2916226 18.7348336,23.5956226 Z M14.5288336,20.4616226 C15.2198336,20.4616226 15.9718336,22.6596226 14.7228336,23.5986226 C13.5168336,24.5056226 11.4568336,23.5186226 11.4568336,22.5666226 C11.4568336,24.3546226 11.7268336,26.5016226 14.5288336,26.5016226 C16.2248336,26.5016226 17.5998336,25.2306226 17.5998336,23.5336226 C17.5998336,21.8366226 16.2258336,20.4616226 14.5288336,20.4616226 Z" id="Shape" fill="#FFFFFF"></path>
            <path d="M36.7038336,23.5956226 C36.7038336,25.9006226 34.8348336,27.7686226 32.5308336,27.7686226 C30.2258336,27.7686226 28.3568336,25.8996226 28.3568336,23.5956226 C28.3568336,21.2916226 30.2258336,19.4226226 32.5308336,19.4226226 C34.8348336,19.4226226 36.7038336,21.2916226 36.7038336,23.5956226 Z M32.4978336,20.4616226 C33.1888336,20.4616226 33.9408336,22.6596226 32.6918336,23.5986226 C31.4858336,24.5056226 29.4258336,23.5186226 29.4258336,22.5666226 C29.4258336,24.3546226 29.6948336,26.5016226 32.4968336,26.5016226 C34.1918336,26.5016226 35.5678336,25.2306226 35.5678336,23.5336226 C35.5678336,21.8366226 34.1928336,20.4616226 32.4978336,20.4616226 Z" id="Shape" fill="#FFFFFF"></path>
        </g>
    </g>
</svg>