<?xml version="1.0" encoding="UTF-8"?>
<svg width="159px" height="165px" viewBox="0 0 159 165" version="1.1" xmlns="http://www.w3.org/2000/svg" xmlns:xlink="http://www.w3.org/1999/xlink">
    <!-- Generator: Sketch 54.1 (76490) - https://sketchapp.com -->
    <title>Group</title>
    <desc>Created with Sketch.</desc>
    <g id="tshirt-hinten" stroke="none" stroke-width="1" fill="none" fill-rule="evenodd">
        <g id="Group" transform="translate(0.882000, 0.010304)" fill-rule="nonzero">
            <path d="M-7.10542736e-15,109.247696 C1.177,110.344696 2.299,111.298696 3.377,112.137696 C4.456,112.973696 5.488,113.695696 6.485,114.314696 C8.478,115.550696 10.326,116.387696 12.08,116.887696 C15.589,117.884696 18.704,117.512696 21.808,115.869696 C25.621,113.938696 29.342,109.813696 34.461,105.789696 C38.853,102.181696 45.091,98.7696955 52.701,99.0646955 C60.248,99.1356955 69.167,102.914696 77.473,108.553696 C90.753,118.821696 77.447,145.719696 53.504,151.172696 C37.58,153.799696 24.566,149.345696 15.936,140.745696 C14.799,139.662696 13.733,138.535696 12.736,137.374696 C11.74,136.212696 10.812,135.019696 9.948,133.800696 C8.22,131.360696 6.753,128.823696 5.495,126.208696 C2.98,120.965696 1.295,115.440696 -7.10542736e-15,109.247696 L-7.10542736e-15,109.247696 Z" id="Path" fill="#000000"></path>
            <path d="M17.68,142.249696 C18.599,143.533696 14.081,137.843696 13.681,132.957696 C12.886,127.569696 16.209,122.982696 23.684,114.887696 C24.965,113.517696 29.998,109.690696 30.022,109.533696 C30.007,109.523696 28.105,113.553696 26.209,120.389696 C25.183,124.084696 24.822,128.363696 25.48,132.536696 C26.171,136.890696 28.259,140.739696 31.842,144.805696 C34.358,147.719696 39.15,150.606696 42.671,151.675696 C39.446,152.659696 25.229,149.935696 17.68,142.249696 L17.68,142.249696 Z" id="Path" fill="#A89D96"></path>
            <path d="M43.315,141.205696 C33.919,135.971696 29.508,125.943696 37.919,103.457696 C39.058,101.931696 44.022,100.288696 44.073,100.379696 C44.064,100.329696 41.882,105.328696 41.945,109.863696 C41.98,113.605696 43.462,121.003696 46.139,124.375696 C49.118,128.239696 55.606,132.221696 59.567,134.235696 C62.752,135.759696 69.949,137.135696 75.712,137.177696 C74.016,139.197696 69.745,143.841696 65.676,146.057696 C65.675,146.057696 57.291,149.177696 43.315,141.205696 Z" id="Path" fill="#A89D96"></path>
            <path d="M65.618,83.9716955 C41.953,93.1386955 42.176,143.698696 60.964,160.823696 C76.145,157.588696 91.379,148.924696 91.379,148.924696 C91.379,148.924696 114.885,160.404696 120.514,156.868696 C143.424,119.942696 124.66,78.6036955 65.618,83.9716955 Z" id="Path" fill="#8C8179"></path>
            <path d="M42.092,60.1276955 C42.092,60.1276955 41.441,49.0566955 41.571,46.3216955 C41.701,43.5866955 41.962,35.2506955 42.092,32.9066955 C42.222,30.5616955 41.701,19.0996955 42.222,15.4526955 C42.744,11.8066955 43.656,3.20969553 47.303,0.86469553 C50.95,-1.47930447 60.72,1.51569553 64.887,3.07969553 C69.055,4.64269553 74.916,10.1126955 77.652,10.3736955 C80.388,10.6336955 81.82,8.54969553 85.076,7.63769553 C92.898,5.44769553 94.582,5.16569553 97.556,5.16569553 C100.53,5.16569553 102.214,5.44769553 110.035,7.63769553 C113.291,8.54969553 114.724,10.6336955 117.459,10.3736955 C120.194,10.1126955 126.056,4.64269553 130.224,3.07969553 C134.392,1.51669553 144.161,-1.47930447 147.808,0.86469553 C151.455,3.20969553 152.367,11.8056955 152.888,15.4526955 C153.409,19.0996955 152.888,30.5606955 153.018,32.9066955 C153.148,35.2506955 153.409,43.5866955 153.539,46.3216955 C153.669,49.0566955 153.018,60.1276955 153.018,60.1276955 L42.092,60.1276955 Z" id="Path" fill="#B9B2AA"></path>
            <path d="M49.862,4.78369553 C45.695,7.25869553 44.001,28.3156955 45.564,28.4456955 C46.513,28.5246955 48.332,25.9596955 51.269,22.9446955 C54.721,19.4006955 57.812,16.2906955 63.871,14.1856955 C67.506,12.9226955 71.702,12.9026955 71.745,11.9036955 C71.788,10.9066955 54.031,2.30969553 49.862,4.78369553 Z" id="Path" fill="#000000"></path>
            <path d="M144.646,4.78369553 C148.813,7.25869553 150.507,28.3156955 148.944,28.4456955 C147.995,28.5246955 146.175,25.9596955 143.238,22.9446955 C139.786,19.4006955 136.696,16.2906955 130.636,14.1856955 C127.001,12.9226955 122.806,12.9026955 122.762,11.9036955 C122.72,10.9066955 140.477,2.30969553 144.646,4.78369553 Z" id="Path" fill="#000000"></path>
            <path d="M97.415,70.8036955 C71.391,70.8036955 50.293,90.1876955 50.293,114.100696 C50.293,129.287696 69.33,155.889696 82.206,163.618696 C89.605,168.058696 112.295,131.608696 112.295,131.608696 C112.295,131.608696 157.717,124.611696 157.66,117.244696 C143.033,76.5246955 90.101,70.6146955 97.415,70.8036955 Z" id="Path" fill="#B9B2AA"></path>
            <path d="M66.464,148.656696 C69.03,149.266696 75.27,152.042696 76.276,151.851696 C77.283,151.661696 82.513,148.558696 83.369,148.519696 C84.225,148.481696 88.653,152.897696 89.409,152.859696 C90.163,152.821696 99.398,149.210696 99.266,149.751696 C98.914,151.201696 87.486,165.394696 82.855,163.943696 C79.552,162.910696 67.118,150.602696 66.464,148.656696 Z" id="Path" fill="#000000"></path>
            <path d="M144.274,95.8686955 C144.616,98.7856955 146.408,104.027696 146.114,105.130696 C145.82,106.234696 141.389,109.387696 141.262,110.337696 C141.136,111.287696 144.539,117.146696 144.423,117.983696 C144.307,118.820696 138.709,126.146696 139.261,126.049696 C140.741,125.791696 158.067,121.891696 157.563,116.770696 C157.188,112.950696 146.143,96.7786955 144.274,95.8686955 Z" id="Path" fill="#000000"></path>
            <ellipse id="Oval" fill="#EB6C12" cx="97.712" cy="111.736696" rx="4.514" ry="5.517"></ellipse>
            <path d="M75.537,98.4826955 C77.787,97.5346955 80.905,97.5486955 84.852,100.626696 C88.032,103.106696 89.71,103.203696 90.519,106.149696 C91.016,107.961696 89.929,108.626696 89.575,110.160696 C89.221,111.694696 90.637,114.997696 89.693,116.649696 C89.237,117.446696 85.474,118.389696 83.329,119.272696 C81.167,120.163696 76.612,120.614696 75.064,120.542696 C66.167,120.120696 71.053,100.369696 75.537,98.4826955 Z" id="Path" fill="#EB6C12"></path>
            <path d="M119.671,98.3356955 C117.421,97.3876955 114.302,97.4016955 110.356,100.479696 C107.176,102.959696 105.497,103.056696 104.689,106.002696 C104.192,107.814696 105.279,108.479696 105.633,110.013696 C105.987,111.546696 104.571,114.850696 105.515,116.502696 C105.972,117.301696 109.734,118.242696 111.878,119.126696 C114.041,120.017696 118.596,120.468696 120.144,120.395696 C129.039,119.973696 124.154,100.222696 119.671,98.3356955 Z" id="Path" fill="#EB6C12"></path>
            <path d="M68.164,88.4546955 C60.758,85.3146955 57.536,84.6296955 50.365,84.3536955 C43.194,84.0776955 38.32,78.9606955 38.32,72.3086955 C38.32,72.3086955 38.045,54.2846955 41.768,46.9756955 C45.491,39.6676955 55.205,31.6446955 64.908,31.9196955 C89.428,32.1346955 82.004,39.7456955 97.555,39.7456955 C113.106,39.7456955 105.536,32.1356955 130.101,31.9196955 C139.804,31.6446955 149.519,39.6676955 153.243,46.9756955 C156.966,54.2846955 156.691,72.3086955 156.691,72.3086955 C156.691,78.9606955 151.816,84.0776955 144.647,84.3536955 C137.476,84.6296955 134.253,85.3146955 126.848,88.4546955 C111.137,95.1176955 109.992,103.797696 97.594,103.797696 C85.194,103.797696 83.875,95.1176955 68.164,88.4546955 Z" id="Path" fill="#E2DFD9"></path>
            <path d="M97.417,97.2936955 C93.599,97.8666955 87.584,91.2536955 88.273,87.6426955 C88.876,84.4866955 94.427,84.2256955 94.479,80.8316955 C94.585,73.9996955 94.86,72.1966955 93.906,73.1336955 C90.198,76.7766955 79.873,81.1506955 72.618,82.3046955 C68.602,82.9446955 58.576,82.3456955 56.716,81.6176955 C54.856,80.8896955 53.594,80.1816955 49.816,79.1976955 C44.98,77.9386955 43.392,81.6646955 44.261,73.8076955 C45.084,66.3766955 47.497,57.0626955 56.438,50.5596955 C60.164,47.8506955 69.646,44.2946955 75.911,44.6336955 C82.176,44.9726955 89.845,52.9926955 91.403,52.5166955 C92.962,52.0406955 94.203,37.8866955 94.951,34.4216955 C95.905,30.0126955 96.075,26.3416955 97.506,26.3416955 C98.937,26.3416955 99.106,30.0016955 100.061,34.4216955 C100.81,37.8866955 102.052,52.0406955 103.609,52.5166955 C105.166,52.9926955 112.836,44.9726955 119.101,44.6336955 C125.366,44.2946955 134.849,47.8506955 138.574,50.5596955 C147.515,57.0626955 149.928,66.3766955 150.75,73.8076955 C151.62,81.6636955 150.032,77.9386955 145.196,79.1976955 C141.417,80.1816955 140.156,80.8896955 138.296,81.6176955 C136.436,82.3456955 126.411,82.9446955 122.394,82.3046955 C115.14,81.1506955 104.815,76.7766955 101.106,73.1336955 C100.152,72.1966955 100.428,73.9996955 100.533,80.8316955 C100.586,84.2256955 106.137,84.4866955 106.74,87.6426955 C107.428,91.2536955 101.414,97.8666955 97.596,97.2936955" id="Path" fill="#000000"></path>
            <path d="M92.147,99.1926955 C92.147,99.1926955 94.61,101.943696 97.648,101.943696 C100.686,101.943696 103.148,99.1926955 103.148,99.1926955 L92.147,99.1926955 Z" id="Path" fill="#F4B2C0"></path>
            <path d="M102.79,52.4126955 C104.292,50.9366955 106.664,40.7456955 124.699,42.8986955 C144.79,45.2976955 152.097,63.3766955 152.248,66.3756955 C152.503,71.4866955 135.33,78.2746955 123.633,78.0406955 C116.136,77.8906955 109.782,72.3426955 105.913,67.1936955 C100.559,60.0686955 99.308,60.0476955 97.528,60.0476955 C95.749,60.0476955 94.502,60.0466955 89.103,67.1936955 C85.222,72.3326955 78.881,77.8906955 71.384,78.0406955 C59.687,78.2746955 42.513,71.4866955 42.769,66.3756955 C42.919,63.3766955 50.226,45.2976955 70.317,42.8986955 C88.354,40.7456955 90.725,50.9376955 92.227,52.4126955 C93.729,53.8876955 95.272,51.7416955 97.525,51.7416955 C99.778,51.7406955 101.288,53.8876955 102.79,52.4126955 Z M88.355,53.9686955 C87.116,52.7516955 85.161,44.3476955 70.288,46.1236955 C53.721,48.1006955 47.695,63.0096955 47.57,65.4826955 C47.36,69.6976955 61.522,75.2956955 71.167,75.1026955 C77.348,74.9786955 82.579,70.3956955 85.78,66.1576955 C90.23,60.2626955 89.593,55.1846955 88.355,53.9686955 Z M109.331,66.1566955 C112.532,70.3946955 117.762,74.9776955 123.944,75.1016955 C133.59,75.2946955 147.751,69.6976955 147.54,65.4816955 C147.416,63.0086955 141.391,48.1006955 124.823,46.1226955 C109.95,44.3466955 107.995,52.7506955 106.757,53.9676955 C105.517,55.1846955 104.88,60.2626955 109.331,66.1566955 Z" id="Shape" fill="#EB6C12"></path>
            <path d="M85.195,62.2446955 C82.874,58.0436955 78.396,55.1986955 73.253,55.1986955 C65.724,55.1986955 59.621,61.2936955 59.621,68.8116955 C59.621,71.9346955 64.596,73.3716955 64.596,71.9706955 C64.596,66.1876955 69.284,61.4986955 75.067,61.4986955 C78.484,61.4986955 81.519,63.1356955 83.431,65.6676955 C84.154,66.6266955 85.784,63.3116955 85.195,62.2446955 Z" id="Path" fill="#FFFFFF"></path>
            <path d="M110.123,62.2446955 C112.443,58.0436955 116.922,55.1986955 122.065,55.1986955 C129.593,55.1986955 135.695,61.2936955 135.695,68.8116955 C135.695,71.9346955 130.721,73.3716955 130.721,71.9706955 C130.721,66.1876955 126.033,61.4986955 120.25,61.4986955 C116.833,61.4986955 113.798,63.1356955 111.886,65.6676955 C111.164,66.6266955 109.534,63.3116955 110.123,62.2446955 Z" id="Path" fill="#FFFFFF"></path>
        </g>
    </g>
</svg>