<?xml version="1.0" encoding="utf-8"?>
<!-- Generator: Adobe Illustrator 13.0.0, SVG Export Plug-In . SVG Version: 6.00 Build 14948)  -->
<!DOCTYPE svg PUBLIC "-//W3C//DTD SVG 1.1//EN" "http://www.w3.org/Graphics/SVG/1.1/DTD/svg11.dtd">
<svg version="1.1" id="Ebene_1" xmlns="http://www.w3.org/2000/svg" xmlns:xlink="http://www.w3.org/1999/xlink" x="0px" y="0px"
	 width="454.08px" height="339.84px" viewBox="0 0 454.08 339.84" enable-background="new 0 0 454.08 339.84" xml:space="preserve">
<path d="M351.619,172.762c-0.624,2.244-1.289,4.272-1.986,6.122c-0.699,1.85-1.429,3.521-2.192,5.039
	c-1.526,3.034-3.177,5.466-4.964,7.409c-3.58,3.884-7.709,5.782-12.784,6.1c-6.169,0.499-13.884-1.781-23.252-2.882
	c-8.153-1.134-18.438-0.631-27.614,5.487c-9.267,5.796-17.426,17.208-23.421,30.456c-8.637,22.723,28.138,45.882,61.834,34.513
	c21.653-8.798,34.359-24.141,38.514-41.29c0.585-2.196,1.05-4.395,1.403-6.583s0.596-4.365,0.741-6.523
	c0.289-4.32,0.184-8.563-0.24-12.744C356.8,189.487,354.703,181.39,351.619,172.762L351.619,172.762z"/>
<path fill="#B9B2AA" d="M228.463,156.687c-37.689,0-68.243,28.073-68.243,62.703c0,23.643,27.672,51.36,48.704,62.044
	c9.773,4.964,14.116-31.553,20.265-31.553c6.13,0,10.584,37.572,21.299,31.142c18.648-11.192,46.218-39.639,46.218-61.632
	C296.707,184.76,266.153,156.687,228.463,156.687z"/>
<ellipse fill="#EB6C12" cx="228.036" cy="215.967" rx="6.537" ry="7.99"/>
<path fill="#EB6C12" d="M260.149,196.771c-3.258-1.372-7.775-1.352-13.491,3.105c-4.605,3.592-7.037,3.731-8.208,7.999
	c-0.719,2.624,0.854,3.588,1.367,5.809c0.512,2.221-1.538,7.004-0.171,9.396c0.661,1.156,6.11,2.521,9.216,3.799
	c3.132,1.29,9.729,1.944,11.97,1.838C273.718,228.109,266.642,199.505,260.149,196.771z"/>
<path fill="#EB6C12" d="M196.234,196.559c3.258-1.372,7.775-1.352,13.491,3.105c4.605,3.592,7.037,3.731,8.207,7.999
	c0.72,2.624-0.854,3.588-1.367,5.809c-0.512,2.221,1.538,7.004,0.171,9.396c-0.661,1.156-6.11,2.521-9.216,3.799
	c-3.132,1.29-9.729,1.944-11.97,1.838C182.666,227.896,189.741,199.292,196.234,196.559z"/>
<path d="M276.245,259.355c-4.16,0.884-11.827,4.089-13.458,3.813c-1.631-0.276-6.525-5.747-7.912-5.802s-9.217,5.526-10.44,5.47
	c-1.223-0.055-10.572-6.751-10.358-5.967c0.571,2.1,7.178,27.241,14.682,25.141C254.111,280.512,275.185,262.173,276.245,259.355z"
	/>
<path d="M180.987,260.184c4.16,0.884,11.827,4.034,13.458,3.758s6.77-6.244,8.157-6.299c1.386-0.055,9.38,5.636,10.604,5.581
	c1.223-0.055,11.469-7.414,11.256-6.63c-0.571,2.1-7.259,27.517-14.763,25.417C204.345,280.512,182.047,263.002,180.987,260.184z"/>
<path fill="#A89D96" d="M354.739,226.893c-0.164,2.28,1.113-8.164-2.088-14.502c-3.093-7.257-10.664-10.408-26.02-14.753
	c-2.618-0.724-11.729-1.644-11.876-1.82c0.01-0.023,5.407,3.515,12.918,10.526c4.061,3.787,7.742,8.801,10.085,14.452
	c2.439,5.9,2.771,12.234,1.42,19.965c-0.904,5.502-4.64,12.691-8.18,16.675C335.728,256.209,351.227,242.094,354.739,226.893
	L354.739,226.893z"/>
<path fill="#A89D96" d="M322.287,244.988c7.647-13.57,5.513-29.292-21.878-50.704c-2.561-1.023-9.935,0.702-9.929,0.853
	c-0.027-0.068,6.449,4.456,9.8,10.105c2.787,4.647,6.551,14.905,5.793,21.095c-0.756,7.026-5.759,16.851-9.128,22.332
	c-2.78,4.291-10.629,11.432-17.715,15.842c3.622,1.212,12.409,3.719,19.11,3.38C298.34,267.891,311.054,265.402,322.287,244.988z"/>
<path fill="#B9B2AA" d="M300.358,128.598c0,0-1.711-15.97-2.549-19.846c-0.838-3.875-3.199-15.721-3.944-19.039
	c-0.746-3.318-2.736-19.814-4.35-24.899s-4.967-17.147-10.736-19.626c-5.769-2.479-19.009,4.131-24.59,7.358
	S241.54,64.986,237.694,66.01c-3.845,1.025-6.389-1.61-11.258-2.136c-11.695-1.262-14.168-1.264-18.416-0.555
	s-6.586,1.515-17.236,6.509c-4.434,2.079-5.984,5.398-9.953,5.678s-13.647-6.135-19.974-7.374s-20.996-3.187-25.646,1.032
	c-4.65,4.219-3.902,16.716-3.776,22.049c0.126,5.333,3.604,21.582,3.978,24.962c0.374,3.38,1.99,15.349,2.457,19.287
	c0.466,3.938,4.038,19.597,4.038,19.597L300.358,128.598z"/>
<path d="M276.055,51.397c6.544,2.541,13.986,32.214,11.785,32.773c-1.337,0.339-4.547-2.891-9.461-6.496
	c-5.777-4.239-10.933-7.944-20.092-9.506c-5.493-0.937-11.491,0.036-11.791-1.38C246.196,65.373,269.511,48.856,276.055,51.397z"/>
<path d="M140.664,74.008c-5.363,4.529-2.759,35.011-0.495,34.824c1.375-0.113,3.361-4.211,6.837-9.218
	c4.086-5.886,7.758-11.066,15.912-15.519c4.891-2.671,10.879-3.701,10.703-5.137C173.445,77.522,146.028,69.479,140.664,74.008z"/>
<path fill="#E2DFD9" d="M269.875,175.28c9.828-6.252,14.269-7.999,24.445-10.104s15.918-10.576,14.332-20.079
	c0,0-3.906-25.811-10.968-35.363c-7.062-9.552-22.853-18.695-36.646-15.986c-34.974,6.157-22.554,15.257-44.768,18.966
	c-22.213,3.71-13.216-8.966-48.357-3.414c-13.925,1.921-25.89,15.699-29.464,27.027c-3.575,11.328,1.119,37.008,1.119,37.008
	c1.587,9.502,9.77,15.648,20.079,14.332c10.308-1.316,15.075-1.107,26.401,1.612c24.033,5.769,27.738,17.895,45.449,14.938
	C249.207,201.26,249.021,188.546,269.875,175.28z"/>
<path d="M230.195,194.885c5.59-0.093,12.605-10.974,10.759-15.968c-1.613-4.364-9.606-3.414-10.49-8.249
	c-1.78-9.733-2.604-12.244-1.018-11.133c6.167,4.32,21.958,8.104,32.596,8.023c5.891-0.045,20.067-3.292,22.551-4.775
	c2.484-1.484,4.117-2.796,9.279-5.103c6.608-2.952,9.765,1.991,6.648-9.024c-2.948-10.419-8.616-23.147-22.939-30.303
	c-5.968-2.981-20.361-5.798-29.23-3.82c-8.868,1.979-17.91,15.265-20.249,14.957s-7.489-20.231-9.386-25.002
	c-2.413-6.069-3.533-11.273-5.577-10.932c-2.044,0.341-1.412,5.609-1.722,12.151c-0.244,5.128,1.36,25.643-0.751,26.695
	c-2.112,1.052-14.98-8.576-24.01-7.565c-9.03,1.011-21.727,8.353-26.402,13.111c-11.221,11.421-12.445,25.301-11.848,36.113
	c0.632,11.43,2.011,5.729,9.22,6.374c5.632,0.504,7.603,1.214,10.434,1.811c2.831,0.596,17.293-0.94,22.878-2.812
	c10.087-3.38,23.792-12.09,28.22-18.18c1.139-1.566,1.175,1.076,2.655,10.86c0.735,4.86-7.133,6.558-7.241,11.21
	c-0.123,5.323,10.047,13.334,15.364,11.605"/>
<path fill="#EB6C12" d="M219.174,129.842c3.218-0.538,5.936,2.161,7.729-0.305s2.749-17.59,29.026-18.816
	c29.271-1.366,44.022,22.715,44.952,26.963c1.584,7.24-21.328,21.033-38.091,23.489c-10.745,1.574-21.129-4.852-27.9-11.267
	c-9.416-8.922-11.197-8.622-13.739-8.197c-2.542,0.424-4.324,0.752-10.272,12.208c-4.298,8.278-12.051,17.719-22.724,19.722
	c-16.652,3.125-42.803-2.475-43.657-9.837c-0.501-4.319,5.624-31.887,33.75-40.107c25.25-7.379,31.068,6.614,33.565,8.363
	S215.956,130.38,219.174,129.842z M239.392,147.632c5.583,5.29,14.147,10.589,23.007,9.291c13.824-2.025,32.717-13.399,31.411-19.37
	c-0.767-3.503-12.93-23.36-37.068-22.234c-21.669,1.011-22.457,13.483-23.936,15.516S231.627,140.275,239.392,147.632z
	 M206.52,135.226c-2.06-1.442-6.857-12.981-27.679-6.896c-23.194,6.778-28.245,29.511-27.831,33.073
	c0.705,6.071,22.269,10.688,36,8.112c8.801-1.651,15.178-9.445,18.739-16.263C210.702,143.77,208.58,136.668,206.52,135.226z"/>
<path fill="#FFFFFF" d="M281.083,139.136c-0.07,6.95-12.355,13.97-19.799,14.25c-10.895,0.41-22.759-13.606-19.441-23.977
	c1.378-4.308,8.874-4.094,8.255-2.162c-2.552,7.977,4.327,18.783,12.696,18.468c4.945-0.187,12.991-5.188,13.686-9.73
	C276.742,134.268,281.1,137.372,281.083,139.136z M163.215,159.176c2.442,6.507,16.388,8.901,23.479,6.619
	c10.377-3.341,16.733-20.57,10.068-29.18c-2.769-3.576-9.739-0.812-8.497,0.792c5.127,6.623,2.359,19.13-5.614,21.696
	c-4.71,1.516-13.982-0.432-16.188-4.463C165.629,153.117,162.595,157.524,163.215,159.176z M183.222,140.696
	c0,1.602,1.211,2.9,2.705,2.9s2.705-1.298,2.705-2.9c0-1.601-1.211-2.899-2.705-2.899S183.222,139.095,183.222,140.696z
	 M250.901,129.417c0,1.602,1.211,2.899,2.705,2.899c1.494,0,2.705-1.298,2.705-2.899s-1.211-2.9-2.705-2.9
	C252.113,126.517,250.901,127.815,250.901,129.417z"/>
</svg>
