<?xml version="1.0" encoding="utf-8"?>
<!-- Generator: Adobe Illustrator 13.0.0, SVG Export Plug-In . SVG Version: 6.00 Build 14948)  -->
<!DOCTYPE svg PUBLIC "-//W3C//DTD SVG 1.1//EN" "http://www.w3.org/Graphics/SVG/1.1/DTD/svg11.dtd">
<svg version="1.1" id="Ebene_1" xmlns="http://www.w3.org/2000/svg" xmlns:xlink="http://www.w3.org/1999/xlink" x="0px" y="0px"
	 width="454.08px" height="339.84px" viewBox="0 0 454.08 339.84" enable-background="new 0 0 454.08 339.84" xml:space="preserve">
<path fill="#53682A" d="M186.481,98.4c9.681,0.12,17.767,5.67,21.156,11.485c2.722,4.671,2.203,27.147-4.481,37.087
	c-9.095,13.526-21.258,12.807-21.258,12.807l2.983,39.9c0,2.651-2.149,4.8-4.8,4.8l-8.71,0.148c-2.65,0.076-4.86-2.011-4.936-4.66
	l4.426-96.647c-0.076-2.65,0.794-4.825,1.944-4.858C172.804,98.463,179.961,98.319,186.481,98.4z M180.896,146.245
	c0,0,1.97,0.09,4.123,0c9.698-0.404,18.529-26.592,6.027-34.801c-2.407-1.581-4.606-1.871-6.023-1.871c-1.417,0-6.837,0-6.837,0
	L180.896,146.245z"/>
<path fill="#53682A" d="M303.546,184.297c3.859,5.281,8.783,12.905,6.339,15.146c-2.445,2.241-5.248,3.861-9.525,3.861
	c-4.278,0-7.385-8.278-9.944-14.299c0,0-8.345-30.116-9.503-29.834c-2.848,0.693-4.844,0.608-4.844,0.608l2.982,39.9
	c0,2.651-2.148,4.8-4.8,4.8l-8.711,0.148c-2.649,0.076-4.859-2.011-4.936-4.66l4.426-96.647c-0.075-2.65,0.794-4.825,1.944-4.858
	c0,0,7.157-0.144,13.677-0.063c9.681,0.12,17.768,5.67,21.155,11.485c2.722,4.671,2.203,27.147-4.48,37.087
	c-3.259,4.846-7.123,7.969-10.468,9.847C286.045,157.276,303.546,184.297,303.546,184.297z M275.066,146.245c0,0,1.971,0.09,4.123,0
	c9.698-0.404,18.529-26.592,6.026-34.801c-2.407-1.581-4.605-1.871-6.022-1.871c-1.418,0-6.837,0-6.837,0L275.066,146.245z"/>
<path fill="#53682A" d="M394.191,103.813c1.406,0.176,4.276,2.208,4.2,4.858c0,0-22.439,38.28-23.488,50.345
	c-1.86,21.413,1.876,40.952,1.876,40.952c-0.076,2.649-2.286,4.736-4.936,4.66l-8.711-0.148c-2.651,0-4.8-2.148-4.8-4.8
	l2.808-41.656c0,0-5.811-25.517-6.864-30.962c-1.054-5.444-6.991-22.757-6.991-22.757c-0.076-2.65,4.023-3.453,5.253-3.102
	c1.229,0.351,6.371,15.164,8.303,22.54c1.933,7.376,5.486,22.743,6.54,23.796c1.055,1.054,2.184,0.176,3.413-1.054
	s11.774-25.562,15.287-31.182C387.166,113.567,392.786,103.638,394.191,103.813z"/>
<path d="M263.386,118.469c-0.173,0.617-0.355,1.175-0.548,1.685c-0.191,0.509-0.393,0.969-0.603,1.387
	c-0.42,0.835-0.875,1.504-1.366,2.039c-0.984,1.069-2.121,1.591-3.518,1.679c-1.698,0.137-3.82-0.49-6.398-0.793
	c-2.243-0.312-5.074-0.174-7.599,1.51c-2.55,1.595-4.795,4.735-6.444,8.381c-2.378,6.252,7.742,12.625,17.015,9.497
	c5.958-2.421,9.455-6.643,10.598-11.362c0.161-0.604,0.29-1.209,0.387-1.812c0.097-0.602,0.164-1.201,0.204-1.795
	c0.079-1.189,0.051-2.356-0.066-3.507C264.811,123.071,264.233,120.843,263.386,118.469L263.386,118.469z"/>
<path fill="#A89D96" d="M264.244,133.364c-0.046,0.627,0.306-2.247-0.575-3.991c-0.851-1.997-2.935-2.864-7.159-4.06
	c-0.721-0.199-3.229-0.453-3.269-0.501c0.003-0.006,1.488,0.967,3.555,2.896c1.117,1.042,2.131,2.422,2.775,3.977
	c0.671,1.624,0.763,3.367,0.391,5.494c-0.249,1.514-1.276,3.492-2.251,4.588C259.012,141.431,263.277,137.547,264.244,133.364
	L264.244,133.364z"/>
<path fill="#A89D96" d="M255.313,138.344c2.104-3.734,1.518-8.061-6.021-13.953c-0.704-0.282-2.733,0.193-2.732,0.234
	c-0.007-0.019,1.774,1.227,2.697,2.781c0.767,1.279,1.803,4.102,1.594,5.805c-0.208,1.933-1.584,4.637-2.512,6.145
	c-0.765,1.181-2.925,3.146-4.875,4.359c0.997,0.333,3.415,1.023,5.259,0.93C248.724,144.646,252.223,143.961,255.313,138.344z"/>
<path fill="#53682A" d="M252.098,204.629c2.65,0,4.51-1.696,4.161-3.74l-1.219-2.893c-0.313-1.838-5.907-5.23-8.341-5.23
	c0,0-18.51,1.236-28.337,1.986c-1.417,0.109-2.176-10.227-0.742-17.711c0.138-0.721,15.116-0.213,15.116-0.213
	c2.209-0.396,2.836-1.444,2.577-3.266c0,0-0.296-2.816-1.042-2.948c-0.747-0.131-16.021,0.058-16.06-0.635
	c-0.42-7.486,1.777-14.867,2.38-14.877c4.854-0.088,29.359-0.481,30.859-0.833c1.686-0.395,0.689-2.025,0.521-3.091
	c-0.188-1.186-0.589-1.8-2.343-1.8c0,0-32.542-0.728-34.525-0.758h-2.694c-1.15,0.018-2.021,1.165-1.944,2.563l-8.746,50.985
	c0.076,1.398,2.286,2.499,4.936,2.458L252.098,204.629z"/>
<path fill="#53682A" d="M340.187,106.547c-0.096,3.956-0.535,3.583-2.616,6.307c0,0-16.817,11.505-18.581,32.142
	c-2.155,25.198,27.129,44.679,27.129,44.679c1.996,1.871,5.292,4.561,3.421,6.557l-1.383,6.641c-1.871,1.996-5.866,2.432-7.863,0.56
	c0,0-33.25-15.461-33.353-51.189c-0.076-26.722,30.036-48.52,30.036-48.52C340.573,101.251,340.187,106.547,340.187,106.547z"/>
<path fill="#EB6C0D" d="M282.076,208.866c1.022-0.028,2.5-0.074,3.089,0.396c0.091,0.134,0.085,0.388,0.08,0.634
	c-0.195,0.121-0.181,0.182-0.476,0.237c-0.65-0.512-2.624-0.377-3.485-0.158c-2.799,0.71-5.603,1.964-6.733,4.277
	c0.158,0,0.317,0,0.475,0c0.71-0.497,1.848-0.561,2.693-0.871c3.138-1.153,8.665-2.985,9.744,1.426
	c0.439,1.797-1.686,3.146-2.614,3.723c-3.059,1.902-7.745,3.382-12.596,3.407c-0.154-0.245-0.228-0.272-0.237-0.713
	c0.379-0.236,0.903-0.251,1.584-0.238c0.211-0.12,0.565-0.007,0.872-0.079c1.03-0.186,2.06-0.369,3.089-0.555
	c2.554-0.729,4.95-1.477,6.892-2.772c0.688-0.459,2.394-1.493,1.981-2.931c-0.447-1.56-2.39-2.137-4.437-1.584
	c-1.501,0.404-2.961,0.776-4.437,1.267c-1.234,0.41-2.457,1.03-4.039,0.872c-0.122-0.195-0.182-0.181-0.238-0.476
	c-0.277-0.508,1.031-1.903,1.347-2.219c1.214-1.215,2.642-2.217,4.356-2.931c0.595-0.247,1.304-0.388,1.902-0.554
	C281.274,208.917,281.775,209.051,282.076,208.866z"/>
<path fill="#EB6C0D" d="M319.941,212.668c-0.577,1.778-0.872,3.609-1.426,5.308c-0.344,1.054-0.394,2.731-0.951,3.565
	c0.008,0.355,0.05,0.432,0.159,0.634c0.245,0.005,0.499,0.012,0.634-0.079c0.487-0.619,0.449-1.804,0.713-2.614
	c0.702-2.167,1.195-4.569,1.9-6.733c0.306-0.937,0.36-2.535,0.872-3.248c-0.007-0.355-0.05-0.433-0.159-0.634
	c-0.236,0-0.475,0-0.713,0C320.852,210.159,320.316,211.514,319.941,212.668z"/>
<path fill="#EB6C0D" d="M246.105,210.688c-0.777,1.031-1.604,2.129-2.536,3.01c-0.871-1.531-1.742-3.063-2.613-4.594
	c-0.512-0.01-0.611,0.054-0.871,0.237c0.146,0.525,0.535,0.925,0.792,1.347c0.542,0.891,0.884,1.803,1.426,2.693
	c0.161,0.265,0.552,0.644,0.634,0.95c0.121,0.453-0.29,1.174-0.396,1.506c-0.446,1.393-0.567,2.741-1.029,4.119
	c-0.136,0.402-0.582,1.372-0.396,1.742c0.026,0.079,0.053,0.159,0.079,0.238c0.238,0,0.476,0,0.713,0
	c0.382-1.729,0.9-3.514,1.426-5.149c0.204-0.636,0.146-1.21,0.396-1.822c0.238-0.581,0.98-1.019,1.347-1.505
	c0.76-1.01,1.71-1.863,2.456-2.853c0.3-0.396,0.537-0.826,0.95-1.108c-0.085-0.244-0.193-0.286-0.316-0.475
	c-0.196-0.041-0.292-0.073-0.555-0.08C247.247,209.642,246.558,210.088,246.105,210.688z"/>
<path fill="#EB6C0D" d="M330.577,208.866c0.238,0,0.476,0,0.713,0c0.109,0.201,0.152,0.278,0.159,0.634
	c-0.131,0.183-0.188,0.546-0.238,0.792c0.079,0,0.159,0,0.238,0c0.449-0.349,1.142-0.36,1.742-0.555
	c1.699-0.549,4.632-1.529,6.1-0.158c-0.045,2.89-4.005,4.26-6.178,5.149c-0.523,0.214-2.391,0.422-2.615,0.792
	c0.447,0.307,0.705,0.833,1.03,1.268c0.788,1.057,1.734,2.012,2.535,3.09c0.384,0.517,1.118,0.939,1.268,1.663
	c-0.295,0.201-0.286,0.367-0.792,0.396c-0.853-1.466-2.249-2.62-3.249-3.962c-0.417-0.56-0.942-1.598-1.584-1.9
	c-0.554,2.033-1.108,4.066-1.663,6.1c-0.237,0-0.476,0-0.713,0c-0.109-0.202-0.152-0.278-0.158-0.634
	c0.4-0.541,0.405-1.444,0.634-2.14c0.38-1.16,0.812-2.412,1.108-3.643c-0.079,0-0.158,0-0.237,0
	c-0.085,0.059-0.075,0.047-0.237,0.079c-0.162-0.258-0.237-0.32-0.238-0.793c0.026,0,0.053,0,0.079,0c0-0.026,0-0.053,0-0.079
	c0.29-0.053,0.581-0.105,0.872-0.158c0.237-0.978,0.475-1.954,0.712-2.932c-0.445,0.073-0.515,0.226-0.95,0.159
	c-0.062-0.178-0.08-0.431-0.079-0.713c0.412-0.227,0.9-0.426,1.347-0.634C330.313,210.081,330.445,209.474,330.577,208.866z
	 M336.757,209.658c-0.524,0.314-1.379,0.201-1.98,0.396c-1.265,0.409-2.646,0.801-3.803,1.347c-0.29,1.082-0.58,2.165-0.871,3.248
	c0.053,0,0.105,0,0.158,0c0.508-0.342,1.296-0.327,1.901-0.555c1.741-0.656,3.923-1.469,5.148-2.693
	c0.43-0.429,0.969-0.792,1.03-1.584c-0.026,0-0.053,0-0.079,0c0-0.026,0-0.054,0-0.08
	C337.834,209.688,337.291,209.658,336.757,209.658z"/>
<path fill="#EB6C0D" d="M259.65,218.055c-0.227,0.758-0.237,1.555-0.633,2.14c-0.194,0.285-0.557,0.457-0.871,0.634
	c-0.378,0.211-1.082,0.596-1.823,0.396c-0.475-0.129-0.753-0.478-1.108-0.713c-0.222-1.224,0.457-2.676,0.792-3.724
	c0.138-0.431,0.081-0.875,0.316-1.188c-0.048-0.271-0.092-0.245-0.158-0.475c-0.237,0-0.476,0-0.713,0
	c-0.291,1.236-0.567,2.479-0.95,3.723c-0.109,0.357-0.434,0.917-0.316,1.426c0.204,0.889,0.996,1.562,1.821,1.822
	c0.641,0.202,1.425,0.018,1.901-0.158c2.348-0.869,2.085-2.16,2.852-4.516c0.138-0.425,0.825-2.284,0.634-2.614
	c-0.026-0.079-0.053-0.158-0.079-0.237c-0.237,0-0.476,0-0.713,0C260.445,215.749,259.975,216.973,259.65,218.055z"/>
<path fill="#EB6C0D" d="M266.306,214.57c-3.29,0.342-3.181,2.565-4.041,5.229c-0.188,0.585-0.146,1.294-0.475,1.742
	c0.007,0.355,0.05,0.432,0.158,0.634c0.245,0.005,0.5,0.012,0.634-0.079c0.273-0.357,0.249-0.943,0.396-1.426
	c0.219-0.72,0.485-1.588,0.712-2.298c0.543-1.694,0.6-2.807,2.772-2.852C266.471,215.084,266.438,214.815,266.306,214.57z"/>
<path fill="#EB6C0D" d="M309.802,211.876c-0.073-0.213-0.136-0.231-0.237-0.396c-0.246-0.005-0.5-0.011-0.634,0.079
	c-0.271,0.372-0.205,1.057-0.476,1.426c0.007,0.356,0.05,0.433,0.159,0.634c0.237,0,0.475,0,0.713,0
	C309.369,213.092,309.535,212.253,309.802,211.876z M308.297,217.58c0.252-0.78,0.21-1.75,0.634-2.376
	c-0.007-0.356-0.05-0.433-0.158-0.634c-0.247-0.006-0.5-0.012-0.634,0.079c-0.291,0.386-0.229,0.989-0.396,1.505
	c-0.416,1.282-0.789,2.746-1.188,4.04c-0.133,0.428-0.477,1.45-0.317,1.743c0.026,0.079,0.053,0.158,0.079,0.237
	c0.238,0,0.475,0,0.713,0C307.25,220.628,307.836,219.004,308.297,217.58z"/>
<path fill="#EB6C0D" d="M376.84,218.372c0.168-0.521,0.68-1.373,0.475-2.139c-0.349-1.305-2.543-2.207-3.723-1.029
	c-0.097-0.171-0.032-0.175,0-0.396c-0.119-0.082-0.156-0.117-0.237-0.237c-0.211,0-0.423,0-0.634,0
	c-0.105,0.501-0.211,1.003-0.317,1.505c-0.113,0.285-0.38,0.431-0.476,0.792c-0.087,0.24,0.185,0.237,0.159,0.555
	c-0.054,0.664-0.651,2.167-0.872,2.852c-0.162,0.506-0.117,1.049-0.396,1.426c0.048,0.271,0.092,0.246,0.159,0.476
	c0.236,0,0.475,0,0.712,0c0.502-1.849,1.004-3.697,1.505-5.545c0.118-0.212,0.433-0.33,0.635-0.476
	c0.385-0.279,1.228-0.902,1.901-0.396c0.272,0.096,0.338,0.253,0.554,0.396c0.235,1.307-0.513,2.844-0.871,3.961
	c-0.166,0.518-0.119,1.102-0.396,1.505c0.015,0.33,0.055,0.363,0.158,0.555c0.237,0,0.475,0,0.713,0
	C376.064,221.015,376.47,219.515,376.84,218.372z"/>
<path fill="#EB6C0D" d="M300.851,215.204c-1.434,0.648-2.773,2.021-3.169,3.723c-0.541,2.328,2.291,3.732,4.516,3.169
	c0.913-0.232,1.598-0.769,2.376-1.03c-0.006-0.553-0.128-0.465-0.396-0.713c-0.653,0.088-1.027,0.527-1.584,0.713
	c-1.383,0.461-3.462,0.161-3.803-0.95c-0.404-0.517-0.088-1.739,0.158-2.14c0.716-1.163,2.133-2.009,3.645-2.376
	c0.861-0.209,2.204,0.075,2.534,0.476c0.363-0.072,0.388-0.23,0.634-0.396c-0.031-0.162-0.02-0.152-0.079-0.237
	c-0.272-0.69-1.843-0.832-2.852-0.792C302.361,214.94,301.377,214.966,300.851,215.204z"/>
<path fill="#EB6C0D" d="M347.055,215.204c-1.434,0.648-2.773,2.021-3.169,3.723c-0.541,2.328,2.291,3.732,4.516,3.169
	c0.913-0.232,1.598-0.769,2.376-1.03c-0.006-0.553-0.127-0.465-0.396-0.713c-0.653,0.088-1.026,0.527-1.584,0.713
	c-1.383,0.461-3.462,0.161-3.803-0.95c-0.404-0.517-0.088-1.739,0.158-2.14c0.716-1.163,2.133-2.009,3.645-2.376
	c0.861-0.209,2.204,0.075,2.534,0.476c0.363-0.072,0.388-0.23,0.634-0.396c-0.031-0.162-0.02-0.152-0.079-0.237
	c-0.272-0.69-1.843-0.832-2.852-0.792C348.565,214.94,347.581,214.966,347.055,215.204z"/>
<path fill="#EB6C0D" d="M249.749,214.57c2.519-0.047,4.753,1.562,3.724,4.356c-0.567,1.539-3.2,3.771-5.704,3.011
	c-2.25-0.685-3.219-3.328-1.663-5.467c0.464-0.638,1.441-1.274,2.218-1.584C248.798,214.781,249.273,214.675,249.749,214.57z
	 M249.511,215.521c-0.198,0.125-0.45,0.062-0.713,0.158c-0.674,0.249-1.587,0.798-1.979,1.347c-1.041,1.452-0.556,3.41,0.95,3.961
	c2.036,0.744,4.36-1.128,4.832-2.298c0.205-0.508,0.247-1.498,0-1.979C252.092,215.716,251.089,215.481,249.511,215.521z"/>
<path fill="#EB6C0D" d="M293.088,214.57c2.518-0.047,4.752,1.562,3.723,4.356c-0.566,1.539-3.2,3.771-5.704,3.011
	c-2.249-0.685-3.218-3.328-1.663-5.467c0.464-0.638,1.442-1.274,2.218-1.584C292.137,214.781,292.612,214.675,293.088,214.57z
	 M292.85,215.521c-0.199,0.125-0.451,0.062-0.713,0.158c-0.674,0.249-1.588,0.798-1.98,1.347c-1.04,1.452-0.555,3.41,0.95,3.961
	c2.037,0.744,4.36-1.128,4.833-2.298c0.205-0.508,0.246-1.498,0-1.979C295.431,215.716,294.427,215.481,292.85,215.521z"/>
<path fill="#EB6C0D" d="M316.219,222.175c-0.238,0-0.476,0-0.713,0c-0.027-0.079-0.054-0.158-0.079-0.237
	c-0.203-0.367,0.28-1.457,0.396-1.902c-0.026,0-0.053,0-0.079,0c-0.488,0.864-1.378,1.718-2.456,1.981
	c-1.341,0.326-3.021-1.381-2.693-2.694c0.488-1.951,2.083-3.638,3.803-4.356c0.82-0.343,2.939-0.67,3.01,0.555
	c-0.12,0.08-0.155,0.118-0.237,0.238c0.378-0.009,0.441-0.035,0.555,0.237c0.196,0.367-0.273,1.338-0.396,1.742
	C316.9,219.144,316.436,220.75,316.219,222.175z M315.348,215.521c-0.247,0.173-0.6,0.158-0.872,0.317
	c-1.328,0.775-2.943,2.104-2.932,4.197c0.179,0.213,0.254,0.549,0.476,0.714c0.186,0.138,0.396,0.163,0.555,0.316
	c2.111-0.003,2.756-1.918,3.486-3.327c0.292-0.564,0.729-1.121,0.792-1.9c-0.14-0.076-0.134-0.101-0.317-0.159
	C316.29,215.484,315.802,215.509,315.348,215.521z"/>
<path fill="#EB6C0D" d="M342.223,222.175c-0.237,0-0.476,0-0.713,0c-0.027-0.079-0.054-0.158-0.079-0.237
	c-0.203-0.367,0.28-1.457,0.396-1.902c-0.026,0-0.053,0-0.079,0c-0.488,0.864-1.377,1.718-2.456,1.981
	c-1.34,0.326-3.021-1.381-2.693-2.694c0.488-1.951,2.083-3.638,3.803-4.356c0.82-0.343,2.939-0.67,3.01,0.555
	c-0.12,0.08-0.155,0.118-0.237,0.238c0.378-0.009,0.441-0.035,0.555,0.237c0.196,0.367-0.273,1.338-0.396,1.742
	C342.904,219.144,342.439,220.75,342.223,222.175z M341.352,215.521c-0.246,0.173-0.6,0.158-0.872,0.317
	c-1.327,0.775-2.943,2.104-2.931,4.197c0.178,0.213,0.253,0.549,0.475,0.714c0.186,0.138,0.396,0.163,0.555,0.316
	c2.111-0.003,2.756-1.918,3.486-3.327c0.292-0.564,0.729-1.121,0.792-1.9c-0.141-0.076-0.134-0.101-0.317-0.159
	C342.294,215.484,341.806,215.509,341.352,215.521z"/>
<path fill="#EB6C0D" d="M356.719,214.57c2.518-0.047,4.753,1.562,3.723,4.356c-0.566,1.539-3.199,3.771-5.702,3.011
	c-2.25-0.685-3.22-3.328-1.664-5.467c0.465-0.638,1.442-1.274,2.218-1.584C355.769,214.781,356.244,214.675,356.719,214.57z
	 M356.481,215.521c-0.199,0.125-0.452,0.062-0.713,0.158c-0.674,0.249-1.587,0.798-1.98,1.347c-1.04,1.452-0.556,3.41,0.951,3.961
	c2.036,0.744,4.359-1.128,4.831-2.298c0.205-0.508,0.247-1.498,0-1.979C359.063,215.716,358.059,215.481,356.481,215.521z"/>
<path fill="#EB6C0D" d="M366.066,214.57c2.519-0.047,4.752,1.562,3.724,4.356c-0.567,1.539-3.2,3.771-5.704,3.011
	c-2.249-0.685-3.219-3.328-1.663-5.467c0.464-0.638,1.441-1.274,2.218-1.584C365.115,214.781,365.591,214.675,366.066,214.57z
	 M365.828,215.521c-0.197,0.125-0.451,0.062-0.713,0.158c-0.673,0.249-1.587,0.798-1.979,1.347c-1.041,1.452-0.556,3.41,0.95,3.961
	c2.036,0.744,4.36-1.128,4.833-2.298c0.204-0.508,0.246-1.498,0-1.979C368.41,215.716,367.406,215.481,365.828,215.521z"/>
<path fill="#B9B2AA" d="M229.495,114.045c-10.371,0-18.778,7.725-18.778,17.254c0,6.506,7.615,14.133,13.402,17.073
	c2.689,1.366,3.884-8.683,5.576-8.683c1.687,0,2.912,10.339,5.861,8.569c5.132-3.08,12.718-10.908,12.718-16.959
	C248.274,121.771,239.867,114.045,229.495,114.045z"/>
<path d="M242.644,142.297c-1.145,0.243-3.254,1.125-3.703,1.049c-0.448-0.076-1.796-1.582-2.177-1.597
	c-0.382-0.015-2.536,1.521-2.873,1.505s-2.909-1.858-2.851-1.642c0.157,0.578,1.975,7.496,4.04,6.918
	C236.553,148.119,242.353,143.072,242.644,142.297z"/>
<path d="M216.431,142.525c1.145,0.244,3.254,1.11,3.704,1.034c0.449-0.076,1.863-1.718,2.244-1.733
	c0.382-0.015,2.581,1.551,2.918,1.536c0.336-0.015,3.156-2.04,3.097-1.825c-0.156,0.578-1.997,7.572-4.062,6.995
	C222.859,148.119,216.723,143.301,216.431,142.525z"/>
<ellipse fill="#EB6C0D" cx="229.378" cy="130.358" rx="1.799" ry="2.198"/>
<path fill="#EB6C0D" d="M238.215,125.076c-0.896-0.378-2.14-0.372-3.713,0.854c-1.267,0.988-1.936,1.026-2.258,2.201
	c-0.198,0.722,0.234,0.987,0.376,1.598c0.141,0.611-0.423,1.928-0.047,2.586c0.182,0.318,1.681,0.693,2.536,1.045
	c0.861,0.355,2.677,0.535,3.293,0.506C241.948,133.699,240.002,125.828,238.215,125.076z"/>
<path fill="#EB6C0D" d="M220.627,125.017c0.896-0.377,2.14-0.372,3.712,0.855c1.268,0.988,1.937,1.026,2.259,2.201
	c0.198,0.722-0.235,0.987-0.376,1.598c-0.141,0.611,0.423,1.928,0.047,2.586c-0.182,0.318-1.681,0.693-2.536,1.045
	c-0.862,0.355-2.677,0.535-3.294,0.506C216.893,133.64,218.84,125.769,220.627,125.017z"/>
<path fill="#B9B2AA" d="M251.543,109.791c0,0,0.26-4.412,0.207-5.502c-0.052-1.09-0.155-4.412-0.207-5.346
	c-0.052-0.935,0.155-5.502-0.052-6.956c-0.208-1.453-0.571-4.879-2.024-5.813c-1.453-0.934-5.347,0.26-7.008,0.882
	c-1.661,0.623-3.997,2.803-5.087,2.907c-1.09,0.104-1.661-0.727-2.959-1.09c-3.116-0.873-3.788-0.985-4.974-0.985
	c-1.185,0-1.855,0.113-4.973,0.985c-1.298,0.363-1.869,1.194-2.958,1.09c-1.09-0.104-3.426-2.284-5.087-2.907
	c-1.661-0.623-5.554-1.816-7.007-0.882c-1.454,0.935-1.817,4.36-2.024,5.813s0,6.021-0.052,6.956
	c-0.052,0.934-0.155,4.256-0.208,5.346c-0.052,1.09,0.208,5.502,0.208,5.502H251.543z"/>
<path d="M248.446,87.735c1.661,0.986,2.336,9.378,1.713,9.43c-0.378,0.032-1.103-0.991-2.273-2.192
	c-1.376-1.413-2.607-2.652-5.022-3.491c-1.448-0.503-3.12-0.511-3.138-0.909C239.709,90.175,246.785,86.75,248.446,87.735z"/>
<path d="M210.674,87.735c-1.661,0.986-2.336,9.378-1.713,9.43c0.378,0.032,1.103-0.991,2.273-2.192
	c1.376-1.413,2.607-2.652,5.022-3.491c1.448-0.503,3.12-0.511,3.138-0.909C219.412,90.175,212.335,86.75,210.674,87.735z"/>
<path fill="#E2DFD9" d="M241.153,121.08c2.951-1.251,4.235-1.524,7.093-1.634s4.8-2.149,4.8-4.8c0,0,0.11-7.183-1.373-10.095
	c-1.484-2.913-5.356-6.11-9.223-6c-9.771,0.086-6.813,3.119-13.011,3.119c-6.197,0-3.18-3.033-12.97-3.119
	c-3.866-0.11-7.738,3.087-9.222,6s-1.374,10.095-1.374,10.095c0,2.651,1.942,4.69,4.8,4.8s4.142,0.383,7.093,1.634
	c6.261,2.655,6.717,6.114,11.659,6.114C234.366,127.194,234.892,123.735,241.153,121.08z"/>
<path d="M229.495,124.602c1.521,0.228,3.919-2.407,3.644-3.847c-0.24-1.257-2.452-1.362-2.474-2.714
	c-0.042-2.722-0.151-3.441,0.229-3.068c1.479,1.452,5.593,3.195,8.483,3.655c1.601,0.255,5.596,0.016,6.338-0.274
	c0.741-0.29,1.244-0.572,2.75-0.964c1.927-0.501,2.56,0.983,2.213-2.148c-0.328-2.961-1.289-6.673-4.853-9.265
	c-1.484-1.08-5.264-2.497-7.761-2.362c-2.496,0.135-5.553,3.332-6.174,3.142c-0.62-0.189-1.115-5.831-1.413-7.211
	c-0.38-1.756-0.448-3.22-1.019-3.22s-0.638,1.458-1.019,3.22c-0.298,1.381-0.793,7.022-1.414,7.211
	c-0.621,0.19-3.677-3.006-6.174-3.142c-2.497-0.135-6.275,1.282-7.76,2.362c-3.563,2.591-4.524,6.303-4.853,9.265
	c-0.347,3.131,0.286,1.646,2.214,2.148c1.505,0.392,2.008,0.674,2.75,0.964s4.736,0.529,6.337,0.274
	c2.891-0.46,7.005-2.203,8.483-3.655c0.38-0.374,0.271,0.346,0.229,3.068c-0.021,1.353-2.233,1.457-2.473,2.714
	c-0.275,1.439,2.123,4.075,3.644,3.847"/>
<path fill="#EB6C0D" d="M229.452,106.449c0.897,0,1.513,0.855,2.111,0.267c0.599-0.588,1.543-4.649,8.731-3.791
	c8.007,0.956,10.919,8.161,10.979,9.355c0.102,2.037-6.742,4.742-11.403,4.649c-2.988-0.06-5.515-2.274-7.063-4.323
	c-2.15-2.848-2.647-2.848-3.356-2.848s-1.208,0.008-3.342,2.848c-1.542,2.052-4.074,4.263-7.062,4.323
	c-4.662,0.093-11.505-2.612-11.403-4.649c0.06-1.195,2.972-8.399,10.978-9.355c7.188-0.858,8.133,3.203,8.731,3.791
	C227.952,107.304,228.555,106.449,229.452,106.449z M234.133,112.193c1.275,1.689,3.36,3.516,5.823,3.564
	c3.844,0.077,9.487-2.153,9.403-3.833c-0.049-0.985-2.45-6.926-9.053-7.715c-5.928-0.708-6.707,2.642-7.2,3.126
	S232.359,109.845,234.133,112.193z M225.773,107.336c-0.494-0.485-1.273-3.834-7.2-3.126c-6.603,0.789-9.004,6.729-9.053,7.715
	c-0.084,1.68,5.56,3.911,9.403,3.833c2.464-0.049,4.548-1.875,5.823-3.564C226.521,109.845,226.267,107.821,225.773,107.336z"/>
<path fill="#FFFFFF" d="M224.606,109.425c0,2.305-1.869,4.173-4.173,4.173s-4.173-1.869-4.173-4.173s1.868-4.173,4.173-4.173
	S224.606,107.121,224.606,109.425z M220.4,106.291c0.691,0,1.443,2.198,0.194,3.137c-1.206,0.907-3.266-0.08-3.266-1.032
	c0,1.788,0.27,3.935,3.072,3.935c1.696,0,3.071-1.271,3.071-2.968S222.097,106.291,220.4,106.291z"/>
<path fill="#FFFFFF" d="M242.575,109.425c0,2.305-1.869,4.173-4.173,4.173c-2.305,0-4.174-1.869-4.174-4.173
	s1.869-4.173,4.174-4.173C240.706,105.252,242.575,107.121,242.575,109.425z M238.369,106.291c0.691,0,1.443,2.198,0.194,3.137
	c-1.206,0.907-3.266-0.08-3.266-1.032c0,1.788,0.269,3.935,3.071,3.935c1.695,0,3.071-1.271,3.071-2.968
	S240.064,106.291,238.369,106.291z"/>
</svg>
