<?xml version="1.0" encoding="utf-8"?>
<!-- Generator: Adobe Illustrator 13.0.0, SVG Export Plug-In . SVG Version: 6.00 Build 14948)  -->
<!DOCTYPE svg PUBLIC "-//W3C//DTD SVG 1.1//EN" "http://www.w3.org/Graphics/SVG/1.1/DTD/svg11.dtd">
<svg version="1.1" id="Ebene_1" xmlns="http://www.w3.org/2000/svg" xmlns:xlink="http://www.w3.org/1999/xlink" x="0px" y="0px"
	 width="454.08px" height="339.84px" viewBox="0 0 454.08 339.84" enable-background="new 0 0 454.08 339.84" xml:space="preserve">
<path d="M2.882,131.258c1.177,1.097,2.299,2.051,3.377,2.89c1.079,0.836,2.111,1.558,3.108,2.177
	c1.993,1.236,3.841,2.073,5.595,2.573c3.509,0.997,6.624,0.625,9.728-1.018c3.813-1.931,7.534-6.056,12.653-10.08
	c4.392-3.608,10.63-7.02,18.24-6.725c7.547,0.071,16.466,3.85,24.772,9.489c13.28,10.268-0.026,37.166-23.969,42.619
	c-15.924,2.627-28.938-1.827-37.568-10.427c-1.137-1.083-2.203-2.21-3.2-3.371c-0.996-1.162-1.924-2.355-2.788-3.574
	c-1.728-2.44-3.195-4.977-4.453-7.592C5.862,142.976,4.177,137.451,2.882,131.258L2.882,131.258z"/>
<path fill="#A89D96" d="M20.562,164.26c0.919,1.284-3.599-4.406-3.999-9.292c-0.795-5.388,2.528-9.975,10.003-18.07
	c1.281-1.37,6.314-5.197,6.338-5.354c-0.015-0.01-1.917,4.02-3.813,10.856c-1.026,3.695-1.387,7.974-0.729,12.147
	c0.691,4.354,2.779,8.203,6.362,12.269c2.516,2.914,7.308,5.801,10.829,6.87C42.328,174.67,28.111,171.946,20.562,164.26
	L20.562,164.26z"/>
<path fill="#A89D96" d="M46.197,163.216c-9.396-5.234-13.807-15.262-5.396-37.748c1.139-1.526,6.103-3.169,6.154-3.078
	c-0.009-0.05-2.191,4.949-2.128,9.484c0.035,3.742,1.517,11.14,4.194,14.512c2.979,3.864,9.467,7.846,13.428,9.86
	c3.185,1.524,10.382,2.9,16.145,2.942c-1.696,2.02-5.967,6.664-10.036,8.88C68.557,168.068,60.173,171.188,46.197,163.216z"/>
<path fill="#8C8179" d="M68.5,105.982c-23.665,9.167-23.442,59.727-4.654,76.852c15.181-3.235,30.415-11.899,30.415-11.899
	s23.506,11.48,29.135,7.944C146.306,141.953,127.542,100.614,68.5,105.982z"/>
<path fill="#EB6C0D" d="M138.307,133.04h292.799c10.604,0,19.2,8.596,19.2,19.2v76.8c0,10.604-8.596,19.2-19.2,19.2H138.307
	c-10.604,0-19.2-8.596-19.2-19.2v-76.8C119.106,141.636,127.703,133.04,138.307,133.04z"/>
<path fill="#FFFFFF" d="M212.531,144.697c0.44,0,0.88,0,1.32,0c0.018,0.584-0.154,0.91-0.28,1.321
	c-0.027,0.187-0.054,0.374-0.08,0.56c-0.229,0.697-0.485,1.531-0.681,2.241c-0.163,0.592-0.271,1.119-0.44,1.641
	c-0.027,0.187-0.053,0.374-0.08,0.561c-0.231,0.629-0.443,1.436-0.64,2.081c-0.04,0.24-0.08,0.48-0.12,0.72
	c-0.197,0.522-0.366,1.241-0.561,1.761c-0.026,0.2-0.053,0.4-0.08,0.6c-0.203,0.692-0.489,1.51-0.68,2.201
	c-0.33,1.191-0.527,2.339-0.92,3.442c-0.119,0.333-0.072,0.939-0.36,1.081c-0.347,0-0.694,0-1.041,0
	c-0.041-0.032-0.011-0.014-0.08-0.04c-0.013-0.04-0.026-0.08-0.04-0.12c-0.097-0.148,0.131-0.97,0.2-1.161
	c0.405-1.123,0.554-2.426,1-3.521c0.014-0.12,0.027-0.24,0.04-0.36c0.124-0.413,0.315-0.963,0.44-1.361
	c0.085-0.271,0.027-0.5,0.12-0.76c0.521-1.451,0.834-3.126,1.32-4.602c0.147-0.447,0.13-0.829,0.28-1.281
	c0.23-0.693,0.473-1.54,0.68-2.241c0.014-0.146,0.027-0.293,0.04-0.44C212.104,146.323,212.489,145.502,212.531,144.697z"/>
<path fill="#FFFFFF" d="M227.738,144.697c0.374,0,0.747,0,1.121,0c0.005,0.28,0,0.59,0,0.96c-0.49,0.256-1.38,0.324-1.841,0.48
	c-0.187,0-0.374,0-0.56,0c-1.282,0.414-2.735,0.412-4.042,0.84c-0.147-0.014-0.293-0.027-0.44-0.04
	c-0.044,0.016-0.144,0.141-0.2,0.16c-0.173,0-0.347,0-0.52,0c-0.16,0.066-0.32,0.133-0.48,0.2c-0.179,0.432-0.208,0.924-0.36,1.401
	c-0.256,0.805-0.421,1.661-0.681,2.521c-0.754,2.501-1.427,5.176-2.161,7.684c-0.027,0.2-0.054,0.4-0.08,0.6
	c-0.234,0.623-0.455,1.426-0.641,2.081c-0.101,0.355-0.153,1.163-0.44,1.281c-0.196,0.126-0.798,0.045-1.081,0.04
	c-0.07-0.13-0.084-0.291-0.08-0.521c0.148-0.224,0.093-0.515,0.2-0.8c0.354-0.944,0.633-2.116,0.92-3.082
	c0.064-0.215,0.009-0.364,0.08-0.56c0.545-1.508,0.895-3.232,1.36-4.763c0.132-0.433,0.105-0.754,0.24-1.2
	c0.205-0.676,0.472-1.51,0.68-2.201c0.014-0.147,0.027-0.293,0.041-0.44c0.162-0.487,0.456-1.125,0.48-1.721
	c-0.154-0.053-0.425-0.043-0.64-0.04c-0.231,0.175-0.977,0.208-1.361,0.32c-0.16,0-0.32,0-0.48,0
	c-0.069,0.023-0.159,0.136-0.24,0.16c-0.173,0-0.347,0-0.521,0c-0.438,0.116-1.009,0.245-1.44,0.36c-0.092,0.024-0.75-0.013-0.92,0
	c-0.027-0.04-0.054-0.08-0.08-0.12c-0.193-0.236-0.027-0.605,0.04-0.84c0.216-0.099,0.685-0.175,0.92-0.24c0.12,0,0.24,0,0.36,0
	c0.766-0.242,1.737-0.327,2.521-0.44c0.084-0.012,0.197-0.136,0.28-0.16c0.174,0,0.347,0,0.521,0
	c0.427-0.137,1.064-0.254,1.521-0.36c0.107,0.014,0.214,0.027,0.32,0.04c0.066-0.018,0.162-0.137,0.24-0.16c0.173,0,0.347,0,0.521,0
	c0.578-0.18,1.458-0.296,2.041-0.48c0.286-0.09,0.796-0.031,1-0.08c0.523-0.125,1.176-0.271,1.641-0.4
	c0.366-0.102,0.651,0.039,1-0.08c0.069-0.024,0.158-0.137,0.24-0.16c0.242-0.07,0.546-0.036,0.72-0.08
	c0.021-0.05,0.048-0.122,0.08-0.16c0.029,0.158,0.003,0.128,0.16,0.16c0-0.014,0-0.027,0-0.04c0.014,0,0.027,0,0.04,0
	C227.738,144.777,227.738,144.737,227.738,144.697z"/>
<path fill="#FFFFFF" d="M231.18,144.697c0.414,0,0.827,0,1.241,0c0.075,0.873-0.26,1.873-0.521,2.601
	c-0.026,0.227-0.053,0.454-0.08,0.681c-0.174,0.641-0.376,1.391-0.56,2.041c-0.115,0.404-0.193,1.585-0.48,1.721
	c-0.32,0-0.64,0-0.96,0c-0.041-0.032-0.011-0.014-0.081-0.04c-0.038-0.071-0.05-0.067-0.08-0.16c-0.136-0.21,0.279-1.5,0.36-1.761
	c0.216-0.693,0.228-1.383,0.44-2.081C230.741,146.774,231.094,145.756,231.18,144.697z"/>
<path fill="#FFFFFF" d="M246.748,144.697c0.04,0,0.081,0,0.12,0c0.015,0.083,0.01,0.077,0.04,0.12
	c0.074,0.049,0.229,0.043,0.36,0.04c0.041-0.032,0.011-0.014,0.08-0.04c0-0.04,0-0.08,0-0.12c1.134,0,2.268,0,3.402,0
	c0,0.053,0,0.106,0,0.16c0.502-0.021,1.588,0.005,1.641,0.52c0.024,0.068,0.03,0.483,0.04,0.641c-0.059,0.034-0.115,0.072-0.16,0.12
	c-0.623-0.007-1.01-0.108-1.441-0.24c-0.253,0-0.507,0-0.76,0c-0.037-0.011-0.154-0.108-0.2-0.12
	c-0.487-0.131-1.479,0.034-1.801,0.12c-0.227,0-0.454,0-0.68,0c-0.046,0.013-0.163,0.108-0.2,0.12c-0.16,0-0.32,0-0.48,0
	c-0.02,0.007-0.091,0.11-0.12,0.12c-0.133,0-0.267,0-0.4,0c-0.137,0.043-0.429,0.194-0.56,0.24c-0.209,0.073-0.364-0.004-0.561,0.08
	c-1.309,0.564-2.595,1.133-3.762,1.841c-0.466,0.283-0.889,0.721-1.321,1.041c-0.777,0.577-1.388,1.219-1.961,2.001
	c-0.196,0.269-0.469,0.419-0.48,0.88c0.091,0.049,0.09,0.066,0.24,0.08c0.268-0.218,0.676-0.146,1.041-0.28
	c0.629-0.232,1.387-0.552,2.001-0.801c0.2-0.04,0.4-0.08,0.6-0.12c0.284-0.14,0.731-0.336,1.041-0.44
	c0.12-0.013,0.24-0.027,0.36-0.04c0.098-0.037,0.205-0.163,0.32-0.2c0.133-0.013,0.267-0.026,0.4-0.04
	c1.197-0.45,2.542-0.811,3.882-1.161c0.379-0.099,0.823,0.038,1.201-0.08c0.1-0.031,0.297-0.126,0.44-0.16c0.734,0,1.468,0,2.201,0
	c0.121,0.031,0.279,0.132,0.4,0.16c0.093-0.013,0.187-0.026,0.28-0.04c0.032,0.008,0.128,0.11,0.16,0.12
	c0.147,0.014,0.293,0.027,0.44,0.04c1.562,0.772,2.561,1.816,3.001,3.722c0.185,0.797-0.142,1.639-0.36,2.081
	c-0.642,1.297-1.645,2.19-2.801,2.961c-0.207,0.138-0.43,0.181-0.64,0.32c-1.449,0.959-3.226,1.653-4.962,2.321
	c-0.436,0.167-0.795,0.153-1.241,0.32c-0.25,0.093-0.66,0.277-0.92,0.36c-0.134,0.014-0.267,0.027-0.4,0.04
	c-0.026,0.01-0.104,0.115-0.12,0.12c-0.08-0.013-0.16-0.026-0.24-0.04c-0.068,0.021-0.16,0.136-0.24,0.16c-0.12,0-0.24,0-0.36,0
	c-0.02,0.008-0.09,0.112-0.12,0.12c-0.08-0.013-0.16-0.027-0.24-0.04c-0.063,0.02-0.138,0.138-0.2,0.16c-0.134,0-0.267,0-0.4,0
	c-0.345,0.124-0.823,0.215-1.201,0.32c-0.12,0-0.24,0-0.36,0c-0.395,0.154-1.06,0.243-1.481,0.36c-0.213,0-0.427,0-0.64,0
	c-1.182,0.332-2.939,0.36-4.563,0.36c-0.034-0.059-0.072-0.115-0.12-0.16c0-0.267,0-0.534,0-0.8c0.37-0.192,1.536-0.084,2.081-0.08
	c0.308-0.23,0.596,0.016,1.081-0.12c0.95-0.268,2.13-0.322,3.042-0.6c0.147,0,0.293,0,0.44,0c1.424-0.461,2.812-0.719,4.162-1.201
	c0.173-0.027,0.347-0.054,0.52-0.08c1.482-0.592,3.024-1.123,4.402-1.841c0.066-0.035,0.137-0.165,0.2-0.2
	c0.381-0.214,0.759-0.321,1.121-0.56c0.369-0.244,0.729-0.585,1.081-0.841c0.8-0.582,2.49-2.129,2.041-3.602
	c-0.386-1.266-1.309-2.237-2.561-2.641c-0.133,0-0.267,0-0.4,0c-0.347-0.094-0.738-0.111-1.241-0.12
	c-0.093-0.059-0.149,0.084-0.24,0.12c-0.24,0-0.48,0-0.721,0c-0.229,0.059-0.624,0.179-0.84,0.24c-0.133,0-0.267,0-0.4,0
	c-1.576,0.412-3.236,0.838-4.683,1.401c-0.146,0.013-0.293,0.027-0.44,0.04c-0.377,0.127-0.882,0.355-1.281,0.48
	c-0.199,0.063-0.326,0.008-0.521,0.08c-1.421,0.53-3.149,1.192-5.002,0.801c-0.306-0.518-0.146-1.009,0.08-1.441
	c0.275-0.525,0.542-0.945,0.88-1.401c0.15-0.202,0.408-0.358,0.561-0.56c0.905-1.198,2.721-2.404,4.082-3.162
	c0.111-0.062,0.209-0.019,0.32-0.08c0.187-0.103,0.444-0.311,0.64-0.4c0.236-0.107,0.467-0.208,0.68-0.28
	c0.107-0.014,0.213-0.027,0.32-0.04c0.07-0.035,0.153-0.166,0.24-0.2c0.315-0.126,0.669-0.226,0.96-0.32c0.093,0,0.187,0,0.28,0
	c0.048-0.02,0.141-0.14,0.2-0.16c0.12,0,0.24,0,0.36,0c0.2-0.063,0.42-0.177,0.64-0.24c0.243-0.07,0.546-0.036,0.72-0.08
	C246.748,144.804,246.748,144.75,246.748,144.697z"/>
<path fill="#FFFFFF" d="M277.723,144.697c0.374,0,0.747,0,1.12,0c0.004,0.333,0.014,0.73-0.04,1
	c-0.479,0.181-1.041,0.228-1.561,0.28c-0.081,0.008-0.175,0.138-0.24,0.16c-0.187,0-0.374,0-0.56,0
	c-0.199,0.055-0.602,0.185-0.8,0.24c-0.147,0-0.293,0-0.44,0c-0.065,0.019-0.167,0.106-0.24,0.12c-0.12-0.013-0.24-0.026-0.36-0.04
	c-0.062,0.017-0.139,0.14-0.2,0.16c-0.187,0-0.374,0-0.56,0c-0.202,0.056-0.594,0.184-0.801,0.24c-0.16,0-0.32,0-0.48,0
	c-0.516,0.159-1.259,0.212-1.801,0.44c-0.178,0.417-0.21,0.888-0.36,1.361c-0.227,0.715-0.459,1.56-0.68,2.281
	c-0.014,0.133-0.027,0.267-0.04,0.4c-0.244,0.686-0.466,1.539-0.681,2.241c-0.013,0.133-0.026,0.267-0.04,0.4
	c-0.494,1.57-0.938,3.303-1.4,4.882c-0.013,0.146-0.027,0.293-0.04,0.44c-0.208,0.683-0.48,1.516-0.68,2.201
	c-0.11,0.375-0.144,1.237-0.44,1.361c-0.195,0.126-0.798,0.045-1.081,0.04c-0.197-0.342-0.015-0.625,0.08-0.96
	c0.254-0.901,0.483-1.786,0.72-2.641c0.575-2.075,1.058-4.166,1.681-6.164c0.219-0.702,0.267-1.335,0.48-2.041
	c0.191-0.63,0.411-1.427,0.64-2.041c0.027-0.2,0.054-0.4,0.08-0.601c0.086-0.287,0.253-0.558,0.2-0.88c-0.2,0-0.4,0-0.6,0
	c-0.191,0.143-1.011,0.215-1.361,0.32c-0.16,0-0.32,0-0.48,0c-0.066,0.021-0.174,0.138-0.24,0.16c-0.359,0.117-0.659-0.03-1,0.081
	c-0.551,0.178-1.297,0.352-1.961,0.24c0-0.013,0-0.026,0-0.04c-0.014,0-0.027,0-0.04,0c-0.031-0.238-0.048-0.565,0-0.8
	c0.553-0.346,1.563-0.3,2.201-0.56c0.16,0,0.32,0,0.48,0c0.3-0.095,0.873-0.28,1.201-0.2c0.667-0.249,1.602-0.338,2.321-0.521
	c0.106,0.014,0.213,0.027,0.32,0.04c0.063-0.017,0.139-0.138,0.2-0.16c0.173,0,0.347,0,0.521,0c0.283-0.079,0.55-0.161,0.84-0.24
	c0.146,0,0.293,0,0.44,0c1.042-0.289,2.399-0.412,3.442-0.721c0.146,0,0.293,0,0.44,0c0.112-0.028,0.411-0.029,0.561-0.08
	c0.069-0.024,0.159-0.135,0.24-0.16c0.187,0,0.374,0,0.56,0c0.033-0.011,0.127-0.111,0.16-0.12c0.122-0.035,0.169,0.035,0.28,0
	C277.723,144.777,277.723,144.737,277.723,144.697z"/>
<path fill="#FFFFFF" d="M282.726,144.697c0.44,0,0.88,0,1.32,0c0.045,0.512-0.148,0.928-0.28,1.361
	c-0.273,0.893-0.438,1.781-0.721,2.601c-0.013,0.146-0.026,0.293-0.04,0.44c-0.106,0.382-0.266,0.865-0.4,1.241
	c-0.07,0.197-0.016,0.346-0.08,0.561c-0.73,2.444-1.448,5.065-2.121,7.523c-0.326,1.188-0.558,2.326-0.92,3.442
	c-0.105,0.323-0.083,0.911-0.36,1.041c-0.347,0-0.693,0-1.041,0c-0.041-0.032-0.011-0.014-0.08-0.04
	c-0.013-0.04-0.026-0.08-0.04-0.12c-0.103-0.158,0.172-1.032,0.24-1.241c0.375-1.145,0.617-2.411,1-3.521
	c0.014-0.133,0.027-0.267,0.04-0.4c0.142-0.432,0.32-0.966,0.44-1.401c0.06-0.218,0.013-0.36,0.08-0.56
	c0.391-1.161,0.724-2.513,1.081-3.682c0.026-0.2,0.053-0.4,0.08-0.601c0.13-0.357,0.289-0.858,0.4-1.241
	c0.013-0.133,0.027-0.267,0.04-0.4c0.224-0.631,0.413-1.439,0.64-2.081c0.027-0.2,0.054-0.4,0.08-0.6
	C282.303,146.384,282.699,145.452,282.726,144.697z"/>
<path fill="#FFFFFF" d="M288.328,144.697c0.427,0,0.854,0,1.281,0c-0.002,0.429-0.351,1.312-0.2,1.561
	c0.12,0.344,0.517,0.532,0.72,0.801c0.178,0.235,0.343,0.445,0.521,0.68c0.16,0.146,0.32,0.293,0.48,0.44
	c0.346,0.458,0.697,0.902,1.121,1.281c0.293,0.263,0.485,0.865,0.96,0.92c0.281-0.392,1.375-0.878,1.841-1.161
	c1.348-0.814,2.734-1.689,4.042-2.561c0.739-0.492,2.161-0.866,2.241-1.961c0.774,0,1.547,0,2.321,0
	c0.022,0.322-0.013,0.724-0.04,1.081c-0.153,0.101-1.067,0.635-1.121,0.72c-0.193,0.306-0.153,0.698-0.28,1.081
	c-0.339,1.019-0.558,2.068-0.88,3.162c-0.619,2.098-1.235,4.354-1.881,6.443c-0.013,0.146-0.027,0.293-0.04,0.44
	c-0.491,1.688-1.082,3.443-1.48,5.203c-0.04,0.013-0.081,0.027-0.12,0.04c-0.203,0.13-0.83,0.045-1.121,0.04
	c-0.07-0.13-0.084-0.291-0.08-0.521c0.206-0.275,0.154-0.664,0.28-1.041c0.19-0.568,0.407-1.317,0.6-1.881
	c0.04-0.253,0.08-0.507,0.12-0.76c0.637-1.689,0.973-3.659,1.561-5.363c0.014-0.146,0.027-0.293,0.04-0.44
	c0.111-0.377,0.267-0.866,0.4-1.241c0.027-0.173,0.053-0.347,0.08-0.521c0.261-0.785,0.433-1.629,0.68-2.481
	c0.099-0.339,0.269-0.616,0.28-1.081c-0.069-0.024-0.126-0.036-0.24-0.04c-0.344,0.349-0.84,0.505-1.281,0.76
	c-0.04,0.054-0.08,0.107-0.12,0.16c-0.354,0.236-0.786,0.336-1.12,0.601c-0.041,0.032-0.073,0.131-0.12,0.16
	c-0.879,0.545-1.777,0.959-2.642,1.521c-0.478,0.311-0.963,0.581-1.48,0.88c-0.157,0.091-0.324,0.295-0.521,0.36
	c-0.24-0.014-0.48-0.027-0.72-0.04c-0.349-0.542-0.896-0.969-1.281-1.481c-0.678-0.903-1.434-1.783-2.241-2.561
	c-0.04,0.013-0.08,0.026-0.12,0.04c0.001,0.675-0.267,1.23-0.44,1.761c-0.04,0.24-0.08,0.48-0.12,0.72
	c-0.277,0.852-0.515,1.877-0.8,2.721c-0.102,0.301-0.052,0.576-0.16,0.881c-0.132,0.372-0.291,0.856-0.4,1.241
	c-0.04,0.24-0.08,0.48-0.12,0.72c-0.293,0.842-0.504,1.875-0.801,2.721c-0.105,0.3-0.054,0.59-0.16,0.88
	c-0.373,1.021-0.633,2.197-0.92,3.282c-0.289,0.097-0.801,0.043-1.161,0.04c-0.039-0.071-0.05-0.067-0.08-0.16
	c-0.074-0.115,0.065-0.766,0.12-0.96c0.259-0.925,0.512-2.017,0.84-2.921c0.083-0.231,0.047-0.42,0.12-0.681
	c0.106-0.378,0.266-0.869,0.4-1.24c0.071-0.197,0.017-0.345,0.08-0.561c0.439-1.499,0.792-3.212,1.321-4.682
	c0.23-0.64,0.225-1.246,0.44-1.881c0.183-0.54,0.348-1.193,0.52-1.721c0.04-0.24,0.08-0.48,0.12-0.72
	c0.066-0.205,0.29-0.628,0.2-0.84c-0.146-0.407-0.512-0.446-0.521-1.041c0.179-0.193,0.265-0.484,0.6-0.52
	c0.083-0.053,0.34-0.062,0.44-0.08C288.311,144.833,288.32,144.801,288.328,144.697z"/>
<path fill="#FFFFFF" d="M309.378,144.697c0.414,0,0.827,0,1.241,0c0.071,0.571-0.19,0.955-0.24,1.441
	c0.112,0.107,0.09,0.149,0.32,0.16c0.347-0.226,1.059-0.18,1.44-0.24c0.119-0.019,0.283-0.13,0.4-0.16c0.16,0,0.32,0,0.48,0
	c0.45-0.137,1.071-0.239,1.601-0.36c0.133,0.013,0.267,0.027,0.4,0.04c0.068-0.022,0.16-0.136,0.24-0.16c0.187,0,0.374,0,0.561,0
	c0.104-0.033,0.138-0.137,0.32-0.12c0.058,0.005,0.208,0.084,0.32,0.04c0.047-0.018,0.142-0.141,0.2-0.16c0.187,0,0.374,0,0.56,0
	c0.044-0.012,0.165-0.11,0.2-0.12c0.133,0.014,0.267,0.027,0.4,0.041c0.073-0.023,0.195-0.136,0.28-0.16c0.173,0,0.347,0,0.521,0
	c0.05-0.014,0.189-0.11,0.24-0.12c0.099-0.019,0.174,0.033,0.28,0c0-0.04,0-0.08,0-0.12c0.387,0,0.774,0,1.161,0
	c0.009,0.307,0.06,0.823-0.08,1c-0.359,0.279-0.525,0.062-0.96,0.2c-0.034,0.011-0.126,0.109-0.16,0.12
	c-0.16-0.014-0.32-0.027-0.48-0.04c-0.062,0.017-0.139,0.139-0.2,0.16c-0.2,0-0.4,0-0.6,0c-0.034,0.01-0.126,0.109-0.16,0.12
	c-0.16-0.013-0.32-0.026-0.48-0.04c-0.062,0.017-0.139,0.139-0.2,0.16c-0.2,0-0.4,0-0.601,0c-0.119,0.038-0.153,0.124-0.36,0.12
	c-0.093-0.013-0.187-0.026-0.28-0.04c-0.063,0.019-0.138,0.139-0.2,0.16c-0.2,0-0.4,0-0.6,0c-0.046,0.013-0.163,0.108-0.2,0.12
	c-0.133-0.014-0.267-0.027-0.4-0.04c-0.085,0.015-0.196,0.135-0.28,0.16c-0.187,0-0.374,0-0.56,0
	c-0.079,0.024-0.161,0.109-0.28,0.12c-0.106-0.014-0.213-0.027-0.32-0.04c-0.092,0.019-0.229,0.134-0.32,0.16
	c-0.187,0-0.374,0-0.56,0c-0.547,0.163-1.343,0.257-2.001,0.4c-0.093,0.396-0.258,0.864-0.36,1.241
	c-0.059,0.218-0.009,0.363-0.08,0.56c-0.089,0.249-0.217,0.521-0.24,0.84c0.027,0,0.053,0,0.08,0c0.21,0.132,0.301-0.092,0.521-0.08
	c0.149,0.008,0.325-0.077,0.48-0.12c0.133,0,0.267,0,0.4,0c0.033-0.011,0.127-0.111,0.16-0.12c0.08,0.013,0.16,0.027,0.24,0.04
	c0.233-0.061,0.71-0.228,0.96-0.28c0.08,0.013,0.16,0.027,0.24,0.04c0.073-0.021,0.196-0.136,0.28-0.16
	c0.287-0.081,0.664,0.029,0.92-0.08c0.052-0.022,0.123-0.137,0.2-0.16c0.337-0.1,0.602,0.025,0.92-0.08
	c0.074-0.024,0.195-0.136,0.28-0.16c0.12,0,0.24,0,0.36,0c0.238-0.072,0.619-0.183,0.84-0.24c0.12,0,0.24,0,0.36,0
	c0.02-0.007,0.091-0.113,0.12-0.12c0.085-0.021,0.152,0.074,0.28,0.04c0.046-0.012,0.162-0.108,0.2-0.12c0.133,0,0.267,0,0.4,0
	c0.622-0.16,1.208-0.352,2.001-0.36c0.049,0.091,0.065,0.09,0.08,0.24c0.066,0.111,0.028,0.619,0,0.761
	c-0.457,0.169-1.102,0.257-1.561,0.4c-0.133,0-0.267,0-0.4,0c-1.851,0.597-4.229,0.742-5.963,1.321c-0.16,0-0.32,0-0.48,0
	c-0.425,0.117-0.936,0.227-1.44,0.36c-0.231,0.061-0.714,0.065-0.84,0.2c-0.1,0.138-0.054,0.285-0.12,0.48
	c-0.107,0.315-0.264,0.744-0.36,1.041c-0.027,0.2-0.053,0.4-0.08,0.6c-0.609,1.713-0.915,3.625-1.48,5.363
	c-0.207,0.635-0.334,1.289-0.521,1.881c-0.064,0.205-0.039,0.363,0.08,0.44c0.011,0.006,0.583,0.055,0.72,0
	c0.021-0.008,0.09-0.109,0.12-0.12c0.267,0,0.534,0,0.8,0c0.047-0.014,0.162-0.108,0.2-0.12c0.24,0,0.48,0,0.72,0
	c0.035-0.011,0.126-0.109,0.16-0.12c0.187,0,0.374,0,0.561,0c0.212-0.005,0.3-0.08,0.44-0.12c0.213,0,0.427,0,0.641,0
	c0.923-0.265,2.154-0.219,3.081-0.48c0.187-0.053,0.437,0.063,0.561,0.04c0.086-0.016,0.195-0.134,0.28-0.16c0.253,0,0.507,0,0.76,0
	c0.039-0.012,0.137-0.112,0.16-0.12c0.226-0.086,0.553,0.086,0.72,0.04c0.284-0.078,0.243-0.211,0.72-0.12
	c0.049,0.091,0.066,0.09,0.08,0.24c-0.102,0.157-0.036,0.517-0.04,0.681c-0.145,0.075-0.367,0.197-0.52,0.24
	c-0.267,0-0.534,0-0.801,0c-0.027,0.009-0.102,0.113-0.12,0.12c-0.173-0.013-0.347-0.026-0.521-0.04
	c-0.128,0.03-0.292,0.13-0.4,0.16c-0.253,0-0.507,0-0.761,0c-0.051,0.014-0.188,0.109-0.24,0.12c-0.16-0.013-0.32-0.026-0.48-0.04
	c-0.108,0.03-0.272,0.129-0.4,0.16c-0.227,0-0.454,0-0.681,0c-0.094,0.028-0.178,0.078-0.36,0.08c-0.147,0-0.294,0-0.44,0
	c-0.069,0.023-0.159,0.137-0.24,0.16c-0.267,0-0.534,0-0.8,0c-0.705,0.215-1.922,0.19-2.721,0.44c-0.253,0-0.507,0-0.76,0
	c-0.08,0.022-0.212,0.146-0.28,0.16c-0.151,0.033-0.429-0.101-0.601,0c-0.093,0.147-0.187,0.293-0.28,0.44c-0.347,0-0.694,0-1.041,0
	c-0.137-0.136-0.433-0.181-0.521-0.36c-0.129-0.145-0.087-0.57-0.08-0.84c0.151-0.076,0.463-0.12,0.641-0.16
	c0.342-0.631,0.399-1.386,0.64-2.161c0.198-0.636,0.429-1.448,0.64-2.081c0.161-0.481,0.134-0.877,0.28-1.36
	c0.04-0.132,0.156-0.305,0.2-0.44c0.188-0.574,0.223-1.138,0.44-1.641c0.04-0.24,0.08-0.48,0.12-0.721
	c0.12-0.396,0.308-0.83,0.32-1.32c-0.22,0.015-0.454,0.04-0.72,0.04c-0.126-0.204-0.126-0.519-0.12-0.88
	c0.093-0.097,0.143-0.271,0.28-0.32c0.309-0.11,0.601,0.031,0.84-0.12c0.241-0.152,0.223-0.536,0.32-0.84
	c0.182-0.568,0.5-1.22,0.561-1.841c-0.027,0-0.053,0-0.08,0c-0.155-0.096-0.689-0.083-0.84-0.12c-0.011-0.204,0-0.531,0-0.84
	c0.32-0.196,0.701-0.231,1.161-0.32c0.233-0.428,0.218-0.938,0.4-1.44C309.271,144.992,309.356,144.908,309.378,144.697z"/>
<path fill="#FFFFFF" d="M341.714,144.857c0-0.054,0-0.107,0-0.16c0.374,0,0.747,0,1.121,0c0.039,0.312,0.06,0.749-0.04,1
	c-0.356,0.152-1.131,0.386-1.561,0.28c-0.635,0.235-1.547,0.303-2.201,0.52c-0.147-0.013-0.294-0.026-0.44-0.04
	c-0.063,0.017-0.139,0.138-0.2,0.16c-0.173,0-0.347,0-0.52,0c-0.222,0.062-0.616,0.179-0.84,0.24c-0.147,0-0.294,0-0.44,0
	c-0.047,0.013-0.162,0.107-0.2,0.12c-0.133-0.014-0.267-0.027-0.4-0.04c-0.063,0.017-0.139,0.138-0.2,0.16
	c-0.393,0.14-0.666-0.064-1,0.2c-0.174,0.201-0.146,0.555-0.24,0.841c-0.25,0.749-0.394,1.553-0.64,2.361
	c-0.845,2.768-1.603,5.689-2.361,8.484c-0.28,1.03-0.498,2.014-0.8,3.001c-0.08,0.261-0.096,0.815-0.32,0.92
	c-0.374,0-0.747,0-1.121,0c-0.013-0.04-0.027-0.08-0.04-0.12c-0.11-0.166,0.063-0.758,0.12-0.96c0.059-0.21,0.178-0.423,0.24-0.6
	c0.013-0.147,0.026-0.294,0.04-0.44c0.166-0.588,0.32-1.341,0.56-1.921c0.112-0.27,0.09-0.574,0.2-0.88
	c0.134-0.374,0.289-0.855,0.4-1.241c0.013-0.146,0.026-0.293,0.04-0.44c0.317-0.959,0.613-2.108,0.92-3.081
	c0.143-0.454,0.109-0.866,0.28-1.321c0.216-0.577,0.406-1.33,0.601-1.921c0.069-0.209,0.012-0.369,0.08-0.601
	c0.151-0.515,0.465-1.12,0.48-1.761c-0.154-0.053-0.425-0.043-0.64-0.04c-0.088,0.076-0.664,0.195-0.84,0.24
	c-0.147,0-0.293,0-0.44,0l-0.08,0.08c-0.146,0-0.293,0-0.44,0c-0.074,0.023-0.195,0.136-0.28,0.16c-0.366,0.103-0.653-0.031-1,0.081
	c-0.543,0.174-1.265,0.342-1.921,0.24c-0.013-0.04-0.027-0.08-0.04-0.12c-0.083-0.126-0.045-0.483-0.04-0.68
	c0.093-0.08,0.187-0.16,0.28-0.24c0.16,0,0.32,0,0.48,0c0.067-0.017,0.22-0.103,0.28-0.12c0.107,0,0.213,0,0.32,0
	c0.778-0.224,1.733-0.328,2.521-0.44c0.084-0.012,0.21-0.138,0.28-0.16c0.173,0,0.347,0,0.52,0c0.445-0.125,1.087-0.255,1.561-0.36
	c0.093,0.014,0.187,0.027,0.28,0.04c0.064-0.017,0.177-0.14,0.24-0.16c0.173,0,0.347,0,0.521,0c0.6-0.169,1.471-0.305,2.081-0.48
	c0.173,0,0.347,0,0.52,0c0.052-0.014,0.188-0.108,0.24-0.12c0.08,0.013,0.16,0.027,0.24,0.04c0.083-0.021,0.257-0.134,0.36-0.16
	c0.147,0,0.293,0,0.44,0c0.033-0.01,0.127-0.11,0.16-0.12c0.178-0.052,0.271,0.081,0.48,0c0.023-0.009,0.121-0.108,0.16-0.12
	c0.366-0.105,0.648,0.034,1-0.08c0.074-0.024,0.195-0.136,0.28-0.16c0.219-0.062,0.507-0.037,0.68-0.08
	c0.021-0.05,0.048-0.122,0.08-0.16C341.545,144.864,341.535,144.843,341.714,144.857z"/>
<path fill="#FFFFFF" d="M352.52,144.697c0.92,0,1.841,0,2.761,0c0,0.053,0,0.106,0,0.16c0.909-0.01,1.536,0.395,2.081,0.76
	c1.406,0.942,2.037,1.686,2.521,3.562c0.115,0.445,0.297,1.494,0.16,2.121c-0.099,0.451-0.066,0.915-0.2,1.361
	c-0.838,2.805-2.462,5.728-4.522,7.284c-0.133,0.146-0.267,0.293-0.4,0.44c-0.997,0.742-1.945,1.474-3.242,1.921
	c-0.386,0.133-0.896,0.355-1.321,0.48c-0.146,0-0.293,0-0.44,0c-1.04,0.242-2.666,0.149-3.522-0.16c-0.2-0.04-0.4-0.08-0.6-0.12
	c-2.182-1.088-3.562-2.471-3.562-5.763c0.027-0.507,0.054-1.014,0.08-1.521c0.219-0.855,0.373-1.704,0.681-2.481
	c0.774-1.961,2.115-3.425,3.521-4.762c1.594-1.516,3.454-2.706,6.003-3.162C352.52,144.777,352.52,144.737,352.52,144.697z
	 M354.16,145.738c-0.219,0.131-1.187,0.069-1.521,0.16c-0.795,0.215-1.925,0.598-2.561,1c-2.77,1.752-5.114,3.967-6.163,7.443
	c-0.478,1.583-0.721,3.36,0.12,4.803c0.091,0.156,0.101,0.33,0.2,0.48c0.488,0.73,1.283,1.219,2.041,1.681
	c0.2,0.054,0.4,0.107,0.601,0.16c2.051,0.884,4.192-0.057,5.603-1c2.656-1.776,4.727-4.184,5.923-7.403
	c0.838-2.255,0.204-4.476-1.081-5.763C356.473,146.448,355.497,146.11,354.16,145.738z"/>
<path fill="#FFFFFF" d="M170.23,173.591c0.378,0.159,0.456,0.427,0.72,0.681c0.009,0.871-0.467,1.439-0.52,2.241
	c0.102,0.055,0.14,0.076,0.32,0.08c0.349-0.231,0.92-0.122,1.401-0.24c0.729-0.179,1.667-0.296,2.401-0.48c0.173,0,0.347,0,0.52,0
	c0.607-0.169,1.445-0.287,2.081-0.44c0.293-0.026,0.587-0.053,0.88-0.08c1.965-0.518,4.197-0.64,6.163-1.121
	c0.327-0.08,0.587-0.002,0.88-0.08c0.486-0.129,1.107-0.141,1.641-0.28c0.257-0.067,0.834-0.271,1.201-0.16
	c0.221,0.067,0.569,0.372,0.601,0.641c0.153,0.235,0.013,1.38-0.04,1.601c-0.027,0-0.054,0-0.08,0
	c-0.428,0.263-1.151,0.126-1.681,0.28c-0.941,0.272-2.083,0.322-3.042,0.56c-0.32,0.027-0.64,0.054-0.96,0.08
	c-1.493,0.389-3.266,0.495-4.762,0.88c-0.227,0.013-0.454,0.027-0.68,0.04c-0.349,0.081-0.774,0.157-1.121,0.24
	c-0.213,0.013-0.427,0.027-0.64,0.04c-0.675,0.193-1.554,0.276-2.241,0.44c-0.147,0-0.293,0-0.44,0
	c-0.903,0.218-1.91,0.47-2.961,0.48c-0.57,0.945-0.597,2.327-1,3.442c-0.075,0.208-0.337,1.025-0.28,1.161
	c0.051,0.129,0.036,0.105,0.2,0.12c0.237-0.269,0.81-0.16,1.201-0.28c0.973-0.298,2.036-0.372,3.082-0.641
	c3.3-0.847,6.761-1.324,10.125-2.121c0.671-0.159,1.436-0.307,2.081-0.48c0.173-0.014,0.347-0.027,0.52-0.04
	c0.227-0.059,0.716-0.287,0.92-0.2c0.291,0.057,0.495,0.381,0.681,0.56c0.02,0.603,0.213,1.75-0.4,1.761
	c-0.087,0.051-0.227,0.006-0.36,0.04c-0.194,0.048-0.417,0.148-0.6,0.2c-0.173,0.014-0.347,0.027-0.52,0.04
	c-0.612,0.152-1.402,0.326-2.001,0.48c-0.545,0.141-0.976,0.104-1.521,0.24c-3.257,0.81-6.76,1.278-10.005,2.121
	c-1.057,0.274-2.139,0.342-3.122,0.64c-0.307,0.04-0.614,0.08-0.92,0.12c-0.324,0.208-0.264,0.829-0.4,1.241
	c-0.313,0.945-0.598,2.053-0.881,3.001c-0.013,0.16-0.026,0.32-0.04,0.48c-0.639,2.121-1.133,4.458-1.841,6.563
	c-0.013,0.146-0.026,0.293-0.04,0.44c-0.1,0.362-0.271,0.885-0.4,1.241c-0.072,0.196-0.017,0.345-0.08,0.561
	c-0.119,0.402-0.307,0.964-0.44,1.36c-0.159,0.474-0.137,0.846-0.28,1.321c-0.128,0.424-0.344,0.868-0.36,1.4
	c0.102,0.055,0.14,0.077,0.32,0.08c0.33-0.238,0.993-0.039,1.44-0.16c0.848-0.23,1.967-0.241,2.841-0.44
	c0.28-0.013,0.561-0.027,0.84-0.04c1.425-0.339,2.933-0.304,4.322-0.64c0.307-0.014,0.614-0.027,0.92-0.04
	c0.225-0.051,0.509-0.108,0.72-0.16c0.387-0.027,0.774-0.054,1.161-0.08c1.192-0.274,2.645-0.346,3.842-0.48
	c0.063-0.007,0.224-0.104,0.28-0.12c0.379-0.104,0.706,0.015,1.121-0.08c0.403-0.092,0.831-0.191,1.281-0.2
	c0.146,0.209,0.416,0.418,0.6,0.6c0.004,0.529,0.051,1.18-0.04,1.641c-0.04,0.013-0.08,0.026-0.12,0.04
	c-0.187,0.111-0.527,0.023-0.76,0.08c-0.748,0.185-1.782,0.204-2.521,0.4c-0.293,0.013-0.587,0.027-0.88,0.04
	c-2.014,0.464-4.359,0.445-6.363,0.92c-0.293,0.013-0.587,0.027-0.88,0.04c-0.299,0.066-0.687,0.128-0.96,0.2
	c-0.293,0.013-0.587,0.026-0.88,0.04c-0.79,0.176-1.813,0.203-2.602,0.4c-0.354,0.089-0.624-0.003-1,0.08
	c-0.747,0.166-1.685,0.175-2.441,0.36c-0.312,0.077-0.863-0.014-1.041,0.2c-0.173,0.288-0.093,0.813-0.4,0.96
	c-0.144,0.082-1.556-0.019-1.641-0.08c-0.187-0.135-0.243-0.459-0.44-0.601c-0.323-0.231-0.719-0.292-0.84-0.72
	c0-0.48,0-0.96,0-1.44c0.383-0.208,1.081-0.295,1.521-0.4c0.621-2.415,1.292-4.891,2.001-7.244c0.013-0.16,0.026-0.32,0.04-0.48
	c0.556-1.662,0.92-3.451,1.401-5.203c0.192-0.7,0.397-1.524,0.64-2.201c0.112-0.312,0.094-0.628,0.2-0.92
	c0.067-0.185,0.339-1.109,0.32-1.161c-0.055-0.139-0.091-0.123-0.28-0.12c-0.121,0.086-0.567,0.184-0.72,0.08
	c-0.195-0.057-0.491-0.299-0.561-0.48c-0.126-0.199-0.044-1.307-0.04-1.641c0.524-0.28,1.901-0.3,2.281-0.6
	c0.267-0.309,0.204-0.81,0.36-1.241c0.196-0.539,0.401-1.228,0.6-1.761c0.027-0.187,0.054-0.374,0.08-0.561
	c0.099-0.277,0.262-0.509,0.28-0.92c-0.107-0.037-0.277-0.042-0.44-0.04c-0.563,0.403-1.011-0.176-1.28-0.44
	c-0.008-0.591-0.004-1.279,0.12-1.761c0.379-0.171,0.883-0.108,1.36-0.24c0.223-0.062,0.481-0.149,0.8-0.16
	c0.202-0.385,0.203-0.809,0.36-1.281c0.123-0.367,0.328-0.875,0.44-1.241c0.122-0.397,0.05-0.83,0.56-0.84
	C169.357,173.543,169.962,173.758,170.23,173.591z"/>
<path fill="#FFFFFF" d="M269.879,173.591c0.389,0.12,1.014-0.103,1.44,0.04c0.209,0.07,0.281,0.274,0.4,0.44
	c0.11,0.154,0.192,0.15,0.2,0.44c-0.106,0.149-0.055,0.352-0.12,0.561c-0.106,0.336-0.28,0.869-0.4,1.201
	c-0.027,0.213-0.053,0.427-0.08,0.64c-0.427,1.205-0.695,2.636-1.121,3.842c-0.027,0.213-0.053,0.427-0.08,0.64
	c-0.442,1.213-0.703,2.658-1.121,3.882c-0.013,0.16-0.026,0.32-0.04,0.48c-1.362,4.17-2.218,8.688-3.521,12.886
	c-0.152,0.49-0.135,0.87-0.28,1.361c-0.467,1.579-0.932,3.343-1.4,4.922c-0.145,0.485-0.262,1.846-0.641,2.001
	c-0.117,0.066-1.139,0.005-1.44,0c-0.25-0.553-0.636-1.137-0.96-1.641c-0.34-0.529-0.506-1.146-0.84-1.681
	c-0.536-0.858-1.046-1.813-1.561-2.682c-0.059-0.099-0.022-0.213-0.08-0.32c-0.095-0.175-0.293-0.391-0.4-0.561
	c-0.144-0.228-0.157-0.427-0.28-0.68c-0.034-0.068-0.161-0.138-0.2-0.2c-0.152-0.242-0.18-0.469-0.32-0.72
	c-0.09-0.161-0.316-0.411-0.4-0.561c-0.059-0.105-0.022-0.222-0.08-0.32c-0.268-0.452-0.563-0.951-0.84-1.401
	c-0.04-0.12-0.08-0.24-0.12-0.36c-1.669-2.985-3.381-5.959-4.962-9.044c-0.032-0.062-0.162-0.137-0.2-0.2
	c-0.215-0.359-0.304-0.719-0.521-1.08c-0.038-0.063-0.168-0.139-0.2-0.2c-0.014-0.08-0.027-0.16-0.04-0.24
	c-0.188-0.321-0.462-0.678-0.641-1c-0.04-0.133-0.08-0.267-0.12-0.4c-0.413-0.664-0.86-1.348-1.161-2.121
	c-0.04-0.013-0.08-0.026-0.12-0.04c-0.243,0.451-0.418,1.156-0.561,1.681c-0.013,0.133-0.026,0.267-0.04,0.4
	c-0.496,1.361-0.722,2.838-1.161,4.282c-0.644,2.121-1.14,4.429-1.841,6.523c-0.026,0.2-0.053,0.4-0.08,0.6
	c-0.334,0.921-0.564,2.036-0.88,2.961c-0.013,0.147-0.027,0.293-0.04,0.44c-0.297,1.006-0.596,2.157-0.92,3.162
	c-0.013,0.133-0.026,0.267-0.04,0.4c-0.121,0.398-0.328,0.945-0.44,1.361c-0.014,0.146-0.027,0.293-0.04,0.44
	c-0.234,0.666-0.478,1.519-0.681,2.201c-0.098,0.331-0.188,1.3-0.4,1.441c-0.163,0.108-1.411,0.064-1.721,0
	c-0.145-0.28-0.46-0.454-0.52-0.8c0.215-0.294,0.14-0.638,0.28-1.041c0.169-0.486,0.28-1.008,0.44-1.561
	c0.368-1.272,0.708-2.668,1.121-3.922c0.178-0.541,0.167-1.065,0.36-1.601c0.229-0.636,0.442-1.436,0.64-2.081
	c0.027-0.2,0.054-0.4,0.08-0.6c0.439-1.199,0.752-2.623,1.121-3.842c0.013-0.146,0.027-0.293,0.04-0.44
	c0.126-0.404,0.329-0.949,0.44-1.361c0.013-0.147,0.026-0.293,0.04-0.44c0.503-1.349,0.742-2.834,1.161-4.282
	c0.374-1.29,0.762-2.724,1.161-4.002c0.151-0.484,0.134-0.867,0.28-1.36c0.131-0.443,0.365-1.023,0.48-1.481
	c0.129-0.511-0.282-0.854-0.44-1.12c-0.04-0.12-0.08-0.24-0.12-0.36c-0.053-0.04-0.107-0.08-0.16-0.12c0-0.053,0-0.106,0-0.16
	c-0.085-0.204-0.284-0.42-0.4-0.6c-0.04-0.12-0.08-0.24-0.12-0.36c-0.183-0.328-0.494-0.6-0.521-1.081
	c0.168-0.179,0.249-0.487,0.44-0.64c0.271-0.208,1.208-0.086,1.641-0.08c0.095,0.165,0.406,0.783,0.561,0.84
	c0.099-0.175,0.217-0.427,0.28-0.64c0.05-0.171-0.013-0.322,0.08-0.44c0.088-0.112,1.448-0.273,1.681-0.12
	c0.283,0.106,0.399,0.482,0.6,0.681c-0.112,0.479-0.308,1.035-0.44,1.48c-0.141,0.476-0.124,0.845-0.28,1.321
	c-0.067,0.205-0.31,0.537-0.24,0.84c0.095,0.418,0.69,1.231,0.92,1.601c0.334,0.537,0.508,1.08,0.8,1.641
	c0.398,0.765,0.919,1.575,1.361,2.321c0.058,0.098,0.021,0.215,0.08,0.32c0.176,0.315,0.46,0.677,0.64,1
	c0.152,0.273,0.192,0.538,0.36,0.8c0.373,0.584,0.723,1.245,1.08,1.841c0.141,0.234,0.169,0.489,0.32,0.72
	c1.559,2.382,2.691,5.111,4.202,7.524c0.142,0.226,0.148,0.441,0.28,0.68c0.035,0.063,0.161,0.135,0.2,0.2
	c0.026,0.093,0.053,0.187,0.08,0.28c0.188,0.301,0.414,0.662,0.601,0.96c0.04,0.12,0.08,0.24,0.12,0.36
	c0.438,0.668,0.771,1.388,1.161,2.121c0.107,0.201,0.34,0.445,0.44,0.64c0.167,0.323,0.593,1.47,0.92,1.521c0-0.027,0-0.054,0-0.08
	c0.233-0.389,0.167-0.899,0.32-1.361c0.412-1.237,0.703-2.679,1.121-3.922c0.013-0.147,0.027-0.293,0.04-0.44
	c1.101-3.702,2.019-7.61,3.082-11.325c0.411-1.438,0.632-2.895,1.121-4.242c0.026-0.187,0.053-0.374,0.08-0.561
	c0.045-0.146,0.158-0.326,0.2-0.48c0.014-0.16,0.027-0.32,0.04-0.48c0.424-1.271,0.776-2.749,1.161-4.042
	c0.15-0.503,0.229-1.657,0.561-1.921C269.79,173.644,269.849,173.619,269.879,173.591z"/>
<path fill="#FFFFFF" d="M376.211,173.591c0.367,0.065,1.118-0.081,1.481,0.04c0.277,0.092,0.409,0.451,0.6,0.641
	c0.008,0.52-0.2,0.926-0.32,1.32c-0.146,0.475-0.116,0.841-0.28,1.321c-0.131,0.384-0.328,0.933-0.44,1.321
	c-0.013,0.146-0.026,0.293-0.04,0.44c-0.05,0.137-0.158,0.314-0.2,0.48c-0.014,0.146-0.027,0.293-0.04,0.44
	c-0.651,1.779-1.037,3.832-1.601,5.643c-0.013,0.146-0.026,0.293-0.04,0.44c-0.114,0.384-0.317,0.949-0.44,1.321
	c-0.014,0.16-0.027,0.32-0.04,0.48c-0.655,2.165-1.255,4.512-1.881,6.684c-0.014,0.147-0.027,0.293-0.04,0.44
	c-0.115,0.346-0.284,0.854-0.4,1.2c-0.026,0.2-0.053,0.4-0.08,0.601c-0.34,0.935-0.681,1.914-1.121,2.721
	c-0.074,0.136-0.042,0.278-0.12,0.4c-1.916,3-3.883,5.077-7.283,6.603c-0.233,0.104-0.552,0.345-0.801,0.44
	c-1.553,0.599-3.323,1-5.322,1c-0.774-0.014-1.547-0.027-2.321-0.04c-0.563-0.13-1.184-0.276-1.681-0.44
	c-0.147-0.027-0.293-0.053-0.44-0.08c-0.811-0.397-1.633-0.721-2.401-1.161c-0.054-0.066-0.107-0.133-0.16-0.2
	c-0.273-0.185-0.533-0.294-0.801-0.48c-0.174-0.122-0.31-0.352-0.48-0.48c-1.453-1.095-2.514-2.542-3.162-4.442
	c-0.013-0.173-0.026-0.347-0.04-0.521c-0.405-1.721,0.076-3.1,0.48-4.522c0.91-3.201,1.664-6.433,2.601-9.564
	c0.013-0.147,0.027-0.294,0.04-0.44c0.109-0.348,0.284-0.844,0.4-1.201c0.026-0.187,0.053-0.374,0.08-0.56
	c0.23-0.642,0.428-1.439,0.64-2.081c0.027-0.2,0.053-0.4,0.08-0.601c0.243-0.667,0.485-1.523,0.68-2.201
	c0.013-0.146,0.027-0.293,0.04-0.44c0.114-0.344,0.292-0.854,0.4-1.201c0.087-0.282-0.028-0.499,0.24-0.6
	c0.266-0.205,1.176-0.086,1.601-0.08c0.212,0.294,0.552,0.415,0.56,0.92c-0.186,0.255-0.133,0.517-0.24,0.88
	c-0.112,0.383-0.315,0.944-0.44,1.321c-0.013,0.16-0.026,0.32-0.04,0.48c-0.37,1.218-0.688,2.639-1.121,3.842
	c-0.197,0.548-0.163,1.058-0.36,1.601c-0.219,0.603-0.4,1.345-0.601,1.961c-0.027,0.187-0.053,0.374-0.08,0.56
	c-0.455,1.248-0.786,2.724-1.161,4.002c-0.063,0.215-0.006,0.365-0.08,0.561c-0.032,0.083-0.131,0.215-0.16,0.32
	c-0.013,0.147-0.027,0.293-0.04,0.44c-0.218,0.644-0.441,1.432-0.64,2.081c-0.027,0.187-0.054,0.374-0.081,0.561
	c-0.261,0.721-0.555,1.6-0.64,2.441c-0.022,0.217,0.072,0.714,0.12,0.88c0.04,0.293,0.08,0.587,0.12,0.88
	c0.223,0.626,0.591,1.255,0.96,1.761c0.106,0.093,0.213,0.187,0.32,0.28c0.979,1.294,2.633,2.277,4.282,2.881
	c0.133,0.014,0.267,0.027,0.4,0.04c0.196,0.063,0.474,0.188,0.68,0.24c0.16,0,0.32,0,0.48,0c0.505,0.114,1.212,0.12,1.881,0.12
	c0.213,0,0.427,0,0.64,0c0.711-0.192,1.496-0.159,2.201-0.36c3.96-1.128,6.601-3.395,8.564-6.523c0.139-0.223,0.171-0.506,0.28-0.76
	c0.098-0.229,0.287-0.574,0.4-0.801c0.04-0.187,0.08-0.374,0.12-0.56c0.249-0.63,0.439-1.425,0.64-2.081
	c0.158-0.516,0.15-0.935,0.32-1.441c0.203-0.604,0.385-1.371,0.6-1.961c0.027-0.2,0.053-0.4,0.08-0.6
	c0.834-2.7,1.492-5.624,2.321-8.324c0.153-0.499,0.128-0.86,0.28-1.361c0.386-1.277,0.805-2.714,1.16-4.001
	C375.562,175.675,375.735,174.128,376.211,173.591z"/>
<path fill="#FFFFFF" d="M397.261,173.671c2.246,0.048,4.24,0.255,5.963,0.76c0.146,0.014,0.293,0.027,0.44,0.04
	c0.313,0.098,0.793,0.26,1.081,0.4c0.382,0.187,1.216,0.219,1.401,0.56c0.106,0.197,0,0.623,0,0.921c0,0.215,0.072,0.48,0,0.6
	c-0.092,0.288-0.512,0.594-0.88,0.6c-0.415-0.361-1.502-0.518-2.121-0.72c-2.951-0.965-7.457-1.142-10.646-0.24
	c-0.146,0.014-0.293,0.027-0.44,0.04c-0.138,0.046-0.29,0.158-0.44,0.2c-0.133,0.014-0.267,0.027-0.4,0.04
	c-1.534,0.576-3.055,1.251-4.322,2.121c-0.385,0.265-0.747,0.644-1.121,0.92c-0.496,0.367-0.99,0.751-1.361,1.241
	c-0.24,0.227-0.48,0.454-0.72,0.68c-0.28,0.377-0.522,0.726-0.8,1.121c-0.103,0.145-0.311,0.288-0.4,0.44
	c-0.325,0.554-0.661,1.136-0.92,1.721c-0.027,0.133-0.053,0.267-0.08,0.4c-0.632,1.375-1.029,3.205-0.92,5.202
	c0.045,0.831-0.012,1.549,0.16,2.241c0.275,1.107,0.38,2.137,0.76,3.082c0.027,0.147,0.053,0.293,0.08,0.44
	c1.621,3.907,3.957,6.584,8.124,7.964c0.104,0.034,0.261,0.163,0.36,0.2c0.2,0.026,0.4,0.053,0.6,0.08
	c1.486,0.469,3.786,0.36,5.243-0.041c0.133-0.013,0.267-0.026,0.4-0.04c0.12-0.044,0.31-0.16,0.44-0.2
	c0.12-0.013,0.24-0.027,0.36-0.04c0.735-0.335,1.511-0.711,2.161-1.121c0.094-0.027,0.187-0.053,0.28-0.08
	c1.002-0.646,1.929-1.416,2.841-2.161c0.198-0.162,0.365-0.474,0.561-0.64c0.875-0.745,1.504-1.674,2.161-2.642
	c0.321-0.474,0.715-0.973,0.96-1.521c0.299-0.667,0.596-1.353,0.88-2.041c0.108-0.262,0.011-0.499,0.28-0.6
	c0.167-0.128,1.266-0.052,1.561-0.041c0.146,0.237,0.363,0.561,0.56,0.761c-0.072,0.297-0.271,0.695-0.4,0.96
	c-0.161,0.333-0.156,0.636-0.32,0.96c-0.325,0.641-0.699,1.334-1.081,1.921c-0.217,0.334-0.338,0.677-0.56,1
	c-0.266,0.388-0.647,0.746-0.92,1.121c-0.885,1.211-1.966,2.384-3.202,3.242c-0.244,0.169-0.437,0.472-0.68,0.64
	c-0.285,0.197-0.559,0.327-0.841,0.52c-0.081,0.056-0.15,0.191-0.24,0.24c-0.694,0.38-1.362,0.839-2.081,1.161
	c-0.563,0.252-1.146,0.422-1.681,0.681c-0.12,0.013-0.24,0.026-0.36,0.04c-0.221,0.058-0.441,0.184-0.641,0.24
	c-0.106,0-0.213,0-0.32,0c-1.902,0.461-4.684,0.405-6.403-0.2c-0.146-0.013-0.293-0.026-0.44-0.04c-0.129-0.039-0.273-0.157-0.4-0.2
	c-0.147-0.027-0.293-0.054-0.44-0.08c-0.343-0.168-0.703-0.274-1.08-0.44c-0.87-0.383-1.704-0.932-2.481-1.44
	c-0.325-0.213-0.576-0.57-0.88-0.801c-1.617-1.223-2.635-3.002-3.722-4.762c-0.183-0.297-0.201-0.606-0.36-0.92
	c-0.479-0.947-0.824-2.12-1.121-3.242c-0.25-0.948-0.207-2.034-0.44-3.001c0-0.427,0-0.854,0-1.281c-0.049-0.231-0.021-0.608,0-0.84
	c0-0.333,0-0.667,0-1c0.107-0.422,0.084-0.937,0.2-1.4c0.12-0.483,0.286-1.086,0.44-1.521c0.013-0.12,0.026-0.24,0.04-0.36
	c0.027-0.08,0.133-0.181,0.16-0.24c0.07-0.155,0.011-0.285,0.08-0.44c0.089-0.202,0.174-0.442,0.28-0.68
	c1.846-4.147,5.491-7.064,9.605-8.964c1.229-0.568,2.678-0.845,4.082-1.201c0.146,0,0.293,0,0.44,0c0.26-0.061,0.629-0.137,0.88-0.2
	c0.654-0.027,1.308-0.053,1.961-0.08C396.659,173.711,397.1,173.772,397.261,173.671z"/>
<path fill="#FFFFFF" d="M127.489,194.802c-0.083-0.015-0.077-0.009-0.12-0.04c0.04,0,0.08,0,0.12,0c0-0.066,0-0.133,0-0.2
	c-0.04,0-0.08,0-0.12,0c0-1.347,0-2.694,0-4.042c0.083-0.015,0.077-0.01,0.12-0.04c-0.04,0-0.08,0-0.12,0c0-0.067,0-0.134,0-0.2
	c0.04,0,0.08,0,0.12,0c0-0.027,0-0.053,0-0.08c0.176-0.282,0.031-0.741,0.12-1.121c0.082-0.346,0.163-0.756,0.24-1.081
	c0-0.12,0-0.24,0-0.36c0.337-1.403,0.701-2.704,1.201-3.922c0.157-0.383,0.427-0.789,0.64-1.121c0.04-0.12,0.08-0.24,0.12-0.36
	c0.4-0.641,0.867-1.276,1.321-1.881c0.209-0.279,0.557-0.482,0.76-0.761c0.605-0.828,1.446-1.441,2.281-2.041
	c1.764-1.267,3.71-2.366,6.043-3.082c0.972-0.298,2.036-0.37,3.042-0.64c0.227-0.013,0.454-0.027,0.68-0.04
	c0.734-0.159,1.679-0.08,2.521-0.08c2.216,0,4.062,0.204,5.723,0.72c0.146,0.014,0.293,0.027,0.44,0.04
	c0.346,0.115,0.822,0.313,1.161,0.44c0.293,0.11,0.785,0.105,0.92,0.36c0.072,0.107,0.071,1.453,0,1.561
	c-0.093,0.26-0.424,0.338-0.6,0.521c-0.559,0.034-1.158-0.287-1.641-0.48c-0.12-0.013-0.24-0.026-0.36-0.04
	c-0.495-0.148-1.149-0.341-1.681-0.48c-0.253-0.027-0.507-0.054-0.761-0.08c-1.879-0.499-5.212-0.384-7.003,0.08
	c-0.2,0.013-0.4,0.026-0.6,0.04c-0.951,0.271-1.923,0.583-2.761,0.92c-0.307,0.124-0.555,0.125-0.84,0.28
	c-3.255,1.765-6.048,3.952-7.484,7.524c-0.427,1.061-0.61,2.28-0.92,3.441c-0.027,0.347-0.053,0.694-0.08,1.041
	c-0.33,1.424-0.359,4.712,0,6.123c0.013,0.253,0.027,0.507,0.04,0.761c0.436,1.743,0.887,3.344,1.681,4.722
	c0.901,1.564,2.477,2.982,4.242,3.682c0.173,0.027,0.347,0.054,0.521,0.08c2.361,0.776,6.307,0.25,8.324-0.56
	c4.336-1.741,7.797-5.567,9.485-9.965c0.666-1.736,1.371-4.111,0.88-6.644c-0.027,0-0.053,0-0.08,0
	c-0.158-0.085-0.753,0.021-0.96,0.08c-0.701,0.2-1.585,0.233-2.281,0.4c-0.16,0-0.32,0-0.48,0c-2.229,0.542-4.773,0.623-7.003,1.161
	c-0.16,0-0.32,0-0.48,0c-0.243,0.058-0.62,0.143-0.84,0.2c-0.227,0.014-0.454,0.027-0.68,0.04c-0.382,0.087-0.8,0.156-1.161,0.24
	c-0.359,0.084-0.62-0.013-0.96,0.08c-0.949,0.26-2.175,0.217-3.122,0.521c-0.226,0.072-0.851,0.219-1.081,0.08
	c-0.729-0.245-0.62-1.037-0.6-2.001c0.162-0.178,0.145-0.25,0.52-0.24c0.315-0.208,0.932-0.085,1.321-0.2
	c0.993-0.294,2.213-0.298,3.201-0.561c0.227-0.013,0.454-0.026,0.681-0.04c2.31-0.556,4.904-0.653,7.204-1.201c0.16,0,0.32,0,0.48,0
	c0.352-0.084,0.759-0.158,1.121-0.24c0.24-0.013,0.48-0.027,0.72-0.04c0.59-0.162,1.445-0.239,2.041-0.4
	c0.333-0.026,0.667-0.053,1-0.08c0.89-0.227,1.883-0.43,2.922-0.44c0.231,0.346,0.669,0.531,0.68,1.081
	c0.142,0.215,0.022,0.42,0.08,0.68c0.12,0.542,0.127,1.143,0.24,1.681c-0.014,0.16-0.027,0.32-0.041,0.48
	c0.185,0.99,0.015,2.282-0.2,3.122c-0.014,0.2-0.027,0.4-0.04,0.6c-0.111,0.386-0.314,0.918-0.44,1.281
	c-0.027,0.16-0.053,0.32-0.08,0.48c-0.251,0.513-0.411,1.12-0.68,1.641c-0.195,0.378-0.497,0.811-0.68,1.201
	c-1.995,4.249-5.816,7.732-10.405,9.404c-1.016,0.37-2.15,0.472-3.282,0.721c-0.653,0.013-1.307,0.026-1.961,0.04
	c-0.846,0-2.228,0.136-2.961-0.04c-0.458-0.11-1.036-0.289-1.44-0.44c-0.12-0.013-0.24-0.027-0.36-0.04
	c-0.094-0.034-0.191-0.165-0.28-0.2c-0.106-0.013-0.213-0.026-0.32-0.04c-0.1-0.046-0.208-0.193-0.32-0.24c-0.053,0-0.107,0-0.16,0
	C130.43,204.723,127.761,199.936,127.489,194.802z"/>
<path fill="#FFFFFF" d="M216.133,173.711c0.431-0.013,0.711,0.16,0.88,0.4c0.138,0.178,0.125,1.649,0.08,1.761
	c-0.445,0.183-0.943,0.138-1.48,0.28c-1.469,0.389-3.171,0.546-4.643,0.92c-0.213,0.013-0.427,0.026-0.64,0.04
	c-1.469,0.396-3.167,0.547-4.642,0.92c-0.134,0-0.267,0-0.4,0c-0.869,0.204-1.861,0.497-2.841,0.52
	c-0.495,0.811-0.552,1.886-0.88,2.882c-0.396,1.198-0.684,2.565-1.081,3.762c-0.173,0.521-0.141,0.953-0.32,1.48
	c-0.466,1.374-0.727,2.826-1.161,4.282c-1.083,3.64-1.999,7.485-3.082,11.125c-0.43,1.447-0.663,2.931-1.161,4.282
	c-0.112,0.304-0.094,0.625-0.2,0.88c-0.364,0.166-1.444,0.129-1.881,0.04c-0.12-0.173-0.24-0.347-0.36-0.52
	c-0.017-0.74,0.313-1.328,0.48-1.921c0.421-1.496,0.736-2.992,1.201-4.402c0.014-0.16,0.027-0.32,0.04-0.48
	c0.392-1.216,0.715-2.627,1.121-3.842c0.027-0.2,0.053-0.4,0.08-0.6c0.336-0.92,0.544-2.042,0.88-2.961
	c0.027-0.2,0.053-0.4,0.08-0.601c0.641-1.886,1.08-3.898,1.601-5.883c0.437-1.664,0.957-3.448,1.441-5.083
	c0.013-0.16,0.027-0.32,0.04-0.48c0.094-0.27,0.473-1.14,0.32-1.36c-0.052-0.035-0.099-0.036-0.2-0.04
	c-0.215,0.136-0.502,0.049-0.8,0.12c-0.221,0.053-0.48,0.148-0.681,0.2c-0.227,0.013-0.454,0.026-0.68,0.04
	c-1.442,0.374-3.134,0.521-4.563,0.921c-0.231,0.064-0.486,0.025-0.68,0.08c-0.516,0.145-1.137,0.178-1.641,0.32
	c-0.173,0.049-0.451,0.127-0.601,0.04c-0.307-0.105-0.438-0.388-0.64-0.6c-0.006-0.525-0.023-1.158,0.08-1.561
	c1.836-0.424,3.906-0.631,5.723-1.121c0.213-0.013,0.427-0.026,0.641-0.04c0.939-0.253,2.113-0.381,3.042-0.64
	c0.293-0.026,0.587-0.053,0.88-0.08c1.393-0.391,3.019-0.48,4.402-0.88c0.227-0.013,0.454-0.027,0.681-0.04
	c1.432-0.391,3.125-0.553,4.562-0.92c0.24-0.013,0.48-0.027,0.72-0.04c1.427-0.396,3.119-0.559,4.563-0.92c0.133,0,0.267,0,0.4,0
	c0.298-0.07,0.626-0.169,0.921-0.24C215.877,173.717,216.037,173.773,216.133,173.711z"/>
<path fill="#FFFFFF" d="M236.623,173.711c0.331-0.005,1.444-0.085,1.641,0.04c0.241,0.085,0.313,0.359,0.48,0.521
	c0.011,0.415-0.113,0.598-0.2,0.88c-0.064,0.208-0.01,0.355-0.08,0.56c-0.216,0.627-0.435,1.423-0.641,2.041
	c-0.013,0.16-0.026,0.32-0.04,0.48c-0.041,0.144-0.159,0.314-0.2,0.44c-0.014,0.147-0.027,0.293-0.04,0.44
	c-0.475,1.535-0.89,3.226-1.361,4.762c-0.026,0.187-0.053,0.374-0.08,0.56c-0.134,0.409-0.328,0.954-0.44,1.361
	c-0.014,0.147-0.027,0.293-0.04,0.44c-0.742,2.406-1.304,5.013-2.081,7.403c-0.014,0.147-0.027,0.294-0.04,0.44
	c-0.125,0.406-0.315,0.957-0.44,1.361c-0.013,0.146-0.026,0.293-0.04,0.44c-0.546,1.806-0.976,3.825-1.601,5.603
	c-0.013,0.146-0.027,0.293-0.04,0.44c-0.043,0.154-0.153,0.334-0.2,0.48c-0.013,0.146-0.027,0.293-0.04,0.44
	c-0.412,1.428-0.909,2.951-1.241,4.442c-0.458,0.153-1.261,0.043-1.801,0.04c-0.16-0.2-0.32-0.4-0.48-0.601
	c0.011-0.481,0.276-1.006,0.4-1.4c0.014-0.147,0.027-0.293,0.04-0.44c0.115-0.385,0.315-0.945,0.44-1.32
	c0.013-0.16,0.026-0.32,0.04-0.48c0.104-0.342,0.276-0.856,0.4-1.201c0.027-0.187,0.054-0.374,0.08-0.56
	c0.486-1.568,0.938-3.31,1.401-4.882c0.142-0.481,0.117-0.89,0.28-1.361c0.92-2.657,1.487-5.594,2.321-8.284
	c0.014-0.146,0.027-0.293,0.04-0.44c0.194-0.654,0.412-1.441,0.641-2.081c0.026-0.2,0.053-0.4,0.08-0.601
	c0.315-0.915,0.562-2.013,0.881-2.921c0.013-0.146,0.026-0.293,0.04-0.44c0.08-0.213,0.16-0.427,0.24-0.641
	c0.014-0.146,0.027-0.293,0.04-0.44c0.233-0.627,0.411-1.445,0.641-2.081c0.026-0.2,0.053-0.4,0.08-0.601
	c0.298-0.843,0.561-1.786,0.761-2.721C236.521,173.797,236.578,173.759,236.623,173.711z"/>
<path fill="#FFFFFF" d="M312.02,173.711c0.139-0.005,0.321-0.013,0.4,0.04c0.206,0.064,0.55,0.323,0.56,0.601
	c0,0,0.079,1.323,0.08,1.44c-0.521,0.308-0.908,0.188-1.561,0.36c-0.596,0.157-1.401,0.287-2.001,0.44
	c-0.213,0.014-0.427,0.027-0.64,0.04c-1.467,0.389-3.168,0.549-4.643,0.92c-0.133,0-0.267,0-0.4,0
	c-0.294,0.071-0.623,0.17-0.92,0.24c-0.134,0-0.267,0-0.4,0c-0.585,0.148-1.388,0.291-1.961,0.44
	c-0.213,0.013-0.427,0.026-0.641,0.04c-0.477,0.117-0.973,0.266-1.561,0.28c-0.238,0.404-0.417,1.016-0.56,1.521
	c-0.014,0.133-0.027,0.267-0.04,0.4c-0.42,1.233-0.741,2.635-1.121,3.882c-0.013,0.146-0.027,0.293-0.04,0.44
	c-1.504,5.069-2.685,10.383-4.242,15.448c-0.156,0.507-0.154,0.932-0.32,1.44c-0.404,1.236-0.741,2.639-1.121,3.882
	c-0.141,0.463-0.203,1.708-0.68,1.761c-0.225,0.081-1.273,0.007-1.561,0c-0.122-0.176-0.384-0.387-0.44-0.601
	c-0.086-0.327,0.431-1.661,0.521-2c0.44-1.67,0.778-3.439,1.36-5.003c0.027-0.187,0.054-0.374,0.08-0.56
	c0.291-0.942,0.558-2.044,0.88-2.961c0.027-0.213,0.054-0.427,0.08-0.641c0.965-2.786,1.531-5.817,2.361-8.724
	c0.373-1.305,0.764-2.742,1.161-4.042c0.148-0.486,0.136-0.83,0.28-1.32c0.115-0.391,0.329-0.931,0.44-1.321
	c0.013-0.147,0.027-0.293,0.04-0.44c0.06-0.182,0.148-0.248,0.16-0.52c-0.097-0.052-0.113-0.072-0.28-0.08
	c-0.204,0.129-0.479,0.054-0.76,0.12c-0.226,0.053-0.493,0.148-0.68,0.2c-0.293,0.026-0.587,0.053-0.88,0.08
	c-0.97,0.29-2.147,0.392-3.122,0.641c-0.2,0.013-0.4,0.026-0.601,0.04c-0.523,0.13-1.248,0.264-1.761,0.4
	c-0.2,0.014-0.4,0.027-0.6,0.04c-0.389,0.095-0.774,0.23-1.241,0.24c-0.149-0.216-0.5-0.311-0.601-0.56c0-0.521,0-1.041,0-1.561
	c0.43-0.254,1.305-0.352,1.841-0.48c0.133,0,0.267,0,0.4,0c1.125-0.286,2.438-0.439,3.562-0.721c0.133,0,0.267,0,0.4,0
	c1.894-0.458,4.035-0.675,5.923-1.16c0.227-0.014,0.454-0.027,0.68-0.04c0.553-0.154,1.364-0.284,1.921-0.44
	c0.24-0.013,0.48-0.027,0.72-0.04c0.555-0.153,1.364-0.286,1.921-0.44c0.227-0.013,0.454-0.026,0.68-0.04
	c0.939-0.242,2.102-0.392,3.042-0.641c0.347-0.04,0.694-0.08,1.041-0.12c0.985-0.254,2.152-0.38,3.122-0.64c0.133,0,0.267,0,0.4,0
	c0.297-0.07,0.631-0.171,0.92-0.24C311.764,173.717,311.923,173.773,312.02,173.711z"/>
<path fill="#FFFFFF" d="M437.241,173.711c0.55-0.007,1.346-0.085,1.761,0.08c0.12,0.173,0.24,0.347,0.36,0.521
	c0.001,0.434-0.151,0.639-0.24,0.96c-0.241,0.868-0.434,1.676-0.681,2.481c-0.013,0.147-0.026,0.293-0.04,0.44
	c-0.075,0.256-0.485,0.755,0.04,0.8c0.141-0.104,1.093-0.385,1.321-0.24c0.26,0.088,0.427,0.339,0.6,0.521c0,0.507,0,1.014,0,1.521
	c-0.473,0.283-0.918,0.217-1.521,0.4c-0.384,0.117-0.916,0.262-1.321,0.36c-0.282,0.625-0.362,1.356-0.6,2.081
	c-0.305,0.927-0.538,1.995-0.84,2.921c-0.027,0.187-0.054,0.374-0.08,0.561c-0.323,0.946-0.54,2.062-0.88,3.001
	c-0.027,0.2-0.054,0.4-0.08,0.6c-0.32,0.943-0.541,2.065-0.88,3.001c-0.027,0.2-0.054,0.4-0.08,0.601
	c-0.708,2.085-1.223,4.443-1.841,6.563c-0.014,0.16-0.027,0.32-0.04,0.48c-0.294,0.943-0.572,2.048-0.881,3.001
	c-0.167,0.515-0.15,1.011-0.36,1.48c-0.203,0.026-1.51,0.07-1.681-0.04c-0.315-0.111-0.408-0.48-0.6-0.72
	c0.15-0.744,0.474-1.581,0.681-2.281c0.52-1.764,0.833-3.525,1.4-5.203c0.163-0.479,0.136-0.835,0.28-1.32
	c0.553-1.863,1.069-3.897,1.641-5.763c0.148-0.484,0.132-0.831,0.28-1.321c0.037-0.122,0.163-0.286,0.2-0.4
	c0.013-0.16,0.026-0.32,0.04-0.48c0.303-0.97,0.629-2.111,0.92-3.082c0.145-0.482,0.132-0.836,0.28-1.321
	c0.161-0.525,0.43-1.116,0.48-1.721c-0.102-0.055-0.14-0.077-0.32-0.08c-0.229,0.19-0.53,0.108-0.88,0.2
	c-0.474,0.125-1.129,0.303-1.601,0.44c-0.173,0.013-0.347,0.027-0.521,0.04c-2.909,0.828-6.087,1.343-9.004,2.121
	c-0.173,0.013-0.347,0.027-0.52,0.04c-0.789,0.21-1.75,0.407-2.521,0.64c-0.226,0.068-0.551-0.008-0.72,0.12
	c-0.181,0.138-0.299,1.213-0.4,1.521c-0.322,0.979-0.639,2.138-0.92,3.122c-0.135,0.473-0.116,0.869-0.28,1.32
	c-0.231,0.636-0.409,1.454-0.641,2.081c-0.026,0.2-0.053,0.4-0.08,0.601c-0.122,0.333-0.294,0.859-0.4,1.2
	c-0.014,0.147-0.027,0.294-0.04,0.44c-0.367,1.216-0.686,2.643-1.121,3.842c-0.027,0.187-0.054,0.374-0.08,0.561
	c-0.307,0.94-0.558,2.041-0.88,2.961c-0.027,0.213-0.053,0.427-0.08,0.64c-0.123,0.393-0.321,0.926-0.44,1.321
	c-0.206,0.684-0.27,1.349-0.52,1.961c-0.337,0.143-1.225,0.044-1.761,0.04c-0.112-0.175-0.292-0.41-0.44-0.56
	c-0.018-0.81,0.364-1.551,0.56-2.201c0.014-0.147,0.027-0.293,0.04-0.44c0.297-0.956,0.568-2.046,0.881-3.001
	c0.244-0.745,0.298-1.442,0.52-2.201c0.545-1.865,1.028-3.922,1.641-5.763c0.014-0.147,0.027-0.293,0.04-0.44
	c0.046-0.135,0.159-0.332,0.2-0.48c0.014-0.147,0.027-0.293,0.04-0.44c0.231-0.672,0.476-1.519,0.68-2.201
	c0.014-0.16,0.027-0.32,0.04-0.48c0.255-0.766,0.647-1.838,0.761-2.682c-0.04-0.013-0.08-0.026-0.12-0.04
	c-0.191-0.118-0.421,0.094-0.561,0.04c-0.218-0.053-0.526-0.284-0.6-0.48c-0.126-0.199-0.044-1.307-0.04-1.641
	c0.393-0.24,1.922-0.388,2.121-0.681c0.094-0.138,0.029-0.335,0.08-0.52c0.086-0.313,0.162-0.678,0.28-1.041
	c0.498-1.53,0.844-3.245,1.361-4.762c0.014-0.147,0.027-0.294,0.04-0.44c0.13-0.471,0.299-1.122,0.6-1.441
	c0.496,0.03,1.21-0.009,1.601,0.081c0.146,0.187,0.293,0.373,0.44,0.56c0.012,0.682-0.295,1.31-0.48,1.841
	c-0.027,0.213-0.053,0.427-0.08,0.64c-0.27,0.775-0.433,1.623-0.68,2.481c-0.18,0.624-0.494,1.25-0.521,2.001
	c0.04,0.013,0.08,0.027,0.12,0.04c0.223,0.119,0.943-0.162,1.161-0.24c0.16-0.013,0.32-0.026,0.48-0.04
	c0.802-0.21,1.781-0.362,2.562-0.64c0.268-0.096,0.549-0.034,0.84-0.12c1.133-0.335,2.473-0.549,3.602-0.88
	c0.24-0.027,0.48-0.053,0.721-0.08c1.123-0.344,2.459-0.559,3.602-0.88c0.173-0.014,0.347-0.027,0.521-0.04
	c0.686-0.191,1.465-0.458,2.241-0.521c0.376-0.634,0.421-1.463,0.681-2.241c0.377-1.131,0.729-2.355,1-3.562
	C437.139,173.797,437.196,173.759,437.241,173.711z"/>
<path fill="#FFFFFF" d="M331.83,173.711c0.823-0.013,1.897-0.128,2.641,0.04c0.213,0,0.427,0,0.641,0
	c0.876,0.213,1.768,0.41,2.561,0.72c0.095,0.038,0.191,0.16,0.28,0.2c0.264,0.118,0.487,0.133,0.721,0.28
	c0.063,0.04,0.131,0.163,0.2,0.2c2.42,1.313,3.984,3.402,5.002,6.123c0.248,0.662,0.252,1.654,0.4,2.281c0,0.681,0,1.361,0,2.041
	c0.029,0.161-0.047,0.252-0.08,0.4c-0.062,0.28,0.056,0.791-0.04,1.161c-0.172,0.667-0.266,1.443-0.48,2.121
	c-0.883,2.796-2.212,5.102-3.562,7.403c-0.089,0.152-0.297,0.296-0.4,0.44c-0.45,0.63-0.862,1.231-1.321,1.841
	c-0.163,0.216-0.447,0.381-0.6,0.601c-0.728,1.041-1.72,2.034-2.761,2.761c-0.206,0.143-0.36,0.41-0.561,0.56
	c-0.468,0.352-0.928,0.754-1.4,1.081c-0.7,0.484-1.447,0.903-2.161,1.361c-0.268,0.171-0.564,0.189-0.841,0.36
	c-2.737,1.689-7.832,2.244-11.325,0.881c-2.766-1.079-4.585-2.879-5.923-5.403c-0.027-0.12-0.054-0.24-0.08-0.36
	c-0.136-0.32-0.331-0.764-0.44-1.12c-0.026-0.187-0.053-0.374-0.08-0.561c-0.229-0.722-0.537-2.941-0.28-3.802
	c0-0.267,0-0.534,0-0.8c0.084-0.333,0.014-0.672,0.12-1.121c0.215-0.905,0.403-1.915,0.681-2.722c0.013-0.146,0.026-0.293,0.04-0.44
	c0.741-2.134,1.725-4.108,2.881-5.843c0.421-0.632,0.943-1.231,1.4-1.841c0.119-0.158,0.322-0.283,0.44-0.44
	c0.404-0.536,0.848-1.015,1.361-1.441c0.053-0.08,0.106-0.16,0.16-0.24c0.326-0.262,0.577-0.549,0.92-0.801
	c0.233-0.17,0.408-0.465,0.641-0.64c0.917-0.691,1.797-1.49,2.761-2.121c1.604-1.049,3.557-2.038,5.563-2.641
	c0.657-0.198,1.397-0.281,2.041-0.44C331.209,173.727,331.623,173.841,331.83,173.711z M332.03,175.993
	c-0.308,0.191-0.849,0.056-1.241,0.16c-0.458,0.121-1.055,0.307-1.481,0.44c-0.133,0.014-0.267,0.027-0.4,0.04
	c-1.376,0.515-2.669,1.18-3.882,1.881c-0.155,0.09-0.328,0.294-0.48,0.4c-0.817,0.57-1.578,1.13-2.361,1.721
	c-0.44,0.333-0.759,0.874-1.201,1.201c-0.766,0.567-1.43,1.359-2,2.121c-0.118,0.157-0.325,0.281-0.44,0.44
	c-0.441,0.605-0.83,1.198-1.241,1.841c-0.053,0.083-0.193,0.16-0.24,0.24c-0.827,1.428-1.504,2.959-2.121,4.602
	c-0.365,0.971-0.471,2.268-0.721,3.202c0,0.16,0,0.32,0,0.48c-0.176,0.827-0.077,2.501,0.12,3.162c0.04,0.307,0.08,0.614,0.12,0.92
	c0.142,0.414,0.299,0.899,0.48,1.321c0.715,1.665,2.184,2.911,3.722,3.762c1.146,0.634,4.012,1.504,5.923,1.041
	c0.253-0.013,0.507-0.026,0.76-0.04c0.786-0.19,1.602-0.401,2.281-0.68c0.133-0.027,0.267-0.053,0.4-0.08
	c0.238-0.111,0.559-0.332,0.801-0.44c1.224-0.548,2.063-1.175,3.082-1.881c3.411-2.363,5.768-5.621,7.924-9.245
	c0.583-0.98,0.978-2.208,1.44-3.281c0.014-0.12,0.027-0.24,0.04-0.36c0.146-0.477,0.355-1.082,0.48-1.601
	c0.013-0.213,0.026-0.427,0.04-0.641c0.355-1.415,0.173-3.323-0.24-4.522c-0.132-0.381-0.141-0.604-0.28-0.96
	c-0.149-0.381-0.463-0.794-0.68-1.121c-1.34-2.013-2.882-3.08-5.403-3.922C334.425,175.923,333.081,175.994,332.03,175.993z"/>
<path fill="#FFFFFF" d="M194.802,236.903c0,0.053,0,0.106,0,0.16c-0.053,0-0.106,0-0.16,0c-0.032-0.213-0.146-0.172-0.2-0.32
	c-0.123-0.334-0.079-1.084-0.16-1.441c0-0.24,0-0.48,0-0.72c-0.169-0.771-0.078-1.664-0.24-2.401c-0.013-0.44-0.026-0.88-0.04-1.32
	c-0.104-0.469-0.097-1.107-0.2-1.561c-0.013-0.48-0.026-0.96-0.04-1.44c-0.157-0.712-0.079-1.548-0.24-2.281
	c-0.014-0.387-0.027-0.774-0.04-1.161c-0.193-0.877-0.081-1.971-0.28-2.881c0-0.2,0-0.4,0-0.601c-0.086-0.379-0.07-0.947-0.16-1.36
	c0-0.213,0-0.427,0-0.641c-0.057-0.254-0.093-0.592-0.04-0.88c0.027,0,0.053,0,0.08,0c0.188-0.121,0.767-0.045,1.041-0.04
	c0.126,0.204,0.126,0.519,0.12,0.88c0.139,0.232,0.013,0.616,0.08,0.921c0.089,0.405,0.071,0.911,0.16,1.32c0,0.227,0,0.454,0,0.681
	c0.098,0.444,0.011,0.99,0.12,1.48c0.045,0.205,0.073,0.546,0.12,0.76c0,0.227,0,0.454,0,0.681c0.323,1.474,0.112,3.249,0.44,4.722
	c0,0.187,0,0.374,0,0.56c0.163,0.742,0.083,1.62,0.24,2.321c0.058,0.26-0.047,0.514,0.08,0.68c0.043,0.03,0.038,0.024,0.12,0.04
	c0.412-0.98,0.956-1.921,1.481-2.801c0.148-0.248,0.166-0.52,0.32-0.76c0.475-0.74,0.853-1.614,1.321-2.361
	c0.168-0.27,0.194-0.569,0.36-0.84c0.36-0.59,0.763-1.267,1.081-1.881c0.056-0.108,0.019-0.222,0.08-0.32
	c0.382-0.615,0.813-1.336,1.121-2.001c0.42-0.907,0.93-1.759,1.4-2.601c0.086-0.155,0.235-0.699,0.36-0.76c0.36,0,0.72,0,1.081,0
	c0.013,0.04,0.027,0.08,0.04,0.12c0.112,0.188,0.002,0.55,0,0.881c-0.006,0.735-0.008,1.651-0.16,2.321
	c-0.013,0.44-0.027,0.881-0.04,1.321c-0.077,0.347,0.015,0.907-0.04,1.201c-0.185,0.993-0.013,2.155-0.24,3.162
	c-0.013,0.56-0.026,1.121-0.04,1.681c-0.077,0.355,0.012,0.818-0.08,1.241c-0.105,0.486-0.229,1.524-0.04,1.961
	c0.04-0.013,0.081-0.027,0.12-0.04c0.044-0.354,0.281-0.632,0.44-0.88c0.098-0.152,0.105-0.326,0.2-0.48
	c0.331-0.543,0.655-1.147,1-1.681c0.04-0.12,0.08-0.24,0.12-0.36c0.173-0.325,0.453-0.681,0.64-1c0.013-0.08,0.027-0.16,0.04-0.24
	c0.087-0.168,0.293-0.396,0.4-0.561c0.04-0.12,0.08-0.24,0.12-0.36c0.181-0.325,0.469-0.673,0.64-1c0.013-0.08,0.026-0.16,0.04-0.24
	c0.035-0.063,0.161-0.135,0.2-0.2c0.215-0.357,0.306-0.722,0.52-1.081c0.121-0.203,0.331-0.429,0.44-0.64
	c0.013-0.08,0.026-0.16,0.04-0.24c0.435-0.772,0.978-1.579,1.4-2.361c0.271-0.502,0.455-1.044,0.76-1.521
	c0.119-0.185,0.294-0.401,0.4-0.601c0.124-0.231,0.281-0.778,0.521-0.88c0.374,0,0.747,0,1.12,0c0.041,0.032,0.011,0.014,0.08,0.04
	c0.014,0.04,0.027,0.08,0.04,0.12c0.133,0.231-0.41,0.938-0.52,1.121c-0.144,0.237-0.17,0.481-0.32,0.72
	c-0.494,0.789-0.988,1.666-1.44,2.481c-1.527,2.75-3.02,5.451-4.482,8.244c-0.171,0.326-0.467,0.675-0.64,1
	c-0.449,0.844-0.815,1.647-1.281,2.481c-0.314,0.563-0.713,1.124-1,1.721c-0.284,0.033-0.659,0.041-1,0.04
	c-0.043-0.07-0.101-0.145-0.16-0.2c0.015-0.884,0.02-2.236,0.2-3.042c0.106-0.473-0.011-0.993,0.08-1.401c0-0.32,0-0.641,0-0.96
	c0.121-0.55,0.042-1.234,0.16-1.761c0.026-0.854,0.053-1.707,0.08-2.561c0.118-0.541,0.004-1.076,0.08-1.521
	c0.113-0.667,0.252-1.703,0.12-2.401c-0.04,0-0.08,0-0.12,0c-0.146,0.402-0.345,0.666-0.521,1c-0.135,0.258-0.169,0.514-0.32,0.76
	c-0.097,0.158-0.273,0.356-0.36,0.521c-0.06,0.113-0.018,0.208-0.08,0.32c-0.186,0.335-0.458,0.708-0.641,1.041
	c-0.074,0.136-0.042,0.278-0.12,0.4c-0.193,0.306-0.429,0.686-0.601,1c-0.074,0.136-0.042,0.278-0.12,0.4
	c-1.104,1.72-1.927,3.714-2.961,5.482c-0.148,0.253-0.171,0.51-0.32,0.76c-0.365,0.612-0.712,1.307-1.081,1.921
	c-0.164,0.272-0.211,0.764-0.521,0.88C194.951,236.898,194.904,236.898,194.802,236.903z"/>
<path fill="#FFFFFF" d="M217.854,218.013c0.394-0.004,0.872-0.025,1.201,0.04c0.031,0.09,0.041,0.217,0.04,0.36
	c-0.251,0.405-0.208,0.947-0.36,1.441c-0.199,0.645-0.43,1.437-0.64,2.081c-0.026,0.187-0.053,0.374-0.08,0.561
	c-0.406,1.243-0.717,2.639-1.121,3.882c-0.04,0.24-0.08,0.48-0.12,0.72c-0.115,0.303-0.261,0.751-0.36,1.081
	c-0.013,0.133-0.027,0.267-0.04,0.4c-0.292,0.978-0.639,2.103-0.92,3.082c-0.34,1.182-0.532,2.338-0.92,3.441
	c-0.127,0.362-0.082,0.973-0.4,1.121c-0.32,0-0.64,0-0.96,0c-0.069-0.069-0.111-0.06-0.16-0.16c-0.108-0.163,0.095-0.885,0.16-1.08
	c0.341-1.027,0.52-2.072,0.84-3.162c0.88-2.991,1.593-6.2,2.562-9.165c0.026-0.187,0.053-0.374,0.08-0.561
	c0.226-0.694,0.472-1.55,0.68-2.241C217.528,219.207,217.551,218.539,217.854,218.013z"/>
<path fill="#FFFFFF" d="M233.261,218.013c0.273-0.004,0.587-0.003,0.8,0.04c0.073,0.215,0.043,0.599,0.04,0.88
	c-0.317,0.187-0.793,0.236-1.201,0.36c-0.16,0-0.32,0-0.48,0c-0.056,0.022-0.162,0.137-0.24,0.16c-0.187,0-0.374,0-0.56,0
	c-0.336,0.107-0.882,0.2-1.321,0.32c-0.16,0-0.32,0-0.48,0c-0.622,0.208-1.489,0.281-2.122,0.48c-0.173,0-0.347,0-0.52,0
	c-0.021,0.008-0.09,0.11-0.12,0.12c-0.146,0-0.293,0-0.44,0c-0.2,0.067-0.4,0.133-0.601,0.2c-1.074,3.842-2.151,7.776-3.201,11.605
	c-0.291,1.059-0.491,2.03-0.801,3.042c-0.11,0.361-0.068,0.933-0.52,0.96c-0.229,0.165-0.905,0.017-0.96-0.08
	c-0.135-0.173,0.042-0.809,0.12-1.08c0.216-0.757,0.494-1.643,0.72-2.401c0.013-0.147,0.026-0.293,0.04-0.44
	c0.651-1.804,1.078-3.88,1.641-5.723c0.132-0.433,0.105-0.754,0.24-1.201c0.208-0.684,0.47-1.508,0.68-2.201
	c0.014-0.146,0.027-0.293,0.04-0.44c0.147-0.488,0.448-1.102,0.48-1.681c-0.137-0.073-0.321-0.084-0.561-0.08
	c-0.168,0.118-0.647,0.188-0.84,0.24c-0.16,0-0.32,0-0.48,0c-0.038,0.012-0.154,0.107-0.2,0.12c-0.147,0-0.293,0-0.44,0
	c-0.033,0.011-0.126,0.109-0.16,0.12c-0.16,0-0.32,0-0.48,0c-0.766,0.191-1.479,0.351-2.481,0.36
	c-0.013-0.027-0.026-0.054-0.04-0.08c-0.228-0.273-0.033-0.796,0.16-0.92c0.243-0.17,0.882-0.09,1.121-0.16
	c0.508-0.15,1.137-0.271,1.601-0.4c0.367-0.103,0.647,0.034,1-0.08c1.591-0.514,3.681-0.547,5.362-1.081c0.147,0,0.293,0,0.44,0
	c0.45-0.109,1.098-0.204,1.521-0.36c0.16,0,0.32,0,0.48,0c0.221-0.071,0.677-0.178,0.92-0.24c0.12,0,0.24,0,0.36,0
	c0.021-0.008,0.09-0.11,0.12-0.12c0.187,0,0.374,0,0.561,0C232.632,218.206,233.118,218.128,233.261,218.013z"/>
<path fill="#FFFFFF" d="M237.943,223.136c0.649,0.015,1.266-0.192,1.761-0.36c0.133,0,0.267,0,0.4,0
	c0.51-0.167,1.244-0.31,1.761-0.48c0.133,0,0.267,0,0.4,0c0.422-0.137,2.142-0.654,2.521-0.56c0.455-0.174,1.166-0.4,1.761-0.4
	c0.217-0.351,0.395-0.873,0.52-1.321c0.013-0.146,0.027-0.293,0.04-0.44c0.153-0.446,0.365-1.013,0.48-1.521
	c0.278-0.094,0.772-0.043,1.121-0.04c0.062,0.06,0.073,0.031,0.12,0.12c0.088,0.147,0.009,0.465-0.041,0.641
	c-0.126,0.452-0.244,0.945-0.4,1.4c-0.058,0.167-0.226,0.594-0.08,0.681c0.133,0,0.267,0,0.4,0c0.164-0.16,0.352-0.094,0.64-0.081
	c0,0.027,0,0.054,0,0.081c0.138,0.171,0.09,0.688,0.04,0.92c-0.292,0.068-0.652,0.205-0.92,0.28c-0.16,0.014-0.32,0.027-0.48,0.04
	c-0.234,0.13-0.187,0.436-0.28,0.721c-0.101,0.309-0.262,0.761-0.36,1.041c-0.027,0.2-0.053,0.4-0.08,0.6
	c-0.777,2.416-1.294,5.017-2.041,7.444c-0.159,0.515-0.158,0.911-0.32,1.44c-0.113,0.369-0.29,0.842-0.4,1.201
	c-0.109,0.356-0.025,0.796-0.36,0.92c-0.182,0.117-0.735,0.045-1,0.04c-0.104-0.166-0.126-0.333-0.12-0.64
	c0.203-0.282,0.163-0.616,0.28-1c0.097-0.315,0.255-0.747,0.36-1.041c0.04-0.253,0.08-0.507,0.12-0.761
	c0.5-1.494,0.847-3.198,1.36-4.682c0.013-0.146,0.027-0.293,0.04-0.44c0.097-0.35,0.187-0.772,0.32-1.16
	c0.219-0.637,0.406-1.362,0.6-2.001c0.014-0.133,0.027-0.267,0.04-0.4c0.091-0.269,0.253-0.517,0.2-0.84
	c-0.07-0.025-0.039-0.008-0.08-0.04c-0.788,0.129-1.561,0.339-2.161,0.52c-0.12,0-0.24,0-0.36,0c-0.237,0.066-0.57,0.179-0.801,0.24
	c-0.12,0-0.24,0-0.36,0c-0.736,0.24-1.925,0.468-2.761,0.72c-0.585,0.177-1.952,0.162-2.241,0.561
	c-0.094,0.143-0.053,0.289-0.12,0.48c-0.256,0.73-0.397,1.524-0.64,2.321c-0.463,1.517-0.81,3.241-1.361,4.722
	c-0.013,0.134-0.027,0.267-0.04,0.4c-0.097,0.354-0.229,0.789-0.36,1.121c-0.09,0.228-0.048,0.42-0.12,0.68
	c-0.105,0.382-0.26,0.889-0.4,1.281c-0.121,0.338,0.023,0.627-0.44,0.64c-0.229,0.165-0.905,0.017-0.96-0.08
	c-0.138-0.211,0.019-0.594,0.08-0.76c0.255-0.689,0.37-1.459,0.6-2.161c0.519-1.583,0.863-3.296,1.361-4.842
	c0.073-0.227,0.012-0.394,0.08-0.6c0.109-0.334,0.26-0.749,0.36-1.081c0.026-0.187,0.053-0.374,0.08-0.561
	c0.124-0.373,0.304-0.741,0.32-1.24c-0.13-0.07-0.29-0.084-0.52-0.08c-0.134-0.217-0.126-0.582-0.12-0.96
	c0.276-0.138,0.648-0.133,0.96-0.24c0.163-0.339,0.305-0.819,0.44-1.201c0.026-0.187,0.053-0.374,0.08-0.56
	c0.302-0.857,0.557-1.808,0.761-2.762c0.04-0.013,0.08-0.026,0.12-0.04c0.21-0.134,0.861-0.045,1.161-0.04
	c0.061,0.112,0.082,0.199,0.08,0.4c-0.274,0.423-0.287,1.072-0.44,1.601C238.348,221.653,238.052,222.405,237.943,223.136z"/>
<path fill="#FFFFFF" d="M271.36,218.013c0.392-0.021,0.807-0.088,0.84,0.28c-0.148,0.26,0.132,0.588-0.16,0.72
	c-0.247,0.179-0.758,0.193-1.081,0.28c-0.146,0-0.293,0-0.44,0c-1.216,0.398-2.767,0.475-4.082,0.84
	c-0.601,0.167-2.221,0.12-2.401,0.601c-0.216,0.35-0.183,0.875-0.32,1.28c-0.298,0.884-0.492,1.954-0.841,2.801
	c-0.04,0.254-0.08,0.507-0.12,0.761c-0.328,1.003-0.59,2.148-0.921,3.162c-0.143,0.437-0.117,0.836-0.28,1.28
	c-0.231,0.63-0.43,1.435-0.641,2.082c-0.04,0.24-0.08,0.48-0.12,0.72c-0.384,1.019-0.68,2.247-0.961,3.321
	c-0.069,0.024-0.126,0.036-0.24,0.04c-0.205,0.137-0.841,0.018-0.96,0c-0.014-0.04-0.027-0.08-0.04-0.12
	c-0.103-0.153,0.093-0.923,0.16-1.121c0.298-0.883,0.473-2.024,0.84-2.881c0.086-0.202,0.047-0.403,0.12-0.64
	c0.118-0.38,0.275-0.857,0.4-1.241c0.027-0.187,0.054-0.374,0.08-0.56c0.306-0.984,0.609-2.135,0.92-3.122
	c0.132-0.417,0.112-0.729,0.24-1.161c0.192-0.646,0.427-1.433,0.64-2.081c0.066-0.199,0.017-0.345,0.08-0.56
	c0.157-0.531,0.465-1.154,0.48-1.801c-0.027,0-0.054,0-0.08,0c-0.275-0.175-1.078,0.153-1.321,0.2
	c-0.722,0.141-1.36,0.184-2.001,0.36c-0.12,0-0.24,0-0.36,0c-0.513,0.166-1.248,0.322-1.921,0.2c0-0.027,0-0.054,0-0.08
	c-0.144-0.195-0.054-0.541,0-0.76c0.094-0.067,0.187-0.134,0.28-0.2c0.173,0,0.347,0,0.521,0c0.051-0.014,0.188-0.109,0.24-0.12
	c0.08,0.013,0.16,0.027,0.24,0.04c0.53-0.136,1.156-0.265,1.641-0.4c0.362-0.101,0.648,0.034,1.001-0.08
	c0.526-0.17,1.127-0.27,1.641-0.4c0.349-0.089,0.614,0.031,0.96-0.08c1.24-0.397,2.786-0.492,4.042-0.84c0.173,0,0.347,0,0.52,0
	c0.599-0.191,1.443-0.291,2.041-0.48c0.173,0,0.347,0,0.521,0C270.678,218.209,271.237,218.11,271.36,218.013z"/>
<path fill="#FFFFFF" d="M285.727,218.013c0.381-0.004,0.843-0.023,1.161,0.04c0.04,0.116,0.042,0.307,0.04,0.48
	c-0.113,0.153-0.054,0.338-0.12,0.56c-0.149,0.501-0.455,1.122-0.48,1.721c0.107,0.037,0.277,0.042,0.44,0.04
	c0.165-0.162,0.361-0.096,0.64-0.081c0.013,0.041,0.027,0.081,0.04,0.12c0.1,0.154,0.045,0.609,0.04,0.841
	c-0.04,0.013-0.08,0.026-0.12,0.04c-0.285,0.226-1.261,0.183-1.441,0.44c-0.241,0.345-0.183,0.883-0.32,1.321
	c-0.04,0.128-0.162,0.272-0.2,0.4c-0.147,0.495-0.121,0.88-0.28,1.361c-0.783,2.367-1.193,5.029-2.041,7.364
	c-0.071,0.197-0.021,0.343-0.08,0.56c-0.092,0.341-0.23,0.778-0.36,1.081c-0.235,0.549-0.021,0.758-0.44,1.201c-0.333,0-0.667,0-1,0
	c-0.034-0.059-0.072-0.115-0.12-0.16c-0.012-0.461,0.144-0.696,0.24-1c0.04-0.24,0.08-0.48,0.12-0.72
	c0.11-0.32,0.267-0.726,0.36-1.041c0.513-1.741,0.786-3.532,1.4-5.163c0.167-0.441,0.137-0.845,0.28-1.281
	c0.283-0.862,0.442-1.763,0.72-2.681c0.087-0.287,0.227-0.499,0.24-0.88c-0.083-0.045-0.073-0.058-0.2-0.08
	c-0.25,0.146-0.583,0.059-0.88,0.16c-0.161,0.055-0.558,0.194-0.72,0.24c-0.08-0.013-0.16-0.026-0.24-0.04
	c-1.434,0.494-3.023,0.641-4.482,1.12c-0.531,0.175-2.107,0.185-2.281,0.601c-0.086,0.138-0.056,0.308-0.12,0.48
	c-0.196,0.527-0.385,1.236-0.56,1.761c-0.041,0.253-0.08,0.507-0.12,0.76c-0.701,1.915-1.015,4.124-1.721,6.043
	c-0.09,0.246-0.043,0.446-0.12,0.72c-0.101,0.363-0.268,0.867-0.4,1.241c-0.078,0.22-0.005,0.457-0.2,0.56
	c-0.241,0.168-0.954,0.081-1.161,0.04c-0.013-0.04-0.027-0.08-0.04-0.12c-0.168-0.259,0.104-0.622,0.16-0.8
	c0.217-0.69,0.329-1.347,0.52-2.001c0.476-1.623,0.891-3.307,1.361-4.882c0.134-0.45,0.107-0.761,0.24-1.201
	c0.206-0.682,0.649-1.615,0.6-2.361c-0.026,0-0.053,0-0.08,0c-0.093-0.058-0.376-0.046-0.48-0.08c-0.026-0.05-0.044-0.083-0.08-0.12
	c-0.004-0.285-0.005-0.616,0.04-0.84c0.285-0.095,0.55-0.156,0.88-0.16c0.561-0.916,0.761-2.464,1.121-3.562
	c0.073-0.224,0.155-1.003,0.32-1.081c0.387,0,0.773,0,1.16,0c0.07,0.131,0.084,0.291,0.08,0.521c-0.212,0.246-0.156,0.608-0.28,0.96
	c-0.295,0.836-0.55,1.803-0.761,2.681c0.174,0,0.347,0,0.521,0c0.279-0.245,1.649-0.327,2.121-0.48
	c1.268-0.413,2.728-0.588,4.002-0.96c0.08,0.013,0.16,0.026,0.24,0.04c0.063-0.015,0.165-0.138,0.24-0.16c0.12,0,0.24,0,0.36,0
	c0.36-0.098,0.662-0.236,1.121-0.24C285.211,220.444,285.179,218.96,285.727,218.013z"/>
<path fill="#FFFFFF" d="M293.05,218.013c0.36,0,0.721,0,1.081,0c0.034,0.059,0.073,0.115,0.12,0.16
	c-0.053,0.243-0.296,1.294-0.24,1.361c0.054,0.064,0.244,0.041,0.36,0.04c0.195-0.134,0.386-0.048,0.68-0.12
	c0.521-0.127,1.21-0.213,1.721-0.36c0.146,0,0.293,0,0.44,0c0.035-0.011,0.126-0.108,0.16-0.12c0.187,0,0.374,0,0.561,0
	c0.047-0.013,0.161-0.107,0.2-0.12c0.173,0,0.347,0,0.521,0c0.021-0.008,0.09-0.109,0.12-0.12c0.2,0,0.4,0,0.6,0
	c0.178-0.057,0.34-0.145,0.601-0.08c0.059-0.022,0.151-0.14,0.2-0.16c0.187,0,0.374,0,0.561,0c0.047-0.013,0.161-0.107,0.2-0.12
	c0.174,0,0.347,0,0.521,0c0.552-0.176,1.685-0.451,2.361-0.32c0.049,0.091,0.065,0.09,0.08,0.24c-0.1,0.154-0.034,0.507-0.04,0.68
	c-0.347,0.177-0.825,0.256-1.241,0.36c-0.147-0.013-0.293-0.027-0.44-0.04c-0.069,0.023-0.159,0.137-0.24,0.16c-0.2,0-0.4,0-0.6,0
	c-0.032,0.01-0.128,0.112-0.16,0.12c-0.146-0.014-0.293-0.027-0.44-0.04c-0.069,0.023-0.159,0.136-0.24,0.16c-0.2,0-0.4,0-0.601,0
	c-0.019,0.007-0.09,0.112-0.12,0.12c-0.16-0.014-0.32-0.027-0.48-0.04c-0.918,0.301-2.143,0.341-3.082,0.6c-0.173,0-0.347,0-0.52,0
	c-0.227,0.062-0.698,0.179-0.92,0.24c-0.424,0.117-0.796-0.031-1.121,0.16c-0.186,0.109-0.131,0.407-0.2,0.641
	c-0.139,0.469-0.253,1.02-0.4,1.521c-0.042,0.146-0.158,0.342-0.12,0.44c0.059,0.102-0.008,0.045,0.12,0.08
	c0.115,0.058,0.594-0.1,0.761-0.16c0.157-0.057,0.373,0.022,0.56-0.04c0.364-0.12,0.935-0.234,1.321-0.36
	c0.245-0.08,1.285-0.242,1.44-0.2c0.558-0.223,1.379-0.325,1.961-0.521c0.147,0,0.293,0,0.44,0c0.379-0.122,0.926-0.252,1.321-0.36
	c0.133,0,0.267,0,0.4,0c0.561-0.157,1.163-0.36,1.881-0.36c0.034,0.059,0.073,0.115,0.12,0.16c0,0.28,0,0.56,0,0.84
	c-0.267,0.132-0.757,0.236-1.041,0.32c-0.133,0-0.267,0-0.4,0c-0.645,0.197-1.384,0.317-1.961,0.48c-0.134,0-0.267,0-0.4,0
	c-0.47,0.151-1.286,0.279-1.761,0.44c-0.343,0.116-0.656,0.007-1,0.12c-1.246,0.407-2.787,0.616-4.122,0.88
	c-0.258,0.637-0.311,1.297-0.521,2.001c-0.301,1.011-0.611,2.163-0.92,3.162c-0.15,0.484-0.128,0.876-0.28,1.36
	c-0.126,0.4-0.317,0.984-0.44,1.401c-0.013,0.146-0.027,0.293-0.04,0.44c-0.143,0.414-0.381,0.903-0.4,1.441
	c0.097,0.052,0.113,0.072,0.28,0.08c0.162-0.094,0.294,0.055,0.48,0c0.065-0.019,0.175-0.139,0.24-0.16c0.28,0,0.56,0,0.84,0
	c0.02-0.008,0.09-0.111,0.12-0.12c0.237-0.075,0.471,0.075,0.641,0.04c0.087-0.018,0.194-0.135,0.28-0.16c0.267,0,0.533,0,0.8,0
	c0.831-0.254,2.129-0.271,3.001-0.48c0.438-0.105,1.072,0.049,1.48-0.08c0.088-0.028,0.243-0.132,0.36-0.16c0.227,0,0.454,0,0.68,0
	c0.032-0.01,0.128-0.111,0.16-0.12c0.188-0.05,0.484,0.132,0.72,0.04c0.047-0.018,0.142-0.142,0.2-0.16
	c0.147,0.014,0.293,0.027,0.44,0.04c0.103,0.195,0.085,0.569,0.08,0.88c-0.032,0.041-0.014,0.011-0.04,0.08
	c-0.146,0.053-0.292,0.164-0.4,0.2c-0.28,0-0.561,0-0.84,0c-0.034,0.011-0.126,0.109-0.16,0.12c-0.227,0-0.454,0-0.68,0
	c-0.038,0.012-0.154,0.107-0.2,0.12c-0.24,0-0.48,0-0.72,0c-0.58,0.146-1.434,0.183-2.001,0.36c-0.223,0.07-0.519-0.084-0.681-0.04
	c-0.062,0.017-0.139,0.139-0.2,0.16c-0.173,0-0.347,0-0.521,0c-0.246,0.002-0.336,0.076-0.48,0.12c-0.213,0-0.427,0-0.641,0
	c-0.305,0.094-0.92,0.162-1.24,0.24c-0.16-0.013-0.32-0.027-0.48-0.04c-0.07,0.018-0.199,0.138-0.28,0.16c-0.267,0-0.534,0-0.8,0
	c-0.02,0.007-0.091,0.11-0.12,0.12c-0.108,0.035-0.274-0.033-0.32-0.04c-0.12,0.026-0.24,0.053-0.36,0.08
	c-0.235,0.53-0.494,0.463-1.241,0.44c-0.581-0.471-0.668-0.1-0.64-1.24c0.04-0.014,0.08-0.027,0.12-0.041
	c0.089-0.056,0.374-0.061,0.48-0.08c0.623-1.048,0.732-2.596,1.121-3.882c0.202-0.67,0.459-1.539,0.68-2.201
	c0.16-0.479,0.121-0.92,0.28-1.401c0.216-0.65,0.547-1.475,0.6-2.241c-0.043-0.036-0.003,0.003-0.04-0.04
	c-0.193,0.038-0.47,0.042-0.721,0.04c-0.103-0.195-0.085-0.568-0.08-0.88c0.03-0.043,0.024-0.038,0.04-0.12
	c0.171-0.114,0.234-0.166,0.561-0.16c0.114-0.084,0.293-0.114,0.48-0.12c0.049-0.079,0.161-0.13,0.2-0.2
	c0.21-0.377,0.251-1.11,0.4-1.561c0.091-0.276,0.265-0.595,0.32-0.92c-0.043-0.036-0.003,0.003-0.04-0.04
	c-0.23-0.023-0.616-0.035-0.84-0.08c-0.049-0.091-0.065-0.09-0.08-0.24c0.164-0.282-0.098-0.528,0.16-0.721
	c0.224-0.162,0.679-0.163,1.081-0.24C292.572,219.239,292.75,218.48,293.05,218.013z"/>
<path fill="#FFFFFF" d="M325.586,218.013c0.273-0.004,0.587-0.003,0.8,0.04c0.026,0.05,0.043,0.083,0.08,0.12
	c-0.04,0.204-0.042,0.499-0.04,0.76c-0.317,0.185-0.787,0.248-1.201,0.36c-0.16,0-0.32,0-0.48,0c-0.056,0.022-0.162,0.138-0.24,0.16
	c-0.173,0-0.347,0-0.521,0c-0.037,0.011-0.154,0.11-0.2,0.12c-0.038,0.008-0.144-0.064-0.24-0.04
	c-1.09,0.272-2.457,0.387-3.522,0.72c-0.173,0-0.347,0-0.52,0c-0.384,0.15-1.187,0.105-1.241,0.601
	c-0.189,0.314-0.157,0.755-0.28,1.121c-0.332,0.984-0.633,2.139-0.921,3.121c-0.026,0.2-0.053,0.4-0.08,0.601
	c-0.421,1.178-0.692,2.527-1.081,3.722c-0.027,0.187-0.054,0.374-0.08,0.561c-0.231,0.631-0.431,1.432-0.641,2.081
	c-0.04,0.24-0.08,0.48-0.12,0.721c-0.354,1.057-0.675,2.253-0.961,3.361c-0.075,0.026-0.156,0.038-0.28,0.04
	c-0.229,0.165-0.905,0.017-0.96-0.08c-0.12-0.179,0.061-0.83,0.12-1.041c0.146-0.514,0.359-1.167,0.521-1.681
	c0.134-0.426,0.162-0.859,0.32-1.241c0.098-0.236,0.07-0.486,0.16-0.76c0.137-0.418,0.315-0.939,0.44-1.361
	c0.013-0.146,0.027-0.293,0.04-0.44c0.301-0.972,0.618-2.114,0.92-3.082c0.137-0.439,0.107-0.756,0.24-1.201
	c0.205-0.685,0.452-1.518,0.68-2.201c0.014-0.146,0.027-0.293,0.04-0.44c0.151-0.501,0.447-1.124,0.48-1.721
	c-0.137-0.073-0.321-0.084-0.561-0.08c-0.168,0.118-0.647,0.188-0.84,0.24c-0.16,0-0.32,0-0.48,0c-0.034,0.011-0.127,0.11-0.16,0.12
	c-0.16,0-0.32,0-0.48,0c-0.033,0.011-0.126,0.11-0.16,0.12c-0.16,0-0.32,0-0.48,0c-0.755,0.205-1.486,0.352-2.481,0.36
	c-0.013-0.027-0.026-0.054-0.04-0.08c-0.133-0.166-0.072-0.538-0.04-0.76c0.079-0.049,0.13-0.162,0.2-0.2
	c0.168-0.092,0.426,0.019,0.64-0.04c0.052-0.014,0.189-0.109,0.24-0.12c0.08,0.013,0.16,0.027,0.24,0.04
	c0.531-0.152,1.146-0.273,1.641-0.4c0.355-0.091,0.618,0.031,0.96-0.08c0.542-0.175,1.158-0.272,1.681-0.4
	c0.315-0.077,0.657,0.021,0.96-0.08c1.22-0.408,2.792-0.493,4.042-0.84c0.16,0,0.32,0,0.48,0c0.62-0.179,1.472-0.288,2.081-0.48
	c0.173,0,0.347,0,0.521,0C324.949,218.208,325.458,218.13,325.586,218.013z"/>
<path fill="#FFFFFF" d="M328.828,225.097c-0.216,0.025-0.49,0.041-0.761,0.04c-0.013-0.04-0.026-0.08-0.04-0.12
	c-0.084-0.144-0.017-0.641,0-0.84c0.088-0.066,0.081-0.113,0.2-0.16c0.117-0.074,0.705-0.156,0.88-0.16
	c0.336-0.552,0.353-1.176,0.601-1.841c0.09-0.242,0.247-0.524,0.28-0.84c-0.04-0.013-0.08-0.026-0.12-0.04
	c-0.141-0.088-0.596-0.05-0.761-0.08c-0.069-0.205-0.043-0.57-0.04-0.84c0.032-0.041,0.014-0.011,0.04-0.08
	c0.143-0.058,1.146-0.259,1.201-0.4c0.08-0.125,0.028-0.266,0.08-0.44c0.104-0.346,0.261-0.843,0.4-1.201
	c0.276-0.122,0.801-0.084,1.2-0.08c0.014,0.04,0.027,0.08,0.041,0.12c0.179,0.274-0.197,1.024-0.24,1.281
	c0.132,0.126,0.154,0.166,0.44,0.16c0.219-0.163,0.568-0.072,0.88-0.16c0.44-0.125,1.05-0.203,1.481-0.32c0.146,0,0.293,0,0.44,0
	c0.905-0.288,2.205-0.335,3.001-0.6c0.187,0,0.374,0,0.561,0c0.046-0.013,0.162-0.108,0.2-0.12c0.173,0,0.347,0,0.52,0
	c0.02-0.008,0.091-0.11,0.12-0.12c0.187,0,0.374,0,0.561,0c0.476-0.131,1.063-0.315,1.681-0.2c0.07,0.205,0.043,0.57,0.04,0.84
	c-0.03,0.043-0.024,0.038-0.04,0.12c-0.187,0.041-0.291,0.157-0.44,0.2c-0.2,0-0.4,0-0.6,0c-0.099,0.031-0.142,0.148-0.32,0.12
	c-0.041-0.006-0.216-0.081-0.32-0.04c-0.047,0.018-0.142,0.141-0.2,0.16c-0.2,0-0.4,0-0.601,0c-0.031,0.01-0.128,0.112-0.16,0.12
	c-0.16-0.014-0.32-0.027-0.48-0.04c-0.047,0.018-0.142,0.141-0.2,0.16c-0.2,0-0.4,0-0.6,0c-0.032,0.01-0.129,0.112-0.16,0.12
	c-0.16-0.014-0.32-0.027-0.48-0.04c-0.662,0.252-1.632,0.27-2.321,0.48c-0.173,0-0.347,0-0.521,0
	c-0.861,0.239-2.014,0.244-2.841,0.561c-0.194,0.459-0.206,0.964-0.36,1.48c-0.104,0.347-0.279,0.726-0.32,1.121
	c0.043,0.036,0.003-0.003,0.04,0.04c0.294,0.026,0.678-0.112,0.96-0.2c0.146,0,0.293,0,0.44,0c0.534-0.156,1.309-0.311,1.841-0.48
	c0.337-0.108,0.674-0.009,1.001-0.12c0.574-0.196,1.346-0.302,1.921-0.48c0.305-0.095,0.702-0.02,1-0.12
	c0.167-0.055,0.537-0.19,0.721-0.24c0.146,0,0.293,0,0.44,0c0.522-0.166,1.277-0.438,1.921-0.32c0.069,0.262,0.104,0.688,0.041,1
	c-0.318,0.06-0.727,0.192-1.001,0.28c-0.333,0.107-0.678,0.013-1,0.12c-0.625,0.208-1.282,0.292-1.921,0.48
	c-0.081-0.013-0.16-0.027-0.24-0.04c-0.255,0.054-0.714,0.216-0.96,0.28c-0.08-0.014-0.16-0.027-0.24-0.04
	c-0.428,0.109-1.004,0.241-1.361,0.36c-0.187,0.014-0.374,0.027-0.56,0.04c-0.231,0.063-0.558,0.191-0.761,0.24
	c-0.217,0.053-0.589-0.018-0.88,0.08c-0.029,0.01-0.1,0.112-0.12,0.12c-0.12,0-0.24,0-0.36,0c-0.247,0.059-0.628,0.172-0.84,0.24
	c-0.12,0-0.24,0-0.36,0c-0.18,0.087-0.129,0.39-0.2,0.6c-0.112,0.332-0.263,0.76-0.36,1.081c-0.027,0.187-0.054,0.374-0.08,0.561
	c-0.334,0.939-0.621,2.088-0.88,3.042c-0.131,0.48-0.106,0.892-0.28,1.36c-0.127,0.342-0.282,0.874-0.4,1.241
	c-0.026,0.187-0.053,0.374-0.08,0.56c-0.153,0.421-0.353,0.865-0.36,1.441c0.069,0.024,0.126,0.036,0.24,0.04
	c0.171-0.1,0.332,0.058,0.521,0c0.067-0.021,0.16-0.137,0.24-0.16c0.267,0,0.533,0,0.8,0c0.033-0.01,0.127-0.11,0.16-0.12
	c0.259-0.079,0.439,0.094,0.64,0.04c0.064-0.017,0.176-0.14,0.24-0.16c0.267,0,0.534,0,0.8,0c0.849-0.233,2.134-0.265,3.001-0.48
	c0.444-0.11,1.104,0.051,1.521-0.08c0.081-0.025,0.217-0.134,0.32-0.16c0.24,0,0.48,0,0.721,0c0.026-0.009,0.104-0.114,0.12-0.12
	c0.182-0.061,0.48,0.12,0.72,0.04c0.033-0.011,0.095-0.108,0.12-0.12c0.183-0.085,0.354-0.007,0.56,0
	c0.095,0.18,0.085,0.507,0.08,0.8c-0.031,0.043-0.06,0.148-0.08,0.2c-0.213,0.017-0.261,0.115-0.4,0.16c-0.267,0-0.533,0-0.8,0
	c-0.039,0.011-0.138,0.112-0.16,0.12c-0.24,0-0.48,0-0.72,0c-0.034,0.011-0.126,0.109-0.16,0.12c-0.253,0-0.507,0-0.76,0
	c-0.573,0.157-1.429,0.184-2.001,0.36c-0.214,0.066-0.486-0.082-0.64-0.04c-0.062,0.016-0.139,0.139-0.2,0.16
	c-0.28,0-0.561,0-0.84,0c-0.245,0.078-0.787,0.171-1.041,0.24c-0.24,0-0.48,0-0.721,0c-0.13,0.035-0.25,0.116-0.44,0.12
	c-0.12-0.013-0.24-0.027-0.36-0.04c-0.064,0.018-0.176,0.14-0.24,0.16c-0.267,0-0.533,0-0.8,0c-0.259,0.082-0.438,0.1-0.76,0.12
	c-0.078,0.133-0.208,0.379-0.36,0.44c-0.413,0.281-1.386-0.148-1.521-0.32c-0.124-0.158-0.086-0.563-0.08-0.84
	c0.151-0.091,0.374-0.118,0.6-0.16c0.619-1.005,0.756-2.541,1.121-3.802c0.198-0.685,0.459-1.555,0.681-2.241
	c0.156-0.484,0.135-0.87,0.28-1.361C328.436,226.753,328.801,225.951,328.828,225.097z"/>
<path fill="#FFFFFF" d="M360.323,218.013c0.464-0.021,1.141-0.146,1.161,0.32c-0.148,0.228-0.238,0.876-0.24,1.241
	c0.393,0.308,0.738,0.799,1.041,1.2c0.133,0.12,0.267,0.24,0.4,0.36c0.365,0.483,0.842,0.887,1.201,1.361
	c0.217,0.287,0.801,1.132,1.201,1.161c0.181-0.241,0.501-0.312,0.76-0.48c0.468-0.304,0.93-0.594,1.44-0.88
	c0.457-0.256,0.927-0.631,1.361-0.92c0.34-0.228,0.699-0.334,1.041-0.56c0.737-0.489,1.479-0.966,2.281-1.401
	c0.098-0.053,0.917-0.582,0.96-0.64c0.134-0.182,0.155-0.662,0.36-0.761c0.4,0,0.801,0,1.201,0c0.186,0.145,0.608,0.009,0.96,0
	c0.103,0.195,0.085,0.569,0.08,0.88c-0.032,0.047-0.031,0.067-0.04,0.16c-0.27,0.184-0.561,0.432-0.84,0.601
	c-0.083,0.05-0.179,0.016-0.24,0.08c-0.269,0.284-0.208,0.836-0.36,1.24c-0.363,0.964-0.53,1.989-0.841,3.042
	c-0.532,1.802-1.043,3.782-1.641,5.563c-0.013,0.146-0.027,0.293-0.04,0.44c-0.042,0.15-0.155,0.303-0.2,0.44
	c-0.04,0.24-0.08,0.48-0.12,0.72c-0.301,0.846-0.567,1.862-0.84,2.722c-0.013,0.146-0.026,0.293-0.04,0.44
	c-0.171,0.548-0.386,1.146-0.52,1.761c-0.097,0.052-0.114,0.072-0.28,0.08c-0.174,0.113-0.704,0.045-0.96,0.04
	c-0.049-0.091-0.065-0.09-0.08-0.24c-0.062-0.1,0.138-0.818,0.2-1.041c0.251-0.902,0.508-1.884,0.8-2.801
	c0.579-1.816,0.97-3.759,1.561-5.522c0.026-0.2,0.053-0.4,0.08-0.601c0.132-0.368,0.293-0.857,0.4-1.24
	c0.013-0.133,0.027-0.267,0.04-0.4c0.29-0.774,0.421-1.623,0.68-2.481c0.093-0.309,0.266-0.571,0.28-1
	c-0.071-0.038-0.067-0.05-0.16-0.08c-0.441,0.318-0.934,0.499-1.4,0.8c-1.388,0.896-2.815,1.773-4.282,2.601
	c-0.749,0.423-1.247,1.138-2.441,1c-0.208-0.355-0.56-0.602-0.8-0.92c-0.48-0.637-1.009-1.196-1.48-1.841
	c-0.12-0.107-0.24-0.213-0.36-0.32c-0.229-0.305-0.477-0.849-0.92-0.92c0,0.013,0,0.027,0,0.04c-0.013,0-0.027,0-0.04,0
	c-0.006,0.551-0.218,1.011-0.36,1.441c-0.08,0.374-0.16,0.747-0.24,1.121c-0.125,0.382-0.288,0.86-0.4,1.24
	c-0.013,0.147-0.027,0.294-0.04,0.44c-0.115,0.376-0.286,0.826-0.4,1.201c-0.013,0.146-0.026,0.293-0.04,0.44
	c-0.495,1.667-0.979,3.472-1.44,5.163c-0.251,0.92-0.454,1.817-0.72,2.682c-0.097,0.312-0.146,1.094-0.4,1.2
	c-0.179,0.107-0.774,0.018-1.081,0c-0.013-0.04-0.027-0.08-0.04-0.12c-0.085-0.129,0.096-0.963,0.16-1.16
	c0.316-0.965,0.586-2.075,0.88-3.042c0.027-0.187,0.053-0.374,0.08-0.561c0.135-0.377,0.29-0.859,0.4-1.241
	c0.013-0.146,0.026-0.293,0.04-0.44c0.294-0.999,0.622-2.157,0.92-3.162c0.04-0.24,0.08-0.48,0.12-0.72
	c0.119-0.328,0.266-0.735,0.36-1.081c0.06-0.217,0.009-0.363,0.08-0.561c0.265-0.734,0.38-1.577,0.64-2.361
	c0.191-0.578,0.472-1.251,0.48-1.961c-0.239-0.159-0.515-0.535-0.56-0.881c0.145-0.178,0.216-0.425,0.4-0.56
	C359.755,218.134,360.02,218.334,360.323,218.013z"/>
<path fill="#FFFFFF" d="M351.959,218.013c0.38-0.009,0.676,0.018,0.92,0.12c0.249,0.558,0.013,1.398,0.16,2.081
	c0.062,0.287-0.033,0.744,0.04,1.081c0.19,0.883,0.156,2.336,0.16,3.322c0.027,0,0.054,0,0.08,0c0.198,0.097,0.725-0.151,0.96-0.2
	c0.191-0.04,0.303,0.051,0.44,0.08c0,0.027,0,0.053,0,0.08c0.062,0.112-0.001,0.662-0.04,0.84c-0.139,0.043-0.208,0.161-0.32,0.2
	c-0.12,0-0.24,0-0.36,0c-0.153,0.043-0.392,0.117-0.601,0.16c-0.061,0.099-0.092,0.091-0.12,0.24
	c-0.026,0.078,0.04,0.444,0.04,0.681c0,0.643-0.004,1.314,0.12,1.881c0.014,0.64,0.027,1.281,0.04,1.921
	c0.065,0.301,0.006,0.665,0.04,0.96c0.111,0.976,0.139,1.946,0.16,3.001c0.012,0.581,0.16,1.267,0,1.681
	c-0.251,0.115-0.812,0.104-1.121,0.04c0-0.026,0-0.053,0-0.08c-0.138-0.187-0.076-0.649-0.08-0.96
	c-0.003-0.247-0.033-0.582-0.08-0.8c0-0.36,0-0.72,0-1.081c-0.094-0.438-0.118-1.035-0.12-1.521c0-0.267,0-0.534,0-0.8
	c-0.105-0.488,0.035-1.068-0.08-1.601c-0.051-0.236,0.022-0.634-0.04-0.92c-0.146-0.676-0.117-1.464-0.12-2.241
	c-0.102-0.055-0.14-0.077-0.32-0.08c-0.208,0.158-0.335,0.019-0.521,0.08c-0.036,0.012-0.124,0.146-0.16,0.16
	c-0.134,0-0.267,0-0.4,0c-0.352,0.097-0.892,0.235-1.321,0.36c-0.08-0.014-0.16-0.027-0.24-0.04c-0.063,0.013-0.179,0.14-0.24,0.16
	c-0.319,0.102-0.44-0.018-0.681,0.16c-0.191,0.142-0.278,0.464-0.4,0.681c-0.133,0.237-0.387,0.48-0.521,0.72
	c-0.172,0.31-0.287,0.585-0.48,0.88c-1.082,1.66-2.157,3.38-3.242,5.042c-0.348,0.533-0.674,1.082-1,1.601
	c-0.141,0.225-0.224,0.577-0.44,0.72c-0.183,0.121-0.376,0.047-0.641,0.04c-0.103-0.156-0.29-0.265-0.36-0.44
	c-0.112-0.142-0.094-0.441,0-0.6c0.342-0.578,0.786-1.162,1.16-1.721c1.04-1.554,1.932-3.162,2.961-4.723
	c0.309-0.468,0.611-0.95,0.92-1.44c0.129-0.205,0.364-0.351,0.4-0.641c-0.043-0.036-0.003,0.003-0.04-0.04c-0.173,0-0.347,0-0.52,0
	c-0.074-0.117-0.11-0.116-0.12-0.32c0.09-0.142,0.032-0.497,0.04-0.681c0.133-0.068,0.18-0.008,0.32-0.04
	c0.061-0.014,0.141-0.14,0.2-0.16c0.206-0.068,0.481,0.057,0.641-0.04c0.369-0.227,0.957-1.526,1.24-1.961
	c0.862-1.324,1.726-2.702,2.562-4.042C351.213,219.214,351.494,218.523,351.959,218.013z M351.599,220.935
	c-0.26,0.604-0.663,1.014-0.96,1.521c-0.396,0.674-0.788,1.291-1.201,1.921c-0.129,0.197-0.692,1.148-0.68,1.161
	c0.072,0.084,0.117,0.08,0.28,0.08c0.159-0.108,0.296-0.045,0.52-0.12c0.398-0.133,0.851-0.262,1.201-0.36
	c0.445-0.125,0.892-0.034,1.201-0.28c0.042-0.062,0.041-0.164,0.04-0.28c-0.093-0.156,0.031-0.308,0-0.48
	c-0.107-0.593-0.016-1.451-0.16-2.121c-0.073-0.34,0.083-0.769-0.08-1.001c0-0.013,0-0.026,0-0.04
	C351.706,220.935,351.652,220.935,351.599,220.935z"/>
<path fill="#B9B2AA" d="M44.974,82.138c0,0-0.651-11.071-0.521-13.806c0.13-2.735,0.391-11.071,0.521-13.415
	c0.13-2.345-0.391-13.807,0.13-17.454c0.522-3.646,1.434-12.243,5.081-14.588c3.647-2.344,13.417,0.651,17.584,2.215
	c4.168,1.563,10.029,7.033,12.765,7.294c2.736,0.26,4.168-1.824,7.424-2.736c7.822-2.19,9.506-2.472,12.48-2.472
	c2.974,0,4.658,0.282,12.479,2.472c3.256,0.912,4.689,2.996,7.424,2.736c2.735-0.261,8.597-5.731,12.765-7.294
	c4.168-1.563,13.937-4.559,17.584-2.215c3.647,2.345,4.559,10.941,5.08,14.588c0.521,3.647,0,15.108,0.13,17.454
	c0.13,2.344,0.391,10.68,0.521,13.415c0.13,2.735-0.521,13.806-0.521,13.806H44.974z"/>
<path d="M52.744,26.794c-4.167,2.475-5.861,23.532-4.298,23.662c0.949,0.079,2.768-2.486,5.705-5.501
	c3.452-3.544,6.543-6.654,12.602-8.759c3.635-1.263,7.831-1.283,7.874-2.282C74.67,32.917,56.913,24.32,52.744,26.794z"/>
<path d="M147.528,26.794c4.167,2.475,5.861,23.532,4.298,23.662c-0.949,0.079-2.769-2.486-5.706-5.501
	c-3.452-3.544-6.542-6.654-12.602-8.759c-3.635-1.263-7.83-1.283-7.874-2.282C125.602,32.917,143.359,24.32,147.528,26.794z"/>
<path fill="#B9B2AA" d="M100.297,92.814c-26.024,0-47.122,19.384-47.122,43.297c0,15.187,19.037,41.789,31.913,49.518
	c7.399,4.44,30.089-32.01,30.089-32.01s45.422-6.997,45.365-14.364C145.915,98.535,92.983,92.625,100.297,92.814z"/>
<path d="M69.346,170.667c2.566,0.61,8.806,3.386,9.812,3.195c1.007-0.19,6.237-3.293,7.093-3.332c0.856-0.038,5.284,4.378,6.04,4.34
	c0.754-0.038,9.989-3.649,9.857-3.108c-0.352,1.45-11.78,15.643-16.411,14.192C82.434,184.921,70,172.613,69.346,170.667z"/>
<path d="M147.156,117.879c0.342,2.917,2.134,8.159,1.84,9.262c-0.294,1.104-4.725,4.257-4.852,5.207
	c-0.126,0.95,3.277,6.809,3.161,7.646s-5.714,8.163-5.162,8.066c1.48-0.258,18.806-4.158,18.302-9.279
	C160.07,134.961,149.025,118.789,147.156,117.879z"/>
<ellipse fill="#EB6C12" cx="100.594" cy="133.747" rx="4.514" ry="5.517"/>
<path fill="#EB6C12" d="M78.419,120.493c2.25-0.948,5.368-0.934,9.315,2.144c3.18,2.48,4.858,2.577,5.667,5.523
	c0.497,1.812-0.59,2.477-0.944,4.011c-0.354,1.534,1.062,4.837,0.118,6.489c-0.456,0.797-4.219,1.74-6.364,2.623
	c-2.162,0.891-6.717,1.342-8.265,1.27C69.049,142.131,73.935,122.38,78.419,120.493z"/>
<path fill="#EB6C12" d="M122.553,120.346c-2.25-0.948-5.369-0.934-9.315,2.144c-3.18,2.48-4.859,2.577-5.667,5.523
	c-0.497,1.812,0.59,2.477,0.944,4.011c0.354,1.533-1.062,4.837-0.118,6.489c0.457,0.799,4.219,1.74,6.363,2.624
	c2.163,0.891,6.718,1.342,8.266,1.269C131.921,141.984,127.036,122.233,122.553,120.346z"/>
<path fill="#E2DFD9" d="M71.046,110.465c-7.406-3.14-10.628-3.825-17.799-4.101c-7.171-0.276-12.045-5.393-12.045-12.045
	c0,0-0.275-18.024,3.448-25.333c3.723-7.308,13.437-15.331,23.14-15.056c24.52,0.215,17.096,7.826,32.647,7.826
	c15.551,0,7.981-7.61,32.546-7.826c9.703-0.275,19.418,7.748,23.142,15.056c3.723,7.309,3.448,25.333,3.448,25.333
	c0,6.652-4.875,11.769-12.044,12.045c-7.171,0.276-10.394,0.961-17.799,4.101c-15.711,6.663-16.856,15.343-29.254,15.343
	C88.076,125.808,86.757,117.128,71.046,110.465z"/>
<path d="M100.299,119.304c-3.818,0.573-9.833-6.04-9.144-9.651c0.603-3.156,6.154-3.417,6.206-6.811
	c0.106-6.832,0.381-8.635-0.573-7.698c-3.708,3.643-14.033,8.017-21.288,9.171c-4.016,0.64-14.042,0.041-15.902-0.687
	c-1.86-0.728-3.122-1.436-6.9-2.42c-4.836-1.259-6.424,2.467-5.555-5.39c0.823-7.431,3.236-16.745,12.177-23.248
	c3.726-2.709,13.208-6.265,19.473-5.926s13.934,8.359,15.492,7.883c1.559-0.476,2.8-14.63,3.548-18.095
	c0.954-4.409,1.124-8.08,2.555-8.08s1.6,3.66,2.555,8.08c0.749,3.465,1.991,17.619,3.548,18.095s9.227-7.544,15.492-7.883
	s15.748,3.217,19.473,5.926c8.941,6.503,11.354,15.817,12.176,23.248c0.87,7.856-0.718,4.131-5.554,5.39
	c-3.779,0.984-5.04,1.692-6.9,2.42c-1.86,0.728-11.885,1.327-15.902,0.687c-7.254-1.154-17.579-5.528-21.288-9.171
	c-0.954-0.937-0.678,0.866-0.573,7.698c0.053,3.394,5.604,3.655,6.207,6.811c0.688,3.611-5.326,10.224-9.144,9.651"/>
<path fill="#F4B2C0" d="M95.029,121.203c0,0,2.463,2.751,5.501,2.751c3.038,0,5.5-2.751,5.5-2.751H95.029z"/>
<path fill="#EB6C12" d="M105.672,74.423c1.502-1.476,3.874-11.667,21.909-9.514c20.091,2.399,27.398,20.478,27.549,23.477
	c0.255,5.111-16.918,11.899-28.615,11.665c-7.497-0.15-13.851-5.698-17.72-10.847c-5.354-7.125-6.605-7.146-8.385-7.146
	c-1.779,0-3.026-0.001-8.425,7.146c-3.881,5.139-10.222,10.697-17.719,10.847c-11.697,0.234-28.871-6.554-28.615-11.665
	c0.15-2.999,7.457-21.078,27.548-23.477c18.037-2.153,20.408,8.039,21.91,9.514c1.502,1.475,3.045-0.671,5.298-0.671
	C102.66,73.751,104.17,75.898,105.672,74.423z M91.237,75.979c-1.239-1.217-3.194-9.621-18.067-7.845
	C56.603,70.111,50.577,85.02,50.452,87.493c-0.21,4.215,13.952,9.813,23.597,9.62c6.181-0.124,11.412-4.707,14.613-8.945
	C93.112,82.273,92.475,77.195,91.237,75.979z M112.213,88.167c3.201,4.238,8.431,8.821,14.613,8.945
	c9.646,0.193,23.807-5.404,23.596-9.62c-0.124-2.473-6.149-17.381-22.717-19.359c-14.873-1.776-16.828,6.628-18.066,7.845
	C108.399,77.195,107.762,82.273,112.213,88.167z"/>
<path fill="#FFFFFF" d="M88.077,84.255c-2.321-4.201-6.799-7.046-11.942-7.046c-7.529,0-13.632,6.095-13.632,13.613
	c0,3.123,4.975,4.56,4.975,3.159c0-5.783,4.688-10.472,10.471-10.472c3.417,0,6.452,1.637,8.364,4.169
	C87.036,88.637,88.666,85.322,88.077,84.255z"/>
<path fill="#FFFFFF" d="M113.005,84.255c2.32-4.201,6.799-7.046,11.942-7.046c7.528,0,13.63,6.095,13.63,13.613
	c0,3.123-4.974,4.56-4.974,3.159c0-5.783-4.688-10.472-10.471-10.472c-3.417,0-6.452,1.637-8.364,4.169
	C114.046,88.637,112.416,85.322,113.005,84.255z"/>
</svg>
