<?xml version="1.0" encoding="UTF-8"?>
<svg width="239px" height="107px" viewBox="0 0 239 107" version="1.1" xmlns="http://www.w3.org/2000/svg" xmlns:xlink="http://www.w3.org/1999/xlink">
    <!-- Generator: Sketch 54.1 (76490) - https://sketchapp.com -->
    <title>logo_vorn</title>
    <desc>Created with Sketch.</desc>
    <g id="Page-1" stroke="none" stroke-width="1" fill="none" fill-rule="evenodd">
        <g id="logo_vorn" fill="#53682A" fill-rule="nonzero">
            <path d="M20.481,0.4 C30.162,0.52 38.248,6.07 41.637,11.885 C44.359,16.556 43.84,39.032 37.156,48.972 C28.061,62.498 15.898,61.779 15.898,61.779 L18.881,101.679 C18.881,104.33 16.732,106.479 14.081,106.479 L5.371,106.627 C2.721,106.703 0.511,104.616 0.435,101.967 L4.861,5.32 C4.785,2.67 5.655,0.495 6.805,0.462 C6.804,0.463 13.961,0.319 20.481,0.4 Z M14.896,48.245 C14.896,48.245 16.866,48.335 19.019,48.245 C28.717,47.841 37.548,21.653 25.046,13.444 C22.639,11.863 20.44,11.573 19.023,11.573 C17.606,11.573 12.186,11.573 12.186,11.573 L14.896,48.245 Z" id="Shape"></path>
            <path d="M143.546,86.297 C147.405,91.578 152.329,99.202 149.885,101.443 C147.44,103.684 144.637,105.304 140.36,105.304 C136.082,105.304 132.975,97.026 130.416,91.005 C130.416,91.005 122.071,60.889 120.913,61.171 C118.065,61.864 116.069,61.779 116.069,61.779 L119.051,101.679 C119.051,104.33 116.903,106.479 114.251,106.479 L105.54,106.627 C102.891,106.703 100.681,104.616 100.604,101.967 L105.03,5.32 C104.955,2.67 105.824,0.495 106.974,0.462 C106.974,0.462 114.131,0.318 120.651,0.399 C130.332,0.519 138.419,6.069 141.806,11.884 C144.528,16.555 144.009,39.031 137.326,48.971 C134.067,53.817 130.203,56.94 126.858,58.818 C126.045,59.276 143.546,86.297 143.546,86.297 Z M115.066,48.245 C115.066,48.245 117.037,48.335 119.189,48.245 C128.887,47.841 137.718,21.653 125.215,13.444 C122.808,11.863 120.61,11.573 119.193,11.573 C117.775,11.573 112.356,11.573 112.356,11.573 L115.066,48.245 Z" id="Shape"></path>
            <path d="M234.191,5.813 C235.597,5.989 238.467,8.021 238.391,10.671 C238.391,10.671 215.952,48.951 214.903,61.016 C213.043,82.429 216.779,101.968 216.779,101.968 C216.703,104.617 214.493,106.704 211.843,106.628 L203.132,106.48 C200.481,106.48 198.332,104.332 198.332,101.68 L201.14,60.024 C201.14,60.024 195.329,34.507 194.276,29.062 C193.222,23.618 187.285,6.305 187.285,6.305 C187.209,3.655 191.308,2.852 192.538,3.203 C193.767,3.554 198.909,18.367 200.841,25.743 C202.774,33.119 206.327,48.486 207.381,49.539 C208.436,50.593 209.565,49.715 210.794,48.485 C212.023,47.255 222.568,22.923 226.081,17.303 C227.166,15.567 232.786,5.638 234.191,5.813 Z" id="Path"></path>
            <path d="M92.098,106.629 C94.748,106.629 96.608,103.479792 96.259,99.6844018 L95.04,94.3125509 C94.727,90.8996708 89.133,84.6012545 86.699,84.6012545 C86.699,84.6012545 68.189,86.8963142 58.362,88.2889475 C56.945,88.4913436 56.186,69.2989995 57.62,55.4023757 C57.758,54.0635909 72.736,55.0068678 72.736,55.0068678 C74.945,54.2715574 75.572,52.3255845 75.313,48.9424139 C75.313,48.9424139 75.017,43.71354 74.271,43.4684365 C73.524,43.2251899 58.25,43.5761335 58.211,42.2893403 C57.791,28.3890029 59.988,14.6836341 60.591,14.6650656 C65.445,14.5016633 89.95,13.7719235 91.45,13.1183142 C93.136,12.3848607 92.139,9.35820424 91.971,7.37880807 C91.783,5.17659057 91.382,4.03648808 89.628,4.03648808 C89.628,4.03648808 57.086,2.68470533 55.103,2.629 L52.409,2.629 C51.259,2.6624232 50.388,4.79222377 50.465,7.38809229 L41.719,102.059306 C41.795,104.655174 44.005,106.69956 46.655,106.623429 L92.098,106.629 Z" id="Path"></path>
            <path d="M180.187,8.547 C180.091,12.503 179.652,12.13 177.571,14.854 C177.571,14.854 160.754,26.359 158.99,46.996 C156.835,72.194 186.119,91.675 186.119,91.675 C188.115,93.546 191.411,96.236 189.54,98.232 L188.157,104.873 C186.286,106.869 182.291,107.305 180.294,105.433 C180.294,105.433 147.044,89.972 146.941,54.244 C146.865,27.522 176.977,5.724 176.977,5.724 C180.573,3.251 180.187,8.547 180.187,8.547 Z" id="Path"></path>
        </g>
    </g>
</svg>