<?xml version="1.0" encoding="UTF-8"?>
<svg width="449px" height="227px" viewBox="0 0 449 227" version="1.1" xmlns="http://www.w3.org/2000/svg" xmlns:xlink="http://www.w3.org/1999/xlink">
    <!-- Generator: Sketch 54.1 (76490) - https://sketchapp.com -->
    <title>percy_hinten</title>
    <desc>Created with Sketch.</desc>
    <g id="Page-1" stroke="none" stroke-width="1" fill="none" fill-rule="evenodd">
        <g id="percy_hinten">
            <path d="M0.882,109.258 C2.059,110.355 3.181,111.309 4.259,112.148 C5.338,112.984 6.37,113.706 7.367,114.325 C9.36,115.561 11.208,116.398 12.962,116.898 C16.471,117.895 19.586,117.523 22.69,115.88 C26.503,113.949 30.224,109.824 35.343,105.8 C39.735,102.192 45.973,98.78 53.583,99.075 C61.13,99.146 70.049,102.925 78.355,108.564 C91.635,118.832 78.329,145.73 54.386,151.183 C38.462,153.81 25.448,149.356 16.818,140.756 C15.681,139.673 14.615,138.546 13.618,137.385 C12.622,136.223 11.694,135.03 10.83,133.811 C9.102,131.371 7.635,128.834 6.377,126.219 C3.862,120.976 2.177,115.451 0.882,109.258 L0.882,109.258 Z" id="Path" fill="#000000" fill-rule="nonzero"></path>
            <path d="M18.562,142.26 C19.481,143.544 14.963,137.854 14.563,132.968 C13.768,127.58 17.091,122.993 24.566,114.898 C25.847,113.528 30.88,109.701 30.904,109.544 C30.889,109.534 28.987,113.564 27.091,120.4 C26.065,124.095 25.704,128.374 26.362,132.547 C27.053,136.901 29.141,140.75 32.724,144.816 C35.24,147.73 40.032,150.617 43.553,151.686 C40.328,152.67 26.111,149.946 18.562,142.26 L18.562,142.26 Z" id="Path" fill="#A89D96" fill-rule="nonzero"></path>
            <path d="M44.197,141.216 C34.801,135.982 30.39,125.954 38.801,103.468 C39.94,101.942 44.904,100.299 44.955,100.39 C44.946,100.34 42.764,105.339 42.827,109.874 C42.862,113.616 44.344,121.014 47.021,124.386 C50,128.25 56.488,132.232 60.449,134.246 C63.634,135.77 70.831,137.146 76.594,137.188 C74.898,139.208 70.627,143.852 66.558,146.068 C66.557,146.068 58.173,149.188 44.197,141.216 Z" id="Path" fill="#A89D96" fill-rule="nonzero"></path>
            <path d="M66.5,83.982 C42.835,93.149 43.058,143.709 61.846,160.834 C77.027,157.599 92.261,148.935 92.261,148.935 C92.261,148.935 115.767,160.415 121.396,156.879 C144.306,119.953 125.542,78.614 66.5,83.982 Z" id="Path" fill="#8C8179" fill-rule="nonzero"></path>
            <path d="M136.307,111.04 L429.106,111.04 C439.71,111.04 448.306,119.636 448.306,130.24 L448.306,207.04 C448.306,217.644 439.71,226.24 429.106,226.24 L136.307,226.24 C125.703,226.24 117.107,217.644 117.107,207.04 L117.107,130.24 C117.106,119.636 125.703,111.04 136.307,111.04 Z" id="Path" fill="#EB6C0D" fill-rule="nonzero"></path>
            <path d="M42.974,60.138 C42.974,60.138 42.323,49.067 42.453,46.332 C42.583,43.597 42.844,35.261 42.974,32.917 C43.104,30.572 42.583,19.11 43.104,15.463 C43.626,11.817 44.538,3.22 48.185,0.875 C51.832,-1.469 61.602,1.526 65.769,3.09 C69.937,4.653 75.798,10.123 78.534,10.384 C81.27,10.644 82.702,8.56 85.958,7.648 C93.78,5.458 95.464,5.176 98.438,5.176 C101.412,5.176 103.096,5.458 110.917,7.648 C114.173,8.56 115.606,10.644 118.341,10.384 C121.076,10.123 126.938,4.653 131.106,3.09 C135.274,1.527 145.043,-1.469 148.69,0.875 C152.337,3.22 153.249,11.816 153.77,15.463 C154.291,19.11 153.77,30.571 153.9,32.917 C154.03,35.261 154.291,43.597 154.421,46.332 C154.551,49.067 153.9,60.138 153.9,60.138 L42.974,60.138 Z" id="Path" fill="#B9B2AA" fill-rule="nonzero"></path>
            <path d="M50.744,4.794 C46.577,7.269 44.883,28.326 46.446,28.456 C47.395,28.535 49.214,25.97 52.151,22.955 C55.603,19.411 58.694,16.301 64.753,14.196 C68.388,12.933 72.584,12.913 72.627,11.914 C72.67,10.917 54.913,2.32 50.744,4.794 Z" id="Path" fill="#000000" fill-rule="nonzero"></path>
            <path d="M145.528,4.794 C149.695,7.269 151.389,28.326 149.826,28.456 C148.877,28.535 147.057,25.97 144.12,22.955 C140.668,19.411 137.578,16.301 131.518,14.196 C127.883,12.933 123.688,12.913 123.644,11.914 C123.602,10.917 141.359,2.32 145.528,4.794 Z" id="Path" fill="#000000" fill-rule="nonzero"></path>
            <path d="M98.297,70.814 C72.273,70.814 51.175,90.198 51.175,114.111 C51.175,129.298 70.212,155.9 83.088,163.629 C90.487,168.069 113.177,131.619 113.177,131.619 C113.177,131.619 158.599,124.622 158.542,117.255 C143.915,76.535 90.983,70.625 98.297,70.814 Z" id="Path" fill="#B9B2AA" fill-rule="nonzero"></path>
            <path d="M67.346,148.667 C69.912,149.277 76.152,152.053 77.158,151.862 C78.165,151.672 83.395,148.569 84.251,148.53 C85.107,148.492 89.535,152.908 90.291,152.87 C91.045,152.832 100.28,149.221 100.148,149.762 C99.796,151.212 88.368,165.405 83.737,163.954 C80.434,162.921 68,150.613 67.346,148.667 Z" id="Path" fill="#000000" fill-rule="nonzero"></path>
            <path d="M145.156,95.879 C145.498,98.796 147.29,104.038 146.996,105.141 C146.702,106.245 142.271,109.398 142.144,110.348 C142.018,111.298 145.421,117.157 145.305,117.994 C145.189,118.831 139.591,126.157 140.143,126.06 C141.623,125.802 158.949,121.902 158.445,116.781 C158.07,112.961 147.025,96.789 145.156,95.879 Z" id="Path" fill="#000000" fill-rule="nonzero"></path>
            <ellipse id="Oval" fill="#EB6C12" fill-rule="nonzero" cx="98.594" cy="111.747" rx="4.514" ry="5.517"></ellipse>
            <path d="M76.419,98.493 C78.669,97.545 81.787,97.559 85.734,100.637 C88.914,103.117 90.592,103.214 91.401,106.16 C91.898,107.972 90.811,108.637 90.457,110.171 C90.103,111.705 91.519,115.008 90.575,116.66 C90.119,117.457 86.356,118.4 84.211,119.283 C82.049,120.174 77.494,120.625 75.946,120.553 C67.049,120.131 71.935,100.38 76.419,98.493 Z" id="Path" fill="#EB6C12" fill-rule="nonzero"></path>
            <path d="M120.553,98.346 C118.303,97.398 115.184,97.412 111.238,100.49 C108.058,102.97 106.379,103.067 105.571,106.013 C105.074,107.825 106.161,108.49 106.515,110.024 C106.869,111.557 105.453,114.861 106.397,116.513 C106.854,117.312 110.616,118.253 112.76,119.137 C114.923,120.028 119.478,120.479 121.026,120.406 C129.921,119.984 125.036,100.233 120.553,98.346 Z" id="Path" fill="#EB6C12" fill-rule="nonzero"></path>
            <path d="M69.046,88.465 C61.64,85.325 58.418,84.64 51.247,84.364 C44.076,84.088 39.202,78.971 39.202,72.319 C39.202,72.319 38.927,54.295 42.65,46.986 C46.373,39.678 56.087,31.655 65.79,31.93 C90.31,32.145 82.886,39.756 98.437,39.756 C113.988,39.756 106.418,32.146 130.983,31.93 C140.686,31.655 150.401,39.678 154.125,46.986 C157.848,54.295 157.573,72.319 157.573,72.319 C157.573,78.971 152.698,84.088 145.529,84.364 C138.358,84.64 135.135,85.325 127.73,88.465 C112.019,95.128 110.874,103.808 98.476,103.808 C86.076,103.808 84.757,95.128 69.046,88.465 Z" id="Path" fill="#E2DFD9" fill-rule="nonzero"></path>
            <path d="M98.299,97.304 C94.481,97.877 88.466,91.264 89.155,87.653 C89.758,84.497 95.309,84.236 95.361,80.842 C95.467,74.01 95.742,72.207 94.788,73.144 C91.08,76.787 80.755,81.161 73.5,82.315 C69.484,82.955 59.458,82.356 57.598,81.628 C55.738,80.9 54.476,80.192 50.698,79.208 C45.862,77.949 44.274,81.675 45.143,73.818 C45.966,66.387 48.379,57.073 57.32,50.57 C61.046,47.861 70.528,44.305 76.793,44.644 C83.058,44.983 90.727,53.003 92.285,52.527 C93.844,52.051 95.085,37.897 95.833,34.432 C96.787,30.023 96.957,26.352 98.388,26.352 C99.819,26.352 99.988,30.012 100.943,34.432 C101.692,37.897 102.934,52.051 104.491,52.527 C106.048,53.003 113.718,44.983 119.983,44.644 C126.248,44.305 135.731,47.861 139.456,50.57 C148.397,57.073 150.81,66.387 151.632,73.818 C152.502,81.674 150.914,77.949 146.078,79.208 C142.299,80.192 141.038,80.9 139.178,81.628 C137.318,82.356 127.293,82.955 123.276,82.315 C116.022,81.161 105.697,76.787 101.988,73.144 C101.034,72.207 101.31,74.01 101.415,80.842 C101.468,84.236 107.019,84.497 107.622,87.653 C108.31,91.264 102.296,97.877 98.478,97.304" id="Path" fill="#000000" fill-rule="nonzero"></path>
            <path d="M93.029,99.203 C93.029,99.203 95.492,101.954 98.53,101.954 C101.568,101.954 104.03,99.203 104.03,99.203 L93.029,99.203 Z" id="Path" fill="#F4B2C0" fill-rule="nonzero"></path>
            <path d="M103.672,52.423 C105.174,50.947 107.546,40.756 125.581,42.909 C145.672,45.308 152.979,63.387 153.13,66.386 C153.385,71.497 136.212,78.285 124.515,78.051 C117.018,77.901 110.664,72.353 106.795,67.204 C101.441,60.079 100.19,60.058 98.41,60.058 C96.631,60.058 95.384,60.057 89.985,67.204 C86.104,72.343 79.763,77.901 72.266,78.051 C60.569,78.285 43.395,71.497 43.651,66.386 C43.801,63.387 51.108,45.308 71.199,42.909 C89.236,40.756 91.607,50.948 93.109,52.423 C94.611,53.898 96.154,51.752 98.407,51.752 C100.66,51.751 102.17,53.898 103.672,52.423 Z M89.237,53.979 C87.998,52.762 86.043,44.358 71.17,46.134 C54.603,48.111 48.577,63.02 48.452,65.493 C48.242,69.708 62.404,75.306 72.049,75.113 C78.23,74.989 83.461,70.406 86.662,66.168 C91.112,60.273 90.475,55.195 89.237,53.979 Z M110.213,66.167 C113.414,70.405 118.644,74.988 124.826,75.112 C134.472,75.305 148.633,69.708 148.422,65.492 C148.298,63.019 142.273,48.111 125.705,46.133 C110.832,44.357 108.877,52.761 107.639,53.978 C106.399,55.195 105.762,60.273 110.213,66.167 Z" id="Shape" fill="#EB6C12" fill-rule="nonzero"></path>
            <path d="M86.077,62.255 C83.756,58.054 79.278,55.209 74.135,55.209 C66.606,55.209 60.503,61.304 60.503,68.822 C60.503,71.945 65.478,73.382 65.478,71.981 C65.478,66.198 70.166,61.509 75.949,61.509 C79.366,61.509 82.401,63.146 84.313,65.678 C85.036,66.637 86.666,63.322 86.077,62.255 Z" id="Path" fill="#FFFFFF" fill-rule="nonzero"></path>
            <path d="M111.005,62.255 C113.325,58.054 117.804,55.209 122.947,55.209 C130.475,55.209 136.577,61.304 136.577,68.822 C136.577,71.945 131.603,73.382 131.603,71.981 C131.603,66.198 126.915,61.509 121.132,61.509 C117.715,61.509 114.68,63.146 112.768,65.678 C112.046,66.637 110.416,63.322 111.005,62.255 Z" id="Path" fill="#FFFFFF" fill-rule="nonzero"></path>
            <text id="It’s-time-to-get-in" font-family="Roboto-Regular, Roboto" font-size="17" font-weight="normal" letter-spacing="1.89090896" fill="#FFFFFF">
                <tspan x="231.511968" y="123">It’s time to</tspan>
                <tspan x="148.04584" y="146" font-size="38" letter-spacing="1.49">GET IN TOUCH</tspan>
                <tspan x="218.339463" y="196">with the team</tspan>
            </text>
        </g>
    </g>
</svg>