<svg xmlns="http://www.w3.org/2000/svg" width="24.004" height="24.119" viewBox="0 0 417.469 419.468">
  <metadata><?xpacket begin="﻿" id="W5M0MpCehiHzreSzNTczkc9d"?>
<x:xmpmeta xmlns:x="adobe:ns:meta/" x:xmptk="Adobe XMP Core 5.6-c138 79.159824, 2016/09/14-01:09:01        ">
   <rdf:RDF xmlns:rdf="http://www.w3.org/1999/02/22-rdf-syntax-ns#">
      <rdf:Description rdf:about=""/>
   </rdf:RDF>
</x:xmpmeta>
                                                                                                    
                                                                                                    
                                                                                                    
                                                                                                    
                                                                                                    
                                                                                                    
                                                                                                    
                                                                                                    
                                                                                                    
                                                                                                    
                                                                                                    
                                                                                                    
                                                                                                    
                                                                                                    
                                                                                                    
                                                                                                    
                                                                                                    
                                                                                                    
                                                                                                    
                                                                                                    
                           
<?xpacket end="w"?></metadata>
<defs>
    <style>
      .cls-1 {
        fill: rgba(0, 0, 0, 0.26);
        fill-rule: evenodd;
      }
    </style>
  </defs>
  <path id="WA_Logo" data-name="WA Logo" class="cls-1" d="M430.394,744.826l29.49-107.717a207.5,207.5,0,0,1-27.747-103.922c0.046-114.611,93.3-207.856,207.873-207.856A207.905,207.905,0,0,1,847.882,533.353c-0.046,114.614-93.306,207.868-207.869,207.868h-0.086a207.686,207.686,0,0,1-99.337-25.3Zm115.3-66.539L552,682.032a172.519,172.519,0,0,0,87.937,24.083h0.071c95.228,0,172.735-77.508,172.773-172.775a172.8,172.8,0,0,0-172.7-172.9c-95.3,0-172.808,77.5-172.846,172.761a172.351,172.351,0,0,0,26.416,91.947l4.108,6.538L480.3,695.441Zm199.041-95.5c-1.3-2.167-4.76-3.467-9.954-6.067s-30.73-15.164-35.491-16.9-8.224-2.6-11.686,2.6-13.416,16.9-16.447,20.366-6.059,3.9-11.252,1.3S637.976,576,618.137,558.3c-15.441-13.773-25.865-30.781-28.895-35.982s-0.323-8.01,2.277-10.6c2.337-2.327,5.2-6.067,7.792-9.1s3.462-5.2,5.193-8.665,0.866-6.5-.433-9.1-11.685-28.167-16.014-38.567c-4.216-10.127-8.5-8.755-11.686-8.916-3.026-.151-6.492-0.183-9.955-0.183a19.083,19.083,0,0,0-13.85,6.5c-4.761,5.2-18.179,17.767-18.179,43.331S553,537.285,555.6,540.752s36.624,55.929,88.728,78.427a298.249,298.249,0,0,0,29.61,10.941c12.442,3.954,23.765,3.4,32.715,2.058,9.979-1.49,30.73-12.564,35.058-24.7S746.035,584.948,744.736,582.783Z" transform="translate(-430.406 -325.344)"/>
</svg>
